<?xml version="1.0" encoding="UTF-8"?><svg id="Layer_2" xmlns="http://www.w3.org/2000/svg" viewBox="0 0 425.57 585.57"><defs><style>.cls-1{fill:#2c55a6;}.cls-1,.cls-2,.cls-3,.cls-4,.cls-5,.cls-6,.cls-7,.cls-8,.cls-9,.cls-10,.cls-11,.cls-12,.cls-13,.cls-14,.cls-15,.cls-16,.cls-17,.cls-18,.cls-19,.cls-20,.cls-21,.cls-22,.cls-23,.cls-24,.cls-25,.cls-26,.cls-27,.cls-28,.cls-29,.cls-30{stroke-width:0px;}.cls-2{fill:#6ecde3;}.cls-3{fill:#2b3b7d;}.cls-4{fill:#fafcfc;}.cls-5{fill:#fafbfc;}.cls-6{fill:#367fc2;}.cls-7{fill:#32afe4;}.cls-8{fill:#253f95;}.cls-9{fill:#3bade3;}.cls-10{fill:#2d4a9f;}.cls-11{fill:#acafb6;}.cls-12{fill:#3287c7;}.cls-13{fill:#2f3f7c;}.cls-14{fill:#1e2939;}.cls-15{fill:#141b28;}.cls-16{fill:#3e8bca;}.cls-17{fill:#3499d5;}.cls-18{fill:#3273ba;}.cls-19{fill:#3762ae;}.cls-20{fill:#46c5ed;}.cls-21{fill:#a5aab1;}.cls-22{fill:#3367b2;}.cls-23{fill:#54c0ee;}.cls-24{fill:#2a4b9e;}.cls-25{fill:#101520;}.cls-26{fill:#3f78bd;}.cls-27{fill:#4597d2;}.cls-28{fill:#212e3f;}.cls-29{fill:#fafcfd;}.cls-30{fill:#31bfeb;}</style></defs><g id="Layer_1-2"><g id="_3JjKXJ"><path class="cls-4" d="M100.22,268.76c-23.48,1.8-45.86,7.83-67.03,18.03-9.29,4.47-17.82,10.34-26.01,16.65-1.05.81-2.11,1.64-3.24,2.34-1.02.63-2.21,1.05-3.21.03-1.31-1.34-.6-3.01.06-4.17,3.41-6.09,6.62-12.34,10.63-18.03,24.59-34.87,55.86-61.89,94.92-79.49,2.92-1.32,3.23-3.11,3.23-5.78.06-34.66.31-69.32.21-103.97-.02-5.95,1.8-10.36,5.97-14.56,23.57-23.79,46.92-47.79,70.37-71.7,1.75-1.78,3.53-3.56,5.48-5.09,2.81-2.21,5.56-1.22,6.3,2.23.27,1.28.11,2.66.11,3.99.01,56.99.02,113.98,0,170.97,0,2.19-.55,4.15,3,4.09,33-.57,65.91,2.64,98.91,2.59,32.18-.05,62.82-6.08,91.21-21.71,10.22-5.62,19.86-12.15,28.81-19.66,1.26-1.05,2.61-3.44,4.54-1.79,1.96,1.67.76,4-.15,5.97-5.77,12.57-12.63,24.53-20.55,35.87-17.65,25.26-39.05,46.65-65.16,63.24-22.96,14.59-48,22.68-75.09,24.31-21.16,1.27-42.26-.35-63.33-2.3-4.17-.58-8.19.81-12.32.95-.57.08-1.13.09-1.7.07-21.94-1.35-43.87-2.41-65.85-2.3-6.77,1.12-13.36-2.33-20.15-.76Z"/><path class="cls-5" d="M198.09,379.94c1.64,25.64,6.39,50.52,19.55,73.01,17.89,30.55,44.76,48.89,78.96,56.94,12.4,2.92,25.04,3.4,37.69,3.71,7.94.2,9.21,1.38,9.25,9.42.07,16.99.21,33.97.09,50.96-.04,6.45-2.15,8.63-8.61,9.31-24.24,2.55-48.49,3.65-72.68-.41-41.38-6.94-77.61-24-106.52-55.03-19.91-21.38-32.96-46.53-39.68-74.9-3.57-15.06-5.78-30.35-6.01-45.88-.6-1.44-.34-2.96-.34-4.44-.02-34.29-.01-68.58-.01-102.86,0-5.36.9-6.49,5.07-6.46,4.25.03,5.82,1.69,5.83,6.8.09,33.46.03,66.91.05,100.37,0,2.33-.16,4.66.51,6.93,1.15,13.89,2.74,27.71,5.98,41.33,5.26,22.1,14.47,42.31,28.12,60.48,27.03,34.98,63.41,53.68,106.24,61.37,21.49,3.86,43.02,3.04,64.61,1.71,3.96-.24,5.63-1.95,5.51-5.94-.15-5.15-.1-10.31-.03-15.47.02-6.66-.15-13.33.02-19.98.1-3.67-1.1-5.4-5.05-5.61-16.34-.89-32.48-3.2-48.12-8.19-18.86-6.03-35.59-15.66-49.5-29.91-9.22-10.53-18.24-21.21-24.58-33.83-1.1-2.25-1.69-4.72-2.92-6.93-.41-.81-.81-1.63-1.21-2.45-.52-1.06-1-2.14-1.4-3.25-.99-2.62-2.27-5.12-2.98-7.85-4.51-14.14-7.6-28.55-8.84-43.37-.54-6.48-.57-12.93-.37-19.42.16-19.94-.03-39.87.09-59.81.04-5.56,2.09-7.46,6.65-6.63,3.47.63,4.35,2.76,4.33,6.07-.13,14.95-.13,29.9-.03,44.85.06,8.46-.46,16.92.31,25.37Z"/><path class="cls-11" d="M198.09,379.94c-1.17-1.83-.72-3.89-.73-5.85-.1-21.16-.17-42.31-.18-63.47,0-2.61.18-4.81-3.38-5.45-3.99-.72-5.73-.13-5.66,4.51.26,18.65.19,37.31.22,55.97,0,1.82-.18,3.63-.27,5.45-2.65-.96-2.56-3.38-2.54-5.44.28-29.96-1.21-59.94.97-89.88.12-1.67.28-3.34,1.59-4.6-.06-.29.03-.53.26-.72,3.34.16,6.73-.65,10.02.53-.71,11.6-.38,23.2-.36,34.8.05,24.71.04,49.43.06,74.14Z"/><path class="cls-21" d="M120.1,408.96c-1.2-2-.72-4.22-.72-6.34-.08-34.11-.12-68.22-.14-102.32,0-2.92.36-5.5-4.17-5.36-3.71.12-4.76,1.14-4.75,4.86.15,33.94.11,67.88.1,101.82,0,1.82-.19,3.63-.3,5.45-1.06-3.07-.67-6.26-.65-9.39.25-38.76-.53-77.53.43-116.29.02-.67.01-1.33.02-2q.06-10.27-9.72-10.64c6.61-2.23,13.39-.1,20.06-.85,1.38,6.35,1.71,12.85,1.74,19.28.16,37.94.1,75.89.04,113.83,0,2.75.54,5.75-1.96,7.93Z"/><path class="cls-5" d="M198.38,271c-3.34-.18-6.68-.35-10.02-.53,3.96,0,7.99-2.54,11.87.33-.62.07-1.24.13-1.85.2Z"/><path class="cls-25" d="M120.1,408.96c.04-25.27.17-50.54.11-75.8-.05-19.62-.35-39.23-.5-58.85-.02-2.14-.43-4.33.58-6.39,21.79-.74,43.5,1.07,65.24,2.06,1.14.05,1.74.78,2.58,1.22-.82,32.34-1.34,64.68-.6,97.02.02.97.38,1.93.58,2.89-.17,20.22,2.69,40,8.71,59.31.34,1.1.55,2.25.81,3.38-2.68,1.32-3.04-1.89-4.78-2.45-.64,1.01.15,1.9.23,2.85.5,5.7-2.05,8.04-7.66,7.03-.65-.12-1.3-.32-1.95-.41-2.25-.31-5.06-2.9-6.48-1.08-2.17,2.8-4.76,5.85-4.61,10.04.46-3.77,2.51-5.96,6.05-6.96,2.96-.84,5.32-.11,6.97,2.38,1.67,2.53,1.41,5.19-.75,7.29-7.08,6.89-13.55,14.36-20.49,21.37-.83.84-1.69,1.61-2.87,1.89-1.35.32-2.75.37-3.73-.71-1.11-1.22-.34-2.52.31-3.67.91-1.6,2.19-2.92,3.36-4.33,1.48-1.78,3.19-3.39,3.94-5.77-2.07,4.78-6.8,6.68-10.42,9.73-2.97,2.5-5.28,5.45-7.85,8.25-3.1,3.36-2.61,6.08-.39,9.69,3.21,5.23,5.72,10.88,8.4,16.4.64,1.31,2.78,3.55-.69,4.54-16.97-21.21-25.96-45.85-30.92-72.19-1.79-9.49-2.86-19.08-3.19-28.74Z"/><path class="cls-28" d="M187.07,21.56c1.02,4.01.65,7.34.65,10.64-.03,49.45-.09,98.9-.08,148.35,0,2.46.44,4.34-3.29,4.41-21.99.38-43.14,5.03-63.47,13.26-1.32-1.24-.65-2.63-.65-3.84-.07-33.13-.06-66.27-.18-99.4-.01-3.19.77-5.55,3.08-7.91,20.03-20.46,39.92-41.05,59.86-61.6,1.14-1.17,2.36-2.26,4.1-3.91Z"/><path class="cls-30" d="M362.15,187.88c13.41-4.44,26-10.7,38.33-17.78-1.78,6.37-6.06,10.97-9.73,15.88-20.86,27.87-46,50.78-77.88,65.49-14.74,6.8-30.26,11.09-46.67,11.39-2.4-.98-4.91-.22-7.36-.47-.92-.09-2.21.44-2.57-.82-.39-1.36.79-2.04,1.78-2.66.56-.36,1.19-.66,1.84-.76,7.53-1.21,13.99-5.19,20.91-7.97,9.12-3.66,17.32-8.98,25.67-14.02,8.8-5.3,18.01-9.93,25.85-16.78,7.88-6.89,16.12-13.37,24-20.26,3.39-2.97,4.58-7.14,5.83-11.25Z"/><path class="cls-7" d="M362.15,187.88c.56.45,2.33-.72,1.79,1.12-2.56,8.74-9.53,13.96-16.02,19.44-8.08,6.83-16.52,13.24-24.65,20.01-2.54,2.12-5.73,2.56-8.44,4.15-6.99,4.08-14.03,8.19-20.84,12.42-8.34,5.19-17.73,7.62-26.07,12.46-3.28,1.9-7.53,1.05-11.14,3.57,3.08,2.07,6.79-.51,9.43,1.82-19.47,1.03-38.89-.15-58.32-1.23-.63-.03-1.24-.42-1.86-.64,3.61-1.97,7.62-3,11.45-4.36,17.07-6.06,34.83-10.15,51.62-16.91,14.49-5.83,28.16-13.48,41.23-22.2,8.79-5.87,16.82-12.46,23.8-20.38,2.36-2.68,5.78-3.09,9.06-3.66.07-.01.18-.2.16-.26-.06-.14-.19-.25-.28-.37,6.36-1.66,12.73-3.32,19.09-4.98Z"/><path class="cls-8" d="M161,197.67c.98-.8,2.13-.74,3.29-.62,7.59.28,15.03-1.55,22.63-1.39,4.44.1,8.86-.83,13.32-.54,3.2,3.57-.65,4.23-2.43,4.94-4.02,1.58-7.97,3.6-12.05,4.68-7.17,1.9-13.43,5.74-20.31,8.18-12.22,4.34-24.55,8.38-36.89,12.37-6.52,2.11-12.68,5.06-18.85,7.92-11.91,5.51-24.42,9.65-36.06,15.76-.88.46-1.96.72-2.61,1.43-5.53,6.08-13.11,8.38-20.49,10.81-6.47,2.13-10.42,6.21-12.27,12.59-3.4,1.59-6.34,4.41-11.3,4.08,9.55-12.92,20.39-23.79,32.07-33.9,2.96.5,4.27-2.04,6.06-3.49,7.54-6.07,15.74-11.13,23.99-16.12,11.11-6.57,22.8-11.87,35.08-15.84,1.86-.6,3.87-.88,5.07-2.7.88-.7,1.88-1,2.99-.92,7.94-.93,15.35-4.12,23.2-5.49,1.85-.32,4.05-.13,5.56-1.77Z"/><path class="cls-17" d="M343.06,192.85c.97.09,1.95.17,2.92.26-6.3.54-10.27,4.35-14.39,8.75-13.11,14.01-29.91,22.65-46.44,31.93-15.6,8.76-32.7,12.79-49.29,18.36-6.15,2.07-12.21,4.8-18.77,6.17-3.6.75-7.06,2.89-11.07,2.67-18.35-.99-36.69-1.97-55.04-2.96.97-1.44,2.53-1.65,4-1.54,17.56,1.31,33.6-5.46,50.13-9.48,19.87-4.83,39.55-10.48,58.34-18.66,17.38-7.56,34.52-15.69,48.41-29.12.98-.95,2.14-1.56,3.31-2.19,5.07-2.43,10.66-1.26,15.97-1.98,4.04-.55,7.74-2.84,11.92-2.23Z"/><path class="cls-22" d="M251.19,195.96c1.01.01,2.03.02,3.04.03,5.06,1.22,10.26-.3,15.33.81l7.61.18c-4.18,3.24-7.26,7.9-12.39,9.88-13.63,5.27-26.6,12.1-40.52,16.73-19.87,6.62-39.86,12.81-60.05,18.32-15.86,4.34-31.51,9.24-46.93,14.92-.69.35-1.42.6-2.1.98-7.31.39-14.63.78-21.94,1.17-.9-3.7,1.9-4.99,4.33-6.3,14.11-7.62,28.97-13.38,44.4-17.77,30.74-8.75,61.39-17.8,91.04-29.86,6.25-2.54,11.86-6.58,18.18-9.11Z"/><path class="cls-1" d="M251.19,195.96c-.04,1.28-.59,2.17-1.77,2.76-24.14,11.99-49.55,20.5-75.28,28.3-25.51,7.73-51.74,13.53-75.4,26.61-2.41,1.33-4.62,2.59-5.5,5.37-3.85,1.58-7.99,1.34-12,1.88-3.41-.85-6.38,1.24-9.62,1.47-1.42.1-3.19,1.2-4.14-.44-1.05-1.82.6-3.08,1.78-4.17,5.7-5.31,12.67-8.64,19.67-11.63,13.91-5.94,27.5-12.7,41.88-17.47,12.94-4.28,25.76-8.96,38.96-12.42,7.41-1.95,14.56-4.72,21.62-7.64,12.11-5.02,24.43-9.45,36.85-13.61,1.67.02,3.33.03,5,.05,4.72,1.16,9.59-.28,14.32.8,1.21.05,2.42.1,3.64.15Z"/><path class="cls-24" d="M228.24,194.96c.23.77.68,1.59-.57,1.94-22.22,6.2-42.81,16.93-65.15,22.99-24.67,6.69-48.41,16.28-71.68,26.86-6.91,3.14-13.94,6.25-19.82,11.28-1.11.95-2.5,1.62-2.98,3.44,4.53,1.76,8.75-3.51,13.2-.59-14.7,3.05-29.09,7.13-42.97,12.94-1.23-4.46,3.03-10.79,8.29-12.82,8.09-3.13,16.2-5.54,23.43-11.32,5.76-4.61,13.4-7.78,20.88-10.1,9.57-2.97,18.29-7.91,27.44-11.82,11.94-5.11,24.56-8.11,36.63-12.76,4.49-1.73,9.3-2.73,13.58-4.83,9.5-4.68,19.47-8.01,29.46-11.32,1.53-.51,2.52-1.54,3.28-2.88,5.68-1.11,11.43-.2,17.13-.53,1.94-.11,3.94.51,5.8-.49,1.35.01,2.69.03,4.04.04Z"/><path class="cls-18" d="M116.25,256.87c3.83-5.07,10.09-4.55,15.25-6.4,23.25-8.35,47.37-13.87,70.96-21.12,21.8-6.69,42.77-15.53,63.65-24.58,1.17-.51,2.55-1.35,3.07-2.41,1.68-3.42,4.65-4.62,8-5.38,1.68.02,3.37.04,5.05.05,2.26.98,4.73-.12,7.01.68.69,3.32-1.89,4.82-3.88,6.34-7.42,5.67-15.36,10.34-24.09,13.98-33.76,14.08-68.83,23.91-104.23,32.7-7.43,1.85-14.75,4.02-21.94,6.67-6.28-.34-12.6.69-18.85-.53Z"/><path class="cls-12" d="M289.2,197.95c-2.32-.34-4.83.73-6.98-.91,10.98,0,21.96.02,32.95.03-6.2,9.06-15.46,14.37-24.63,19.64-20.12,11.56-41.58,20.12-63.94,26.11-15.36,4.11-30.8,8.06-46.08,12.42-9.94,2.84-19.69,2.05-29.53,2.82-11.94-.07-23.87-.14-35.81-.22.35-.32.71-.64,1.06-.95,6.66-.02,13.32-.04,19.98-.06,4.63-2.28,9.8-1.36,14.67-2.51,20.22-4.77,40.42-9.53,60.23-15.91,14.39-4.63,29.16-8.21,43.15-14,11.81-4.89,23.6-9.99,33.96-17.74,2.66-1.99,5.49-3.74,7.9-6.8-2.38-1.01-5.21.15-6.94-1.9Z"/><path class="cls-3" d="M224.2,194.92c-5.4,2.01-11.02.52-16.51.95-2.13.17-4.28.05-6.42.07-9.97-.29-19.85.77-29.73,1.84-2.38.26-4.98.87-7.25-.73,19.87-3.5,39.9-2.77,59.92-2.13Z"/><path class="cls-3" d="M129.25,205.85c2.34.52,1.25,1.23.14,2.02-3.78,2.67-8.5,2.41-12.68,4.12-9.39,3.86-18.43,8.34-27.45,12.93-.62-.42-.67-.9-.18-1.45,12.78-7.27,25.89-13.76,40.17-17.62Z"/><path class="cls-13" d="M89.09,223.47c.06.48.12.97.18,1.45-8.46,6.38-18.38,10.71-25.93,18.38-1.21,1.23-2.55,2.31-4.28.7,9.71-7.28,19.25-14.81,30.04-20.53Z"/><path class="cls-3" d="M161,197.67c.48.23,1.57.8,1.05.94-9.35,2.54-18.75,4.89-28.16,7.2-.45.11-1.09-.57-1.64-.89,9.22-3.84,18.97-5.62,28.75-7.26Z"/><path class="cls-18" d="M269.57,196.8c-5.12-.15-10.3,1.04-15.33-.81,5.13-.16,10.27-.33,15.33.81Z"/><path class="cls-22" d="M247.56,195.81c-4.79-.01-9.63,1.03-14.32-.8,4.8-.28,9.59-.2,14.32.8Z"/><path class="cls-14" d="M154.22,509.89c1.8-1.77-.06-3.1-.71-4.39-3.36-6.66-6.88-13.25-10.35-19.86-.93-1.78-1.15-2.67.68-4.79,3.84-4.44,6.86-9.99,12.07-12.63,4.78-2.42,6.53-7.89,11.98-10.65-.71,6.19-4.9,9-7.57,12.74-.95,1.33-3.46,2.77-1.58,4.27,1.56,1.24,3.59-.12,4.83-2.15,2.56-4.17,6.8-6.88,9.77-10.93,2.1-2.86,5.27-6.6,9.05-8.71,2.55-1.42,3.59-3.58,2.47-6.28-.79-1.91-2.58-3.62-4.68-2.84-2.36.88-5.99.7-5.96,4.85.01,1.56.67,3.46-1.15,4.54-.67.39-1.22-.22-1.57-.81-1.16-1.94-2.21-4.38-.6-6.04,2.06-2.14,3.06-4.53,3.88-7.21.62-2.02,2.04-2.34,3.94-1.4,2.38,1.19,4.87,2.02,7.57,2.35,4.43.54,6.68-1.92,5.37-6.17-.51-1.64-2.56-3.69-.45-4.87,2.48-1.38,3.13,1.51,4.11,3.11.56.91,1.26,1.53,2.29,1.77.85,2.36,1.69,4.73,2.54,7.09-1.36,1.67-.26,2.33,1.17,2.85.79.5,1.02,1.26.98,2.14.14,2.73,1.19,5.04,3.2,6.91,6.62,11.86,14.7,22.66,23.89,32.64,3.46,6.41,9.45,10.62,14.14,15.95,19.95,22.68,44.61,37.65,74.42,43.67,3.43.69,6.86,1.35,10.28,2.1,2.25.5,4.02,1.53,4.98,3.7.08,5.65-.25,11.35.37,16.95.51,4.63-1.59,5.75-5.41,5.95-11.97.62-23.91,1.61-35.91,1.33-42.69-1.02-81.49-13.2-114.85-40.55-8.75-7.17-16.74-15.22-23.18-24.64Z"/><path class="cls-15" d="M333.2,550.85c-5.46-3.66-11.99-3.49-18.05-4.89-20.08-4.61-38.17-13.23-54.33-25.99-11.39-8.99-20.72-19.95-29.99-30.99-.9-1.07-1.63-2.09-1.45-3.55,10.47,11.03,23.04,19.09,36.77,25.32,12.81,5.82,26.43,9.08,40.33,10.97,7.74,1.05,15.57,1.45,23.37,2.01,2.17.16,3.8.15,3.69,3.17-.27,7.98-.26,15.97-.35,23.96Z"/><path class="cls-25" d="M205.49,452.79c-2.62-1.59-5.13-3.22-3.2-6.91,1.86,1.94,2.42,4.48,3.2,6.91Z"/><path class="cls-25" d="M201.31,443.74c-2.31,1.96-3.31-.21-3.62-1.63-.43-1.96,1.11-1.79,2.45-1.22.74.81,1.24,1.71,1.17,2.85Z"/><path class="cls-29" d="M254.17,67.54C254.22,30.21,285.36-.06,323.66,0c38.46.06,68.87,30.75,68.71,69.35-.15,36.8-31.21,67.66-68.02,67.59-39.97-.08-70.24-30.01-70.18-69.4Z"/><path class="cls-6" d="M289.2,197.95h9.27c-1.5,5.47-6,7.58-9.84,10.23-18.45,12.75-39.13,20.48-60.49,26.62-15.89,4.56-31.43,10.17-47.71,13.62-9.46,2.01-18.86,4.92-28.37,7.16-5.28,1.25-10.51,1.41-15.83,1.23,3.69-4.24,9.12-4.56,13.98-5.82,26.34-6.8,52.75-13.35,78.49-22.17,12.87-4.41,25.54-9.45,38.04-14.82,8.54-3.67,16.34-8.8,22.46-16.06Z"/><path class="cls-25" d="M153.18,483.19c-.16,1.01-.4,2.08-1.71,1.97-1.29-.11-2.12-.89-2.1-2.28.02-1.15.58-1.85,1.8-1.88,1.51-.04,2.02.83,2,2.2Z"/><path class="cls-9" d="M373.04,98.81c-.86,3.52-3.79,5.48-6,7.99-4.73.41-8.47-1.06-10.66-5.55-1.28-2.62-3.69-3.71-6.29-4.5-9.99-3.05-20.28-3.95-30.56-2.99-10.37.97-20.86,1.07-31.02,4.2-3.81,1.17-7.31,1.95-9.2,5.83-.36.74-1.05,1.29-2.02,1.07-4.36-4.57-7.22-9.98-9.02-15.99-.62-4.32,1.02-6.72,5.45-7.88,4.95-1.3,5.91-3.77,3.82-9.3-2.38-6.29-4.24-12.53-3.88-19.4.65-12.32,9.28-22.65,21.77-26.21,3.94-1.12,7.13,1.07,9.92,3.55,10.5,9.36,14.25,27.63,8.41,40.53-3.93,8.68-3.18,10.17,6.41,10.12,9.76-.05,19.18,1.91,28.69,3.54,3.83.66,7.39,2.06,10.43,4.52,4.48,3.63,8.95,7.25,13.74,10.45Z"/><path class="cls-27" d="M373.04,98.81c-4.55-.46-7.8-2.96-10.81-6.26-5.63-6.18-13.5-7.03-21.15-8.7-9.14-1.99-18.46-1.38-27.62-2.74-4.47-.67-4.57-2.59-3.45-6.13,1.3-4.1,3.71-7.64,4.56-12.04,2.4-12.43-2.18-22.53-9.7-31.65-2.59-3.15-6.01-5.13-10.98-3.31-16.91,6.19-22.94,23.61-16.09,40.09.76,1.84,1.58,3.67,2.13,5.58,1.25,4.39-.11,8.04-4.75,8.61-4.43.55-6.13,2.84-6.91,6.63-6.83-18.37-5.23-35.81,5.78-52.21,4.96-2.96,8.84-7.37,13.89-10.21,2.17-1.22,4.37-2.3,6.83-2.81,8.98-3.37,14.4,1.46,19.15,8.16,7.12,10.04,10.37,20.95,8.85,33.35-.78,6.35.46,7.75,6.97,8,8.99.36,17.27,3.21,25.6,6.08,4.61,1.59,9.05,3.64,12.19,7.47,2.41,2.94,6.77,2.87,8.76,6.23-.09,2.51-2.78,3.57-3.25,5.87Z"/><path class="cls-20" d="M277.29,104.86c1.69-5.52,5.47-7.1,11.1-8.49,13.85-3.42,27.81-4.24,41.87-4.3,6.06-.03,12.24.59,18.15,2.45,4.42,1.39,9.15,2.21,10.32,7.99.34,1.65,2.14,2.56,3.99,2.39,1.85-.17,3.21.54,4.33,1.9-3.15,5.01-8.08,7.96-12.83,11.12-6.37,1.33-9.91-.34-11.48-5.96-1.12-3.99-3.79-5.98-7.49-6.18-12.59-.69-24.95-.26-35.21,8.75-2.19,1.92-4.59,3.91-7.92,3.47-6.1-3.06-10.78-7.74-14.81-13.14Z"/><path class="cls-19" d="M380.32,55.72c1.15,1.52.92,3.31,1.02,5.04.74,3.72.18,7.49.35,11.22-2.4,3.74-5.8,3.3-8.52,1.09-9.32-7.59-20.27-11.38-31.66-14.17-5.85-1.43-9.27-4.89-10.7-10.58-2.05-8.15-6.61-14.87-12.08-21.02-4.91-5.53-11.2-6.65-18.23-5.53-3.14.5-6.67,1.5-8.27-2.82,3.94-2.89,8.33-4.77,13.07-5.88,13.58-1.19,22.27,6.96,30.23,16.15,2.94,3.39,6.13,5.91,10.3,7.5,6.06,2.3,12.16,4.54,18.11,7.11,6.31,2.73,11.92,6.56,16.38,11.89Z"/><path class="cls-10" d="M380.32,55.72c-.5.65-1.12.75-1.64.14-8.07-9.47-19.75-12.39-30.59-16.73-5.61-2.25-10.45-4.8-14.37-9.88-7.07-9.15-16.57-14.95-28.41-16.17,30.16-8.58,58.18,3.49,71.43,30.8,1.82,3.75,3.23,7.65,3.58,11.85Z"/><path class="cls-26" d="M292.24,18.95c1.87,1.62,4.24,2.48,6.45,1.83,11.98-3.5,19.8,2.2,26.08,11.43,3.28,4.83,6.08,9.92,7.46,15.68,1.16,4.85,3.55,8.03,8.99,9.37,10.14,2.49,20.37,5.24,28.88,11.73,3.35,2.55,6.28,5.29,10.88,3.79.66.35.79.85.38,1.48-1.44,2.37-.65,5.1-1.2,7.61-3.56,4.78-7.21,5.84-10.7,2.33-8.32-8.35-19.04-11.09-29.91-13.68-.64-.15-1.31-.2-1.96-.33-12.4-2.54-11.46-3.18-12.4-12.54-.88-8.83-3.48-17.35-9.04-24.49-6.96-8.94-12.14-12.18-21.9-8.24-6.19,1.88-10.55,6.58-15.7,10.08-1.25.85-2.32,2.97-4.47,1.65,4.22-7.8,10.36-13.62,18.18-17.71Z"/><path class="cls-2" d="M292.11,117.99c4.09-2.22,7.4-5.6,11.29-8,10.03-6.2,21.36-6.71,32.67-5.76,4.32.36,8.4,2.58,8.17,8.26-.08,1.94.91,3.05,2.8,3.54,2.39.62,4.6,1.93,7.17,1.89-16.65,11.72-46.23,11.76-62.11.08Z"/><path class="cls-16" d="M294.22,24.93c7.33-4.61,16.27-2.21,22.48,6.18,6.61,8.93,9.72,19.21,10.38,30.13.23,3.9,1.37,5.55,5.17,6.3,6.49,1.27,12.95,2.83,19.29,4.7,7.2,2.12,13.76,5.32,18.92,11.22,3.47,3.97,6.55-.25,9.68-1.58-.44,3.98-1.74,7.67-3.86,11.06-4.97-.89-8.35-4.17-12.1-7.29-6.95-5.77-15.99-7.02-24.33-9.74-4.66-1.52-9.58-.46-14.28-1.83-3.56-1.04-5.31-2.16-4.58-6.52,2.52-14.99-1.7-28.08-11.93-39.39-3.43-3.78-7-5.32-11.88-3.45-.89.34-1.98.15-2.97.2Z"/><path class="cls-16" d="M381.35,74.27c-.12-.49-.25-.98-.38-1.48.12-4.01.25-8.02.37-12.03,1.11,4.5,1.29,9,0,13.5Z"/><path class="cls-23" d="M306.31,51.68c-.19,5.53.02,9.71-4.51,12.56-7.5,4.72-12.69,2.01-17.29-3.66-6.95-8.55-6.77-19.5,2.38-26.72,4.73-3.73,9.13-3.65,12.47.97,3.85,5.33,8.12,10.72,6.95,16.86Z"/></g></g></svg>