<?xml version="1.0" encoding="UTF-8"?>
<svg id="Layer_2" xmlns="http://www.w3.org/2000/svg" version="1.1" viewBox="0 0 425.6 585.6">
  <!-- Generator: Adobe Illustrator 30.3.0, SVG Export Plug-In . SVG Version: 2.1.3 Build 182)  -->
  <defs>
    <style>
      .st0 {
        fill: #040404;
      }

      .st1 {
        fill: #8f8f8f;
      }

      .st2 {
        fill: #adadad;
      }

      .st3 {
        fill: #eaeaea;
      }

      .st4 {
        fill: #707070;
      }

      .st5 {
        fill: #a2a2a2;
      }

      .st6 {
        fill: #030303;
      }

      .st7 {
        fill: #7a7a7a;
      }

      .st8 {
        fill: #b5b5b5;
      }

      .st9 {
        fill: #8a8a8a;
      }

      .st10 {
        fill: #919191;
      }

      .st11 {
        fill: #5c5c5c;
      }

      .st12 {
        fill: #e5e5e5;
      }

      .st13 {
        fill: #d8d8d8;
      }

      .st14 {
        fill: #b4b4b4;
      }

      .st15 {
        fill: #bebebe;
      }

      .st16 {
        fill: #505050;
      }

      .st17 {
        fill: #666;
      }

      .st18 {
        fill: #565656;
      }

      .st19 {
        fill: #7e7e7e;
      }

      .st20 {
        fill: #848484;
      }

      .st21 {
        fill: #5a5a5a;
      }

      .st22 {
        fill: #989898;
      }

      .st23 {
        fill: #c2c2c2;
      }

      .st24 {
        fill: #6e6e6e;
      }

      .st25 {
        fill: #9f9f9f;
      }

      .st26 {
        fill: #d3d3d3;
      }

      .st27 {
        fill: #4c4c4c;
      }
    </style>
  </defs>
  <g id="Layer_1-2">
    <g id="_3JjKXJ">
      <path class="st0" d="M100.2,269.8c-23.5,1.8-45.9,7.8-67,18-9.3,4.5-17.8,10.3-26,16.6-1.1.8-2.1,1.6-3.2,2.3-1,.6-2.2,1-3.2,0-1.3-1.3-.6-3,0-4.2,3.4-6.1,6.6-12.3,10.6-18,24.6-34.9,55.9-61.9,94.9-79.5,2.9-1.3,3.2-3.1,3.2-5.8,0-34.7.3-69.3.2-104,0-5.9,1.8-10.4,6-14.6,23.6-23.8,46.9-47.8,70.4-71.7,1.8-1.8,3.5-3.6,5.5-5.1,2.8-2.2,5.6-1.2,6.3,2.2.3,1.3.1,2.7.1,4,0,57,0,114,0,171,0,2.2-.6,4.1,3,4.1,33-.6,65.9,2.6,98.9,2.6,32.2,0,62.8-6.1,91.2-21.7,10.2-5.6,19.9-12.1,28.8-19.7,1.3-1.1,2.6-3.4,4.5-1.8,2,1.7.8,4-.1,6-5.8,12.6-12.6,24.5-20.5,35.9-17.6,25.3-39,46.7-65.2,63.2-23,14.6-48,22.7-75.1,24.3-21.2,1.3-42.3-.4-63.3-2.3-4.2-.6-8.2.8-12.3,1-.6,0-1.1,0-1.7,0-21.9-1.4-43.9-2.4-65.8-2.3-6.8,1.1-13.4-2.3-20.2-.8h0Z"/>
      <path class="st0" d="M198.1,381c1.6,25.6,6.4,50.5,19.6,73,17.9,30.5,44.8,48.9,79,56.9,12.4,2.9,25,3.4,37.7,3.7,7.9.2,9.2,1.4,9.2,9.4,0,17,.2,34,0,51,0,6.5-2.1,8.6-8.6,9.3-24.2,2.5-48.5,3.7-72.7-.4-41.4-6.9-77.6-24-106.5-55-19.9-21.4-33-46.5-39.7-74.9-3.6-15.1-5.8-30.4-6-45.9-.6-1.4-.3-3-.3-4.4,0-34.3,0-68.6,0-102.9s.9-6.5,5.1-6.5c4.2,0,5.8,1.7,5.8,6.8,0,33.5,0,66.9,0,100.4,0,2.3-.2,4.7.5,6.9,1.2,13.9,2.7,27.7,6,41.3,5.3,22.1,14.5,42.3,28.1,60.5,27,35,63.4,53.7,106.2,61.4,21.5,3.9,43,3,64.6,1.7,4-.2,5.6-2,5.5-5.9-.1-5.2-.1-10.3,0-15.5,0-6.7-.1-13.3,0-20,.1-3.7-1.1-5.4-5-5.6-16.3-.9-32.5-3.2-48.1-8.2-18.9-6-35.6-15.7-49.5-29.9-9.2-10.5-18.2-21.2-24.6-33.8-1.1-2.2-1.7-4.7-2.9-6.9-.4-.8-.8-1.6-1.2-2.5-.5-1.1-1-2.1-1.4-3.2-1-2.6-2.3-5.1-3-7.9-4.5-14.1-7.6-28.5-8.8-43.4-.5-6.5-.6-12.9-.4-19.4.2-19.9,0-39.9,0-59.8,0-5.6,2.1-7.5,6.6-6.6,3.5.6,4.4,2.8,4.3,6.1-.1,15-.1,29.9,0,44.9,0,8.5-.5,16.9.3,25.4h0Z"/>
      <path class="st16" d="M198.1,381c-1.2-1.8-.7-3.9-.7-5.9-.1-21.2-.2-42.3-.2-63.5,0-2.6.2-4.8-3.4-5.5-4-.7-5.7-.1-5.7,4.5.3,18.6.2,37.3.2,56,0,1.8-.2,3.6-.3,5.5-2.6-1-2.6-3.4-2.5-5.4.3-30-1.2-59.9,1-89.9.1-1.7.3-3.3,1.6-4.6,0-.3,0-.5.3-.7,3.3.2,6.7-.6,10,.5-.7,11.6-.4,23.2-.4,34.8,0,24.7,0,49.4,0,74.1h0Z"/>
      <path class="st18" d="M120.1,410c-1.2-2-.7-4.2-.7-6.3,0-34.1-.1-68.2-.1-102.3,0-2.9.4-5.5-4.2-5.4-3.7.1-4.8,1.1-4.8,4.9.2,33.9.1,67.9,0,101.8,0,1.8-.2,3.6-.3,5.5-1.1-3.1-.7-6.3-.7-9.4.2-38.8-.5-77.5.4-116.3,0-.7,0-1.3,0-2,0-6.8-3.2-10.4-9.7-10.6,6.6-2.2,13.4-.1,20.1-.9,1.4,6.4,1.7,12.9,1.7,19.3.2,37.9,0,75.9,0,113.8,0,2.8.5,5.8-2,7.9h0Z"/>
      <path class="st0" d="M198.4,272c-3.3-.2-6.7-.4-10-.5,4,0,8-2.5,11.9.3-.6,0-1.2.1-1.9.2h0Z"/>
      <path class="st3" d="M120.1,410c0-25.3.2-50.5.1-75.8,0-19.6-.3-39.2-.5-58.9,0-2.1-.4-4.3.6-6.4,21.8-.7,43.5,1.1,65.2,2.1,1.1,0,1.7.8,2.6,1.2-.8,32.3-1.3,64.7-.6,97,0,1,.4,1.9.6,2.9-.2,20.2,2.7,40,8.7,59.3.3,1.1.6,2.2.8,3.4-2.7,1.3-3-1.9-4.8-2.5-.6,1,.1,1.9.2,2.9.5,5.7-2.1,8-7.7,7-.6-.1-1.3-.3-1.9-.4-2.2-.3-5.1-2.9-6.5-1.1-2.2,2.8-4.8,5.9-4.6,10,.5-3.8,2.5-6,6.1-7,3-.8,5.3-.1,7,2.4,1.7,2.5,1.4,5.2-.8,7.3-7.1,6.9-13.6,14.4-20.5,21.4-.8.8-1.7,1.6-2.9,1.9-1.4.3-2.8.4-3.7-.7-1.1-1.2-.3-2.5.3-3.7.9-1.6,2.2-2.9,3.4-4.3,1.5-1.8,3.2-3.4,3.9-5.8-2.1,4.8-6.8,6.7-10.4,9.7-3,2.5-5.3,5.5-7.9,8.2-3.1,3.4-2.6,6.1-.4,9.7,3.2,5.2,5.7,10.9,8.4,16.4.6,1.3,2.8,3.5-.7,4.5-17-21.2-26-45.9-30.9-72.2-1.8-9.5-2.9-19.1-3.2-28.7h0Z"/>
      <path class="st26" d="M187.1,22.6c1,4,.6,7.3.6,10.6,0,49.5,0,98.9,0,148.4,0,2.5.4,4.3-3.3,4.4-22,.4-43.1,5-63.5,13.3-1.3-1.2-.7-2.6-.7-3.8,0-33.1,0-66.3-.2-99.4,0-3.2.8-5.6,3.1-7.9,20-20.5,39.9-41,59.9-61.6,1.1-1.2,2.4-2.3,4.1-3.9h0Z"/>
      <path class="st17" d="M362.2,188.9c13.4-4.4,26-10.7,38.3-17.8-1.8,6.4-6.1,11-9.7,15.9-20.9,27.9-46,50.8-77.9,65.5-14.7,6.8-30.3,11.1-46.7,11.4-2.4-1-4.9-.2-7.4-.5-.9,0-2.2.4-2.6-.8-.4-1.4.8-2,1.8-2.7.6-.4,1.2-.7,1.8-.8,7.5-1.2,14-5.2,20.9-8,9.1-3.7,17.3-9,25.7-14,8.8-5.3,18-9.9,25.9-16.8,7.9-6.9,16.1-13.4,24-20.3,3.4-3,4.6-7.1,5.8-11.2h0Z"/>
      <path class="st4" d="M362.2,188.9c.6.4,2.3-.7,1.8,1.1-2.6,8.7-9.5,14-16,19.4-8.1,6.8-16.5,13.2-24.6,20-2.5,2.1-5.7,2.6-8.4,4.1-7,4.1-14,8.2-20.8,12.4-8.3,5.2-17.7,7.6-26.1,12.5-3.3,1.9-7.5,1-11.1,3.6,3.1,2.1,6.8-.5,9.4,1.8-19.5,1-38.9-.1-58.3-1.2-.6,0-1.2-.4-1.9-.6,3.6-2,7.6-3,11.4-4.4,17.1-6.1,34.8-10.1,51.6-16.9,14.5-5.8,28.2-13.5,41.2-22.2,8.8-5.9,16.8-12.5,23.8-20.4,2.4-2.7,5.8-3.1,9.1-3.7,0,0,.2-.2.2-.3,0-.1-.2-.2-.3-.4,6.4-1.7,12.7-3.3,19.1-5h0Z"/>
      <path class="st15" d="M161,198.7c1-.8,2.1-.7,3.3-.6,7.6.3,15-1.6,22.6-1.4,4.4.1,8.9-.8,13.3-.5,3.2,3.6-.6,4.2-2.4,4.9-4,1.6-8,3.6-12.1,4.7-7.2,1.9-13.4,5.7-20.3,8.2-12.2,4.3-24.6,8.4-36.9,12.4-6.5,2.1-12.7,5.1-18.8,7.9-11.9,5.5-24.4,9.6-36.1,15.8-.9.5-2,.7-2.6,1.4-5.5,6.1-13.1,8.4-20.5,10.8-6.5,2.1-10.4,6.2-12.3,12.6-3.4,1.6-6.3,4.4-11.3,4.1,9.5-12.9,20.4-23.8,32.1-33.9,3,.5,4.3-2,6.1-3.5,7.5-6.1,15.7-11.1,24-16.1,11.1-6.6,22.8-11.9,35.1-15.8,1.9-.6,3.9-.9,5.1-2.7.9-.7,1.9-1,3-.9,7.9-.9,15.4-4.1,23.2-5.5,1.9-.3,4.1-.1,5.6-1.8h0Z"/>
      <path class="st19" d="M343.1,193.9c1,0,2,.2,2.9.3-6.3.5-10.3,4.4-14.4,8.8-13.1,14-29.9,22.6-46.4,31.9-15.6,8.8-32.7,12.8-49.3,18.4-6.1,2.1-12.2,4.8-18.8,6.2-3.6.8-7.1,2.9-11.1,2.7-18.4-1-36.7-2-55-3,1-1.4,2.5-1.6,4-1.5,17.6,1.3,33.6-5.5,50.1-9.5,19.9-4.8,39.6-10.5,58.3-18.7,17.4-7.6,34.5-15.7,48.4-29.1,1-.9,2.1-1.6,3.3-2.2,5.1-2.4,10.7-1.3,16-2,4-.6,7.7-2.8,11.9-2.2h0Z"/>
      <path class="st25" d="M251.2,197c1,0,2,0,3,0,5.1,1.2,10.3-.3,15.3.8l7.6.2c-4.2,3.2-7.3,7.9-12.4,9.9-13.6,5.3-26.6,12.1-40.5,16.7-19.9,6.6-39.9,12.8-60.1,18.3-15.9,4.3-31.5,9.2-46.9,14.9-.7.4-1.4.6-2.1,1-7.3.4-14.6.8-21.9,1.2-.9-3.7,1.9-5,4.3-6.3,14.1-7.6,29-13.4,44.4-17.8,30.7-8.8,61.4-17.8,91-29.9,6.2-2.5,11.9-6.6,18.2-9.1h0Z"/>
      <path class="st2" d="M251.2,197c0,1.3-.6,2.2-1.8,2.8-24.1,12-49.6,20.5-75.3,28.3-25.5,7.7-51.7,13.5-75.4,26.6-2.4,1.3-4.6,2.6-5.5,5.4-3.8,1.6-8,1.3-12,1.9-3.4-.9-6.4,1.2-9.6,1.5-1.4.1-3.2,1.2-4.1-.4-1.1-1.8.6-3.1,1.8-4.2,5.7-5.3,12.7-8.6,19.7-11.6,13.9-5.9,27.5-12.7,41.9-17.5,12.9-4.3,25.8-9,39-12.4,7.4-1.9,14.6-4.7,21.6-7.6,12.1-5,24.4-9.4,36.9-13.6,1.7,0,3.3,0,5,0,4.7,1.2,9.6-.3,14.3.8,1.2,0,2.4.1,3.6.1h0Z"/>
      <path class="st8" d="M228.3,196c.2.8.7,1.6-.6,1.9-22.2,6.2-42.8,16.9-65.2,23-24.7,6.7-48.4,16.3-71.7,26.9-6.9,3.1-13.9,6.2-19.8,11.3-1.1,1-2.5,1.6-3,3.4,4.5,1.8,8.8-3.5,13.2-.6-14.7,3-29.1,7.1-43,12.9-1.2-4.5,3-10.8,8.3-12.8,8.1-3.1,16.2-5.5,23.4-11.3,5.8-4.6,13.4-7.8,20.9-10.1,9.6-3,18.3-7.9,27.4-11.8,11.9-5.1,24.6-8.1,36.6-12.8,4.5-1.7,9.3-2.7,13.6-4.8,9.5-4.7,19.5-8,29.5-11.3,1.5-.5,2.5-1.5,3.3-2.9,5.7-1.1,11.4-.2,17.1-.5,1.9-.1,3.9.5,5.8-.5,1.4,0,2.7,0,4,0h0Z"/>
      <path class="st22" d="M116.3,257.9c3.8-5.1,10.1-4.6,15.2-6.4,23.2-8.4,47.4-13.9,71-21.1,21.8-6.7,42.8-15.5,63.6-24.6,1.2-.5,2.5-1.4,3.1-2.4,1.7-3.4,4.6-4.6,8-5.4,1.7,0,3.4,0,5,0,2.3,1,4.7-.1,7,.7.7,3.3-1.9,4.8-3.9,6.3-7.4,5.7-15.4,10.3-24.1,14-33.8,14.1-68.8,23.9-104.2,32.7-7.4,1.9-14.8,4-21.9,6.7-6.3-.3-12.6.7-18.8-.5h0Z"/>
      <path class="st9" d="M289.2,199c-2.3-.3-4.8.7-7-.9,11,0,22,0,33,0-6.2,9.1-15.5,14.4-24.6,19.6-20.1,11.6-41.6,20.1-63.9,26.1-15.4,4.1-30.8,8.1-46.1,12.4-9.9,2.8-19.7,2-29.5,2.8-11.9,0-23.9-.1-35.8-.2.3-.3.7-.6,1.1-1,6.7,0,13.3,0,20,0,4.6-2.3,9.8-1.4,14.7-2.5,20.2-4.8,40.4-9.5,60.2-15.9,14.4-4.6,29.2-8.2,43.1-14,11.8-4.9,23.6-10,34-17.7,2.7-2,5.5-3.7,7.9-6.8-2.4-1-5.2.1-6.9-1.9h0Z"/>
      <path class="st23" d="M224.2,195.9c-5.4,2-11,.5-16.5.9-2.1.2-4.3,0-6.4,0-10-.3-19.9.8-29.7,1.8-2.4.3-5,.9-7.2-.7,19.9-3.5,39.9-2.8,59.9-2.1h0Z"/>
      <path class="st23" d="M129.3,206.9c2.3.5,1.2,1.2.1,2-3.8,2.7-8.5,2.4-12.7,4.1-9.4,3.9-18.4,8.3-27.5,12.9-.6-.4-.7-.9-.2-1.4,12.8-7.3,25.9-13.8,40.2-17.6h0Z"/>
      <path class="st15" d="M89.1,224.5c0,.5.1,1,.2,1.4-8.5,6.4-18.4,10.7-25.9,18.4-1.2,1.2-2.5,2.3-4.3.7,9.7-7.3,19.2-14.8,30-20.5h0Z"/>
      <path class="st23" d="M161,198.7c.5.2,1.6.8,1.1.9-9.4,2.5-18.8,4.9-28.2,7.2-.4.1-1.1-.6-1.6-.9,9.2-3.8,19-5.6,28.8-7.3h0Z"/>
      <path class="st22" d="M269.6,197.8c-5.1-.1-10.3,1-15.3-.8,5.1-.2,10.3-.3,15.3.8Z"/>
      <path class="st25" d="M247.6,196.8c-4.8,0-9.6,1-14.3-.8,4.8-.3,9.6-.2,14.3.8Z"/>
      <path class="st13" d="M154.2,510.9c1.8-1.8,0-3.1-.7-4.4-3.4-6.7-6.9-13.2-10.4-19.9-.9-1.8-1.1-2.7.7-4.8,3.8-4.4,6.9-10,12.1-12.6,4.8-2.4,6.5-7.9,12-10.6-.7,6.2-4.9,9-7.6,12.7-.9,1.3-3.5,2.8-1.6,4.3,1.6,1.2,3.6-.1,4.8-2.1,2.6-4.2,6.8-6.9,9.8-10.9,2.1-2.9,5.3-6.6,9.1-8.7,2.6-1.4,3.6-3.6,2.5-6.3-.8-1.9-2.6-3.6-4.7-2.8-2.4.9-6,.7-6,4.9,0,1.6.7,3.5-1.1,4.5-.7.4-1.2-.2-1.6-.8-1.2-1.9-2.2-4.4-.6-6,2.1-2.1,3.1-4.5,3.9-7.2.6-2,2-2.3,3.9-1.4,2.4,1.2,4.9,2,7.6,2.4,4.4.5,6.7-1.9,5.4-6.2-.5-1.6-2.6-3.7-.4-4.9,2.5-1.4,3.1,1.5,4.1,3.1.6.9,1.3,1.5,2.3,1.8.9,2.4,1.7,4.7,2.5,7.1-1.4,1.7-.3,2.3,1.2,2.9.8.5,1,1.3,1,2.1.1,2.7,1.2,5,3.2,6.9,6.6,11.9,14.7,22.7,23.9,32.6,3.5,6.4,9.4,10.6,14.1,16,19.9,22.7,44.6,37.7,74.4,43.7,3.4.7,6.9,1.3,10.3,2.1,2.2.5,4,1.5,5,3.7,0,5.7-.2,11.3.4,17,.5,4.6-1.6,5.8-5.4,6-12,.6-23.9,1.6-35.9,1.3-42.7-1-81.5-13.2-114.9-40.5-8.8-7.2-16.7-15.2-23.2-24.6h0Z"/>
      <path class="st12" d="M333.2,551.9c-5.5-3.7-12-3.5-18-4.9-20.1-4.6-38.2-13.2-54.3-26-11.4-9-20.7-20-30-31-.9-1.1-1.6-2.1-1.4-3.5,10.5,11,23,19.1,36.8,25.3,12.8,5.8,26.4,9.1,40.3,11,7.7,1,15.6,1.5,23.4,2,2.2.2,3.8.2,3.7,3.2-.3,8-.3,16-.4,24h0Z"/>
      <path class="st3" d="M205.5,453.8c-2.6-1.6-5.1-3.2-3.2-6.9,1.9,1.9,2.4,4.5,3.2,6.9Z"/>
      <path class="st3" d="M201.3,444.8c-2.3,2-3.3-.2-3.6-1.6-.4-2,1.1-1.8,2.4-1.2.7.8,1.2,1.7,1.2,2.9Z"/>
      <path class="st6" d="M254.2,68.6c0-37.3,31.2-67.6,69.5-67.5,38.5,0,68.9,30.8,68.7,69.3-.1,36.8-31.2,67.7-68,67.6-40,0-70.2-30-70.2-69.4h0Z"/>
      <path class="st1" d="M289.2,199h9.3c-1.5,5.5-6,7.6-9.8,10.2-18.5,12.8-39.1,20.5-60.5,26.6-15.9,4.6-31.4,10.2-47.7,13.6-9.5,2-18.9,4.9-28.4,7.2-5.3,1.2-10.5,1.4-15.8,1.2,3.7-4.2,9.1-4.6,14-5.8,26.3-6.8,52.8-13.4,78.5-22.2,12.9-4.4,25.5-9.4,38-14.8,8.5-3.7,16.3-8.8,22.5-16.1h0Z"/>
      <path class="st3" d="M153.2,484.2c-.2,1-.4,2.1-1.7,2-1.3-.1-2.1-.9-2.1-2.3,0-1.1.6-1.9,1.8-1.9,1.5,0,2,.8,2,2.2h0Z"/>
      <path class="st24" d="M373.1,99.8c-.9,3.5-3.8,5.5-6,8-4.7.4-8.5-1.1-10.7-5.6-1.3-2.6-3.7-3.7-6.3-4.5-10-3.1-20.3-3.9-30.6-3-10.4,1-20.9,1.1-31,4.2-3.8,1.2-7.3,1.9-9.2,5.8-.4.7-1,1.3-2,1.1-4.4-4.6-7.2-10-9-16-.6-4.3,1-6.7,5.5-7.9,5-1.3,5.9-3.8,3.8-9.3-2.4-6.3-4.2-12.5-3.9-19.4.6-12.3,9.3-22.6,21.8-26.2,3.9-1.1,7.1,1.1,9.9,3.5,10.5,9.4,14.2,27.6,8.4,40.5-3.9,8.7-3.2,10.2,6.4,10.1,9.8,0,19.2,1.9,28.7,3.5,3.8.7,7.4,2.1,10.4,4.5,4.5,3.6,9,7.2,13.7,10.4h0Z"/>
      <path class="st7" d="M373.1,99.8c-4.5-.5-7.8-3-10.8-6.3-5.6-6.2-13.5-7-21.1-8.7-9.1-2-18.5-1.4-27.6-2.7-4.5-.7-4.6-2.6-3.5-6.1,1.3-4.1,3.7-7.6,4.6-12,2.4-12.4-2.2-22.5-9.7-31.6-2.6-3.1-6-5.1-11-3.3-16.9,6.2-22.9,23.6-16.1,40.1.8,1.8,1.6,3.7,2.1,5.6,1.2,4.4-.1,8-4.8,8.6-4.4.6-6.1,2.8-6.9,6.6-6.8-18.4-5.2-35.8,5.8-52.2,5-3,8.8-7.4,13.9-10.2,2.2-1.2,4.4-2.3,6.8-2.8,9-3.4,14.4,1.5,19.1,8.2,7.1,10,10.4,21,8.9,33.3-.8,6.3.5,7.8,7,8,9,.4,17.3,3.2,25.6,6.1,4.6,1.6,9,3.6,12.2,7.5,2.4,2.9,6.8,2.9,8.8,6.2,0,2.5-2.8,3.6-3.2,5.9h0Z"/>
      <path class="st11" d="M277.3,105.9c1.7-5.5,5.5-7.1,11.1-8.5,13.9-3.4,27.8-4.2,41.9-4.3,6.1,0,12.2.6,18.1,2.4,4.4,1.4,9.1,2.2,10.3,8,.3,1.7,2.1,2.6,4,2.4,1.9-.2,3.2.5,4.3,1.9-3.1,5-8.1,8-12.8,11.1-6.4,1.3-9.9-.3-11.5-6-1.1-4-3.8-6-7.5-6.2-12.6-.7-25-.3-35.2,8.8-2.2,1.9-4.6,3.9-7.9,3.5-6.1-3.1-10.8-7.7-14.8-13.1h0Z"/>
      <path class="st5" d="M380.3,56.7c1.1,1.5.9,3.3,1,5,.7,3.7.2,7.5.4,11.2-2.4,3.7-5.8,3.3-8.5,1.1-9.3-7.6-20.3-11.4-31.7-14.2-5.9-1.4-9.3-4.9-10.7-10.6-2-8.2-6.6-14.9-12.1-21-4.9-5.5-11.2-6.6-18.2-5.5-3.1.5-6.7,1.5-8.3-2.8,3.9-2.9,8.3-4.8,13.1-5.9,13.6-1.2,22.3,7,30.2,16.1,2.9,3.4,6.1,5.9,10.3,7.5,6.1,2.3,12.2,4.5,18.1,7.1,6.3,2.7,11.9,6.6,16.4,11.9Z"/>
      <path class="st14" d="M380.3,56.7c-.5.7-1.1.8-1.6.1-8.1-9.5-19.8-12.4-30.6-16.7-5.6-2.2-10.5-4.8-14.4-9.9-7.1-9.1-16.6-14.9-28.4-16.2,30.2-8.6,58.2,3.5,71.4,30.8,1.8,3.8,3.2,7.7,3.6,11.8h0Z"/>
      <path class="st10" d="M292.3,20c1.9,1.6,4.2,2.5,6.5,1.8,12-3.5,19.8,2.2,26.1,11.4,3.3,4.8,6.1,9.9,7.5,15.7,1.2,4.8,3.5,8,9,9.4,10.1,2.5,20.4,5.2,28.9,11.7,3.4,2.6,6.3,5.3,10.9,3.8.7.3.8.8.4,1.5-1.4,2.4-.6,5.1-1.2,7.6-3.6,4.8-7.2,5.8-10.7,2.3-8.3-8.3-19-11.1-29.9-13.7-.6-.2-1.3-.2-2-.3-12.4-2.5-11.5-3.2-12.4-12.5-.9-8.8-3.5-17.3-9-24.5-7-8.9-12.1-12.2-21.9-8.2-6.2,1.9-10.5,6.6-15.7,10.1-1.2.8-2.3,3-4.5,1.7,4.2-7.8,10.4-13.6,18.2-17.7h0Z"/>
      <path class="st27" d="M292.1,119c4.1-2.2,7.4-5.6,11.3-8,10-6.2,21.4-6.7,32.7-5.8,4.3.4,8.4,2.6,8.2,8.3,0,1.9.9,3.1,2.8,3.5,2.4.6,4.6,1.9,7.2,1.9-16.6,11.7-46.2,11.8-62.1,0h0Z"/>
      <path class="st20" d="M294.2,25.9c7.3-4.6,16.3-2.2,22.5,6.2,6.6,8.9,9.7,19.2,10.4,30.1.2,3.9,1.4,5.6,5.2,6.3,6.5,1.3,13,2.8,19.3,4.7,7.2,2.1,13.8,5.3,18.9,11.2,3.5,4,6.5-.2,9.7-1.6-.4,4-1.7,7.7-3.9,11.1-5-.9-8.4-4.2-12.1-7.3-7-5.8-16-7-24.3-9.7-4.7-1.5-9.6-.5-14.3-1.8-3.6-1-5.3-2.2-4.6-6.5,2.5-15-1.7-28.1-11.9-39.4-3.4-3.8-7-5.3-11.9-3.5-.9.3-2,.1-3,.2h0Z"/>
      <path class="st20" d="M381.4,75.3c-.1-.5-.2-1-.4-1.5.1-4,.2-8,.4-12,1.1,4.5,1.3,9,0,13.5h0Z"/>
      <path class="st21" d="M306.3,52.7c-.2,5.5,0,9.7-4.5,12.6-7.5,4.7-12.7,2-17.3-3.7-7-8.5-6.8-19.5,2.4-26.7,4.7-3.7,9.1-3.6,12.5,1,3.9,5.3,8.1,10.7,7,16.9h0Z"/>
    </g>
  </g>
</svg>