<svg role="img" xmlns="http://www.w3.org/2000/svg" fill="currentColor" viewBox="0 0 192 192">
  <title>Google Chat</title>
  <rect width="160" height="96" x="16" y="28" rx="48"/><path d="M133 48c28.167 0 51 22.834 51 51 0 28.167-22.833 51-51 51H96.624l-34.857 23.064c-3.86 2.544-5.789 3.816-7.372 3.92a6 6 0 0 1-5.612-3.022C48 172.583 48 170.271 48 165.649V148.81C25.121 143.78 8 123.39 8 99c0-28.166 22.834-51 51-51h74z"/><g><rect width="160" height="96" x="16" y="28" rx="48"/><rect width="160" height="96" x="16" y="28" rx="48"/><path stroke-linecap="round" stroke-width="12" d="M62 94s8.84 18 34 18 34-17.182 34-17.182"/></g>
</svg>
