<svg version="1.2" xmlns="http://www.w3.org/2000/svg" viewBox="0 0 1539 472" width="1539" height="472"><style>.a{fill:#0c0d0c}.b{fill:#17b582}</style><path fill-rule="evenodd" class="a" d="m116 289.3l67.1 182.3h-48.5l-9.1-29.2h-67.2l-9 29.2h-48.6l67.7-182.3zm-24.5 43.4c-2.3 9.3-4.9 18.8-7.5 28.1-3.9 13.7-10.9 35.2-15 48.8h46.2zm203.9-43.3h48.6l-63.3 182.2h-46.5l-62.5-182.2h48.5l37.7 129.6z"/><path fill-rule="evenodd" class="a" d="m447.6 289.3l67.2 182.3h-48.6l-9.1-29.2h-67.1l-9.1 29.2h-48.5l67.6-182.3zm-24.5 43.4c-2.3 9.3-4.9 18.8-7.5 28.1-3.9 13.7-10.8 35.2-15 48.8h46.3zm117.6-43.3h44.7l39.6 67.1c14.4 25.5 18.8 33.8 27.3 49.8l-2-116.9h43.6v182.2h-44.7l-34.1-57.5c-16.5-27.1-19.6-32.8-32-57.1l1.3 114.6h-43.7zm197.3 0h147.2v35.6l-99.4 110.8h98.9v35.9h-155.2v-34.1l101-112.6h-92.5zm283.5 0l67.2 182.3h-48.6l-9-29.2h-67.2l-9 29.2h-48.6l67.7-182.3zm-24.5 43.4c-2.3 9.3-4.9 18.9-7.5 28.1-3.9 13.7-10.9 35.2-15 48.8h46.2z"/><path class="b" d="m1213.3 288.3v183.3h-62.9v-183.3zm108.3-52.3v235.6h-62.9v-235.6zm108.3-65.4v301h-62.9v-301zm108.4-170.1v471.1h-62.8v-471.1z"/></svg>
