<svg width="32" height="32" viewBox="0 0 32 32" fill="currentColor" xmlns="http://www.w3.org/2000/svg">
<title>Rewarble</title>
<path d="M16.822 21.0838H19.9101C19.8418 20.9614 19.8034 20.8728 19.7485 20.7967C19.3202 20.2037 18.8763 19.6209 18.4629 19.0178C18.2896 18.7652 18.0998 18.6687 17.7891 18.6703C14.4171 18.682 11.0444 18.6742 7.67235 18.6844C7.38056 18.6852 7.19545 18.6083 7.0276 18.3605C6.4401 17.4961 5.82673 16.6497 5.22511 15.7948C5.15923 15.7014 5.10275 15.6018 5 15.4395C5.21649 15.4269 5.37571 15.4089 5.53494 15.4089C10.2537 15.4081 14.9725 15.4089 19.6912 15.4089C20.3313 15.4089 20.9313 15.2834 21.4686 14.9061C22.6028 14.1092 22.5495 12.5498 21.3588 11.8416C20.8019 11.5098 20.1885 11.3937 19.5548 11.3976C16.6793 11.4156 13.8045 11.4376 10.9298 11.4784C10.5651 11.4839 10.3345 11.3929 10.1227 11.0831C9.43012 10.0697 8.70301 9.07901 7.9908 8.07894C7.92413 7.9856 7.86609 7.8852 7.7602 7.71891C7.94609 7.69538 8.0763 7.66479 8.2065 7.66479C11.8405 7.66008 15.4745 7.63185 19.1077 7.66871C20.4701 7.68205 21.8616 7.67263 23.1378 8.28915C25.2289 9.29863 26.4549 10.938 26.5482 13.284C26.6345 15.4575 25.2407 17.5408 23.2413 18.4193C23.1236 18.4711 23.0083 18.5275 22.8625 18.595C24.2406 20.4955 25.5991 22.3702 27 24.3028C26.8063 24.3201 26.6949 24.3389 26.5843 24.3397C24.1927 24.3452 21.8004 24.3523 19.4089 24.3444C19.2481 24.3444 19.023 24.2793 18.9382 24.1632C18.2449 23.2141 17.5774 22.2462 16.9036 21.2822C16.8761 21.243 16.8667 21.1905 16.8252 21.083L16.822 21.0838Z"/>
</svg>
