<svg width="24" height="24" viewBox="0 0 24 24" fill="none" xmlns="http://www.w3.org/2000/svg">
<g clip-path="url(#clip0_21491_890)">
<path d="M21.3399 4H2.66476C2.48953 4 2.32147 4.06618 2.19755 4.184C2.07363 4.30181 2.004 4.4616 2.00396 4.62823L2.00092 19.3717C2.0009 19.4543 2.01798 19.536 2.05118 19.6122C2.08438 19.6885 2.13305 19.7578 2.19441 19.8161C2.25577 19.8745 2.32863 19.9208 2.40881 19.9524C2.48899 19.984 2.57493 20.0002 2.66171 20.0002H21.3402C21.5154 20.0002 21.6835 19.934 21.8074 19.8162C21.9314 19.6984 22.001 19.5385 22.001 19.3719V4.62835C22.001 4.54584 21.9839 4.46413 21.9507 4.38789C21.9175 4.31166 21.8688 4.24239 21.8074 4.18404C21.7461 4.12569 21.6732 4.07941 21.593 4.04783C21.5129 4.01625 21.4269 4 21.3402 4H21.3399Z" fill="#EF323D"/>
<path d="M7.40296 17.167H5.94582C5.93703 17.167 5.92833 17.1686 5.92021 17.1718C5.9121 17.175 5.90472 17.1797 5.8985 17.1856C5.89229 17.1915 5.88736 17.1986 5.884 17.2063C5.88064 17.214 5.87891 17.2223 5.87891 17.2306V17.5483C5.87891 17.5567 5.88064 17.5649 5.884 17.5727C5.88736 17.5804 5.89229 17.5874 5.89851 17.5933C5.90472 17.5992 5.9121 17.6039 5.92021 17.6071C5.92833 17.6103 5.93703 17.6119 5.94582 17.6119H6.34569C6.35448 17.6119 6.36318 17.6136 6.3713 17.6168C6.37942 17.62 6.3868 17.6247 6.39301 17.6306C6.39922 17.6365 6.40415 17.6435 6.40752 17.6512C6.41088 17.6589 6.41261 17.6672 6.41261 17.6756V18.8062C6.41261 18.8231 6.41966 18.8393 6.43221 18.8512C6.44476 18.8632 6.46178 18.8699 6.47953 18.8699H6.86929C6.87808 18.8699 6.88678 18.8682 6.8949 18.865C6.90302 18.8618 6.91039 18.8571 6.91661 18.8512C6.92282 18.8453 6.92775 18.8383 6.93111 18.8306C6.93448 18.8229 6.93621 18.8146 6.93621 18.8062V17.6756C6.93621 17.6587 6.94326 17.6425 6.95581 17.6306C6.96836 17.6186 6.98538 17.6119 7.00312 17.6119H7.40299C7.41178 17.6119 7.42048 17.6103 7.4286 17.6071C7.43672 17.6039 7.4441 17.5992 7.45031 17.5933C7.45652 17.5874 7.46145 17.5804 7.46482 17.5727C7.46818 17.5649 7.46991 17.5567 7.46991 17.5483V17.2306C7.46991 17.2223 7.46818 17.214 7.46482 17.2063C7.46146 17.1986 7.45653 17.1915 7.45031 17.1856C7.4441 17.1797 7.43672 17.175 7.4286 17.1718C7.42048 17.1686 7.41178 17.167 7.40299 17.167H7.40296Z" fill="white"/>
<path d="M12.2224 17.167H11.6646C11.6558 17.167 11.6471 17.1686 11.639 17.1718C11.6308 17.175 11.6235 17.1797 11.6173 17.1856C11.611 17.1915 11.6061 17.1986 11.6027 17.2063C11.5994 17.214 11.5977 17.2223 11.5977 17.2306V18.8062C11.5977 18.8231 11.6047 18.8393 11.6173 18.8512C11.6298 18.8632 11.6468 18.8699 11.6646 18.8699H12.2199C12.8522 18.8699 13.2468 18.5428 13.2468 18.0136C13.2468 17.4941 12.8674 17.167 12.2224 17.167L12.2224 17.167ZM12.1964 18.4345H12.1719C12.154 18.4347 12.1368 18.4281 12.124 18.4161C12.1113 18.4042 12.104 18.3879 12.1039 18.3709V17.666C12.104 17.649 12.1113 17.6327 12.124 17.6208C12.1368 17.6088 12.154 17.6022 12.1719 17.6024H12.2016C12.5409 17.6024 12.7131 17.7274 12.7131 18.0136C12.7131 18.3095 12.5409 18.4346 12.1965 18.4346L12.1964 18.4345Z" fill="white"/>
<path d="M15.0196 17.167H14.6178C14.5809 17.167 14.5509 17.1955 14.5509 17.2306V18.8062C14.5509 18.8414 14.5809 18.8699 14.6178 18.8699H15.0196C15.0565 18.8699 15.0865 18.8414 15.0865 18.8062V17.2306C15.0865 17.1955 15.0565 17.167 15.0196 17.167Z" fill="white"/>
<path d="M10.2257 17.167H9.84358C9.83479 17.167 9.82609 17.1686 9.81797 17.1718C9.80985 17.175 9.80247 17.1797 9.79626 17.1856C9.79005 17.1915 9.78512 17.1986 9.78176 17.2063C9.77839 17.214 9.77666 17.2223 9.77666 17.2306V18.0761C9.77666 18.36 9.69572 18.4586 9.49592 18.4586C9.29609 18.4586 9.21515 18.36 9.21515 18.0761V17.2306C9.21515 17.2223 9.21342 17.214 9.21006 17.2063C9.20669 17.1986 9.20177 17.1915 9.19555 17.1856C9.18934 17.1797 9.18196 17.175 9.17384 17.1718C9.16572 17.1686 9.15702 17.167 9.14823 17.167H8.76607C8.75729 17.167 8.74858 17.1686 8.74047 17.1718C8.73235 17.175 8.72497 17.1797 8.71876 17.1856C8.71254 17.1915 8.70761 17.1986 8.70425 17.2063C8.70089 17.214 8.69916 17.2223 8.69916 17.2306V18.1243C8.69916 18.6462 8.94451 18.9156 9.49593 18.9156C10.0322 18.9156 10.2927 18.6318 10.2927 18.1219V17.2307C10.2927 17.2223 10.291 17.214 10.2876 17.2063C10.2842 17.1986 10.2793 17.1916 10.2731 17.1857C10.2669 17.1798 10.2595 17.1751 10.2514 17.1719C10.2433 17.1687 10.2346 17.167 10.2258 17.167L10.2257 17.167Z" fill="white"/>
<path d="M4.23361 17.8402C4.17828 17.8177 4.02617 17.7577 4.00532 17.7512C3.85741 17.7055 3.85041 17.6387 3.875 17.5743C3.89958 17.5099 3.99917 17.4813 4.09434 17.5181C4.14543 17.5379 4.27219 17.6472 4.28598 17.66C4.29516 17.6702 4.30735 17.6775 4.32097 17.681H4.32097C4.32929 17.6827 4.33788 17.6826 4.34618 17.6809C4.35448 17.6792 4.3623 17.6758 4.36911 17.6709L4.64777 17.4732C4.65429 17.4685 4.65975 17.4627 4.66383 17.456C4.6679 17.4493 4.6705 17.4418 4.67147 17.4342C4.67245 17.4265 4.67177 17.4187 4.66948 17.4112C4.66719 17.4038 4.66334 17.3969 4.65816 17.3909C4.50647 17.2166 4.28664 17.1211 4.02621 17.1211C3.64173 17.1211 3.35592 17.3424 3.35592 17.6286C3.35592 17.8786 3.47344 18.0264 3.7815 18.1537C3.86116 18.1804 3.96373 18.2202 4.00476 18.2317C4.18425 18.2819 4.19113 18.3671 4.16156 18.4446C4.13198 18.522 4.01264 18.5553 3.89765 18.5122C3.8174 18.4821 3.69173 18.3667 3.68297 18.3551C3.67452 18.3456 3.66304 18.3389 3.65027 18.3362L3.64937 18.336C3.64137 18.3344 3.63311 18.3344 3.62509 18.3359C3.61708 18.3375 3.60948 18.3406 3.60278 18.345L3.32237 18.5311C3.31571 18.5355 3.31006 18.5412 3.30576 18.5478C3.30147 18.5543 3.29862 18.5617 3.29739 18.5693C3.29615 18.577 3.29656 18.5848 3.29859 18.5923C3.30062 18.5998 3.30423 18.6068 3.30919 18.6129C3.47136 18.8123 3.70896 18.9178 3.98572 18.9178C4.39801 18.9178 4.69143 18.6749 4.69143 18.3454C4.69142 18.1289 4.56747 17.975 4.2336 17.8403L4.23361 17.8402Z" fill="white"/>
<path d="M17.3056 17.1211C17.119 17.1211 16.9366 17.1737 16.7814 17.2723C16.6263 17.3709 16.5053 17.511 16.4339 17.6749C16.3625 17.8388 16.3438 18.0192 16.3802 18.1932C16.4167 18.3672 16.5065 18.5271 16.6385 18.6526C16.7704 18.778 16.9385 18.8635 17.1215 18.8981C17.3045 18.9327 17.4942 18.9149 17.6666 18.847C17.839 18.7791 17.9863 18.6641 18.09 18.5166C18.1937 18.3691 18.249 18.1956 18.249 18.0182C18.249 17.7803 18.1496 17.5521 17.9727 17.3839C17.7957 17.2156 17.5558 17.1211 17.3056 17.1211V17.1211ZM17.3056 18.4186C17.2223 18.4186 17.1409 18.3951 17.0717 18.3511C17.0024 18.3071 16.9485 18.2446 16.9166 18.1714C16.8847 18.0983 16.8764 18.0178 16.8926 17.9401C16.9089 17.8625 16.949 17.7911 17.0079 17.7352C17.0667 17.6792 17.1418 17.641 17.2234 17.6256C17.3051 17.6101 17.3898 17.6181 17.4667 17.6484C17.5436 17.6787 17.6094 17.73 17.6556 17.7958C17.7019 17.8617 17.7266 17.9391 17.7266 18.0182C17.7265 18.1244 17.6821 18.2261 17.6031 18.3012C17.5242 18.3762 17.4172 18.4185 17.3056 18.4186V18.4186Z" fill="white"/>
<path d="M20.2925 17.8402C20.2372 17.8177 20.0851 17.7577 20.0642 17.7512C19.9163 17.7055 19.9093 17.6387 19.9339 17.5743C19.9585 17.5099 20.0581 17.4813 20.1532 17.5181C20.2043 17.5379 20.3311 17.6472 20.3449 17.66C20.3541 17.6702 20.3662 17.6775 20.3799 17.681H20.3799C20.3882 17.6827 20.3968 17.6826 20.4051 17.6809C20.4134 17.6792 20.4212 17.6758 20.428 17.6709L20.7067 17.4732C20.7132 17.4685 20.7187 17.4627 20.7227 17.456C20.7268 17.4493 20.7294 17.4418 20.7304 17.4342C20.7313 17.4265 20.7307 17.4187 20.7284 17.4112C20.7261 17.4038 20.7222 17.3969 20.7171 17.3909C20.5654 17.2166 20.3455 17.1211 20.0851 17.1211C19.7006 17.1211 19.4148 17.3424 19.4148 17.6286C19.4148 17.8786 19.5323 18.0264 19.8404 18.1537C19.9201 18.1804 20.0226 18.2202 20.0637 18.2317C20.2431 18.2819 20.25 18.3671 20.2204 18.4446C20.1909 18.522 20.0715 18.5553 19.9566 18.5122C19.8763 18.4821 19.7506 18.3667 19.7419 18.3551C19.7334 18.3456 19.7219 18.3389 19.7092 18.3362L19.7083 18.336C19.7003 18.3344 19.692 18.3344 19.684 18.3359C19.676 18.3375 19.6684 18.3406 19.6617 18.345L19.3813 18.5311C19.3746 18.5355 19.369 18.5412 19.3647 18.5478C19.3604 18.5543 19.3575 18.5617 19.3563 18.5693C19.3551 18.577 19.3555 18.5848 19.3575 18.5923C19.3595 18.5998 19.3631 18.6068 19.3681 18.6129C19.5303 18.8123 19.7679 18.9178 20.0446 18.9178C20.4569 18.9178 20.7503 18.6749 20.7503 18.3454C20.7503 18.1289 20.6264 17.975 20.2925 17.8403L20.2925 17.8402Z" fill="white"/>
<path d="M12.3764 5.19287C11.8406 5.19287 11.3168 5.34397 10.8712 5.62705C10.4257 5.91014 10.0784 6.3125 9.87335 6.78326C9.66829 7.25401 9.61463 7.77202 9.71917 8.27177C9.82371 8.77152 10.0818 9.23057 10.4607 9.59087C10.8396 9.95118 11.3223 10.1965 11.8479 10.2959C12.3734 10.3954 12.9182 10.3443 13.4132 10.1493C13.9083 9.95435 14.3314 9.62414 14.6292 9.20047C14.9269 8.7768 15.0858 8.2787 15.0858 7.76916C15.0858 7.08589 14.8003 6.4306 14.2922 5.94745C13.7841 5.4643 13.095 5.19287 12.3764 5.19287V5.19287ZM12.3764 9.02603C12.115 9.02603 11.8595 8.95232 11.6422 8.81423C11.4248 8.67614 11.2554 8.47986 11.1554 8.25022C11.0554 8.02058 11.0292 7.76789 11.0802 7.52411C11.1312 7.28032 11.2571 7.0564 11.4419 6.88064C11.6267 6.70488 11.8622 6.58519 12.1186 6.53669C12.375 6.4882 12.6407 6.51309 12.8822 6.60821C13.1237 6.70333 13.3301 6.86441 13.4753 7.07108C13.6206 7.27775 13.6981 7.52073 13.6981 7.76929C13.6977 8.10248 13.5583 8.42192 13.3105 8.65752C13.0628 8.89313 12.7268 9.02566 12.3764 9.02603V9.02603Z" fill="white"/>
<path d="M20.5469 5.25549H16.8463C16.8112 5.25549 16.7776 5.26873 16.7528 5.29229C16.728 5.31586 16.7141 5.34783 16.7141 5.38116V6.38655C16.7141 6.41988 16.728 6.45184 16.7528 6.47541C16.7776 6.49898 16.8112 6.51222 16.8463 6.51222H19.3573V8.71148C19.3573 8.7948 19.3225 8.87471 19.2606 8.93363C19.1986 8.99255 19.1146 9.02566 19.0269 9.02566L19.0269 9.02568H18.0357C17.7058 9.02529 17.388 8.90776 17.1445 8.69612C16.901 8.48449 16.7494 8.194 16.7194 7.8816C16.7163 7.85069 16.7011 7.822 16.6769 7.80116C16.6527 7.78032 16.6211 7.76884 16.5885 7.76897H15.5285C15.5106 7.76881 15.4928 7.77214 15.4763 7.77876C15.4598 7.78538 15.4448 7.79515 15.4324 7.80746C15.42 7.81977 15.4104 7.83436 15.4041 7.85034C15.3979 7.86632 15.3951 7.88335 15.396 7.90038C15.4315 8.54336 15.725 9.1489 16.2162 9.59211C16.7073 10.0353 17.3586 10.2824 18.0357 10.2824H19.2252C19.2426 10.2824 19.2598 10.2792 19.2758 10.2728C19.2918 10.2665 19.3064 10.2573 19.3187 10.2456C19.3309 10.2339 19.3407 10.2201 19.3473 10.2048C19.354 10.1896 19.3574 10.1732 19.3574 10.1567V9.65402C19.3574 9.57151 19.3745 9.48979 19.4077 9.41356C19.4409 9.33732 19.4896 9.26805 19.5509 9.2097C19.6123 9.15135 19.6852 9.10507 19.7653 9.07349C19.8455 9.04192 19.9314 9.02567 20.0182 9.02567L20.5468 9.02568C20.5642 9.02568 20.5814 9.02243 20.5974 9.01611C20.6135 9.0098 20.628 9.00054 20.6403 8.98887C20.6526 8.9772 20.6623 8.96335 20.669 8.9481C20.6756 8.93285 20.679 8.91651 20.679 8.90001V5.38104C20.679 5.34771 20.6651 5.31575 20.6403 5.29218C20.6155 5.26861 20.5819 5.25537 20.5468 5.25537L20.5469 5.25549Z" fill="white"/>
<path d="M8.63543 6.5126C8.54854 6.5126 8.46251 6.4963 8.38225 6.46465C8.30199 6.43299 8.22909 6.38659 8.16771 6.32811C8.10633 6.26963 8.05768 6.20021 8.02455 6.12383C7.99142 6.04745 7.97446 5.96561 7.97463 5.88299L7.97568 5.38153C7.97568 5.3482 7.96175 5.31624 7.93697 5.29267C7.91218 5.2691 7.87857 5.25586 7.84351 5.25586H3.48201C3.46466 5.25586 3.44747 5.25911 3.43144 5.26543C3.4154 5.27174 3.40083 5.281 3.38856 5.29267C3.37629 5.30434 3.36655 5.31819 3.35991 5.33344C3.35327 5.34869 3.34985 5.36503 3.34985 5.38153V10.157C3.34985 10.1903 3.36378 10.2223 3.38856 10.2458C3.41335 10.2694 3.44696 10.2826 3.48201 10.2826H4.53932C4.55667 10.2826 4.57386 10.2794 4.58989 10.2731C4.60593 10.2667 4.6205 10.2575 4.63277 10.2458C4.64504 10.2342 4.65478 10.2203 4.66142 10.205C4.66806 10.1898 4.67148 10.1735 4.67148 10.157V6.82651C4.67148 6.74318 4.70629 6.66327 4.76825 6.60435C4.83021 6.54543 4.91425 6.51233 5.00188 6.51233H5.33229C5.37568 6.51233 5.41864 6.52045 5.45873 6.53624C5.49882 6.55203 5.53524 6.57517 5.56592 6.60435C5.5966 6.63352 5.62094 6.66816 5.63755 6.70628C5.65415 6.74439 5.6627 6.78525 5.6627 6.82651V8.89707C5.6627 8.91358 5.66611 8.92992 5.67276 8.94517C5.6794 8.96041 5.68913 8.97427 5.7014 8.98594C5.71367 8.99761 5.72824 9.00686 5.74428 9.01318C5.76031 9.0195 5.7775 9.02275 5.79486 9.02275H6.85216C6.88721 9.02275 6.92082 9.00951 6.94561 8.98594C6.9704 8.96237 6.98432 8.9304 6.98432 8.89707V6.82651C6.98432 6.74318 7.01913 6.66327 7.08109 6.60435C7.14305 6.54543 7.22709 6.51233 7.31472 6.51233H7.64365C7.73125 6.51233 7.81527 6.54541 7.87723 6.6043C7.93919 6.66319 7.97401 6.74307 7.97405 6.82638L7.97553 10.1571C7.97553 10.1905 7.98945 10.2224 8.01423 10.246C8.03902 10.2696 8.07264 10.2828 8.10769 10.2828H9.16499C9.18234 10.2828 9.19953 10.2796 9.21556 10.2732C9.2316 10.2669 9.24617 10.2577 9.25844 10.246C9.27071 10.2343 9.28045 10.2205 9.28709 10.2052C9.29373 10.19 9.29715 10.1736 9.29715 10.1571V6.63817C9.29715 6.62167 9.29373 6.60533 9.28709 6.59008C9.28045 6.57483 9.27071 6.56098 9.25844 6.54931C9.24617 6.53764 9.2316 6.52838 9.21556 6.52207C9.19953 6.51575 9.18234 6.5125 9.16499 6.5125L8.63543 6.5126Z" fill="white"/>
<path d="M9.58045 10.9116H13.2811C13.3162 10.9116 13.3498 10.9249 13.3746 10.9484C13.3994 10.972 13.4133 11.004 13.4133 11.0373V11.5393C13.4133 11.7058 13.4828 11.8655 13.6065 11.9833C13.7303 12.1012 13.8981 12.1675 14.0732 12.1677L14.6027 12.1683C14.6378 12.1683 14.6714 12.1816 14.6962 12.2051C14.721 12.2287 14.7349 12.2607 14.7349 12.294V15.813C14.7349 15.8463 14.721 15.8783 14.6962 15.9018C14.6714 15.9254 14.6378 15.9386 14.6027 15.9386H13.5454C13.5104 15.9386 13.4768 15.9254 13.452 15.9018C13.4272 15.8783 13.4133 15.8463 13.4133 15.813V12.4825C13.4133 12.3992 13.3785 12.3194 13.3166 12.2604C13.2547 12.2015 13.1707 12.1684 13.0831 12.1684H11.1003C11.0127 12.1684 10.9287 12.2015 10.8668 12.2604C10.8048 12.3194 10.7701 12.3992 10.77 12.4825V15.813C10.77 15.8295 10.7666 15.8458 10.76 15.8611C10.7533 15.8763 10.7436 15.8902 10.7313 15.9018C10.7191 15.9135 10.7045 15.9228 10.6885 15.9291C10.6724 15.9354 10.6552 15.9386 10.6379 15.9386H9.58058C9.54553 15.9386 9.51192 15.9254 9.48713 15.9018C9.46235 15.8783 9.44843 15.8463 9.44843 15.813V11.0376C9.44842 11.021 9.45184 11.0047 9.45848 10.9895C9.46513 10.9742 9.47486 10.9604 9.48713 10.9487C9.4994 10.937 9.51397 10.9278 9.53001 10.9214C9.54604 10.9151 9.56323 10.9119 9.58058 10.9119L9.58045 10.9116Z" fill="white"/>
<path d="M8.50424 12.1684L7.973 12.1664C7.79819 12.1657 7.63078 12.0992 7.50741 11.9815C7.38404 11.8637 7.31478 11.7042 7.31478 11.538V11.0373C7.31478 11.004 7.30085 10.972 7.27607 10.9484C7.25128 10.9249 7.21767 10.9116 7.18262 10.9116H5.99315C5.29212 10.9116 4.6198 11.1764 4.1241 11.6478C3.6284 12.1192 3.34991 12.7585 3.34991 13.4251V15.8128C3.34991 15.8294 3.35333 15.8457 3.35997 15.8609C3.36662 15.8762 3.37635 15.89 3.38862 15.9017C3.4009 15.9134 3.41546 15.9226 3.4315 15.929C3.44753 15.9353 3.46472 15.9385 3.48207 15.9385H4.53937C4.57443 15.9385 4.60804 15.9253 4.63283 15.9017C4.65761 15.8781 4.67154 15.8462 4.67154 15.8128V13.4251C4.67155 13.0918 4.81079 12.7721 5.05865 12.5364C5.3065 12.3008 5.64266 12.1684 5.99317 12.1684H6.98459C7.07218 12.1684 7.15617 12.2015 7.21808 12.2604C7.28 12.3194 7.31479 12.3992 7.31479 12.4825V13.1109C7.31479 13.1942 7.27998 13.2741 7.21802 13.333C7.15605 13.392 7.07201 13.4251 6.98439 13.4251L6.98439 13.4251H5.53062C5.51327 13.4251 5.49608 13.4283 5.48005 13.4346C5.46401 13.441 5.44944 13.4502 5.43717 13.4619C5.4249 13.4736 5.41516 13.4874 5.40852 13.5027C5.40188 13.5179 5.39846 13.5342 5.39846 13.5508V14.5561C5.39846 14.5726 5.40188 14.589 5.40852 14.6042C5.41516 14.6195 5.4249 14.6333 5.43717 14.645C5.44944 14.6567 5.46401 14.6659 5.48005 14.6722C5.49608 14.6786 5.51327 14.6818 5.53062 14.6818H6.98459C7.07218 14.6819 7.15617 14.715 7.21809 14.7739C7.28001 14.8328 7.31479 14.9127 7.31479 14.996V15.8129C7.31479 15.8462 7.32872 15.8782 7.3535 15.9017C7.37828 15.9253 7.4119 15.9385 7.44695 15.9385H8.50425C8.5393 15.9385 8.57292 15.9253 8.5977 15.9017C8.62249 15.8782 8.63641 15.8462 8.63641 15.8129V12.2939C8.63641 12.2774 8.633 12.2611 8.62635 12.2458C8.61971 12.2306 8.60998 12.2167 8.59771 12.205C8.58543 12.1934 8.57086 12.1841 8.55483 12.1778C8.53879 12.1715 8.52161 12.1682 8.50425 12.1682L8.50424 12.1684Z" fill="white"/>
<path d="M17.9994 12.1684H20.5478C20.5651 12.1684 20.5823 12.1651 20.5983 12.1588C20.6144 12.1525 20.629 12.1433 20.6412 12.1316C20.6535 12.1199 20.6632 12.1061 20.6699 12.0908C20.6765 12.0756 20.6799 12.0592 20.6799 12.0427V11.0373C20.6799 11.004 20.666 10.972 20.6412 10.9484C20.6164 10.9249 20.5828 10.9116 20.5478 10.9116H18.0018C16.8694 10.9116 15.8527 11.6029 15.5208 12.6323C14.9793 14.3119 16.236 15.8541 17.8988 15.9354C17.9166 15.9363 17.9345 15.9336 17.9513 15.9277C17.968 15.9217 17.9834 15.9125 17.9963 15.9007C18.0092 15.8889 18.0194 15.8747 18.0263 15.8591C18.0333 15.8434 18.0368 15.8265 18.0366 15.8095V14.9962C18.0366 14.9129 18.0714 14.833 18.1333 14.7741C18.1952 14.7152 18.2792 14.6821 18.3668 14.682H19.028C19.1156 14.6821 19.1996 14.7152 19.2616 14.7741C19.3235 14.833 19.3583 14.9129 19.3583 14.9962V15.8131C19.3583 15.8465 19.3722 15.8784 19.397 15.902C19.4218 15.9256 19.4554 15.9388 19.4904 15.9388H20.5478C20.5828 15.9388 20.6164 15.9256 20.6412 15.902C20.666 15.8784 20.6799 15.8465 20.6799 15.8131V13.5509C20.6799 13.5176 20.666 13.4856 20.6412 13.462C20.6164 13.4385 20.5828 13.4252 20.5478 13.4252H18.1688C18.1337 13.4252 18.1001 13.4385 18.0753 13.462C18.0505 13.4856 18.0366 13.5176 18.0366 13.5509V14.2147C18.0367 14.2669 18.0248 14.3185 18.0016 14.3658C17.9785 14.4131 17.9448 14.4551 17.9028 14.4887C17.8608 14.5222 17.8115 14.5467 17.7585 14.5602C17.7055 14.5738 17.6501 14.5761 17.596 14.5671C17.4587 14.5452 17.3291 14.4916 17.2185 14.4112C16.7909 14.0892 16.576 13.5225 16.8132 12.9354C16.9064 12.7086 17.0696 12.514 17.2813 12.3771C17.493 12.2402 17.7434 12.1675 17.9994 12.1685" fill="white"/>
</g>
<defs>
<clipPath id="clip0_21491_890">
<rect width="20" height="16" fill="white" transform="translate(2 4)"/>
</clipPath>
</defs>
</svg>
