<?xml version="1.0" encoding="UTF-8"?>
<svg id="Layer_1" xmlns="http://www.w3.org/2000/svg" version="1.1" xmlns:xlink="http://www.w3.org/1999/xlink" viewBox="0 0 1080 1080">
  <!-- Generator: Adobe Illustrator 30.0.0, SVG Export Plug-In . SVG Version: 2.1.1 Build 123)  -->
  <defs>
    <style>
      .st0 {
        fill: #ee353f;
      }

      .st1 {
        fill: #fff;
      }

      .st2 {
        fill: none;
      }

      .st3 {
        clip-path: url(#clippath);
      }
    </style>
    <clipPath id="clippath">
      <rect class="st2" x="4.1" y="111.28" width="1071.8" height="857.44"/>
    </clipPath>
  </defs>
  <g class="st3">
    <g>
      <path class="st0" d="M1040.52,111.28H39.73c-9.39,0-18.4,3.55-25.04,9.86-6.64,6.31-10.37,14.88-10.37,23.81l-.16,790.1c0,4.43.91,8.8,2.69,12.89,1.78,4.09,4.39,7.8,7.68,10.93,3.29,3.13,7.19,5.61,11.49,7.3,4.3,1.69,8.9,2.56,13.55,2.56h1000.98c9.39,0,18.4-3.55,25.04-9.86,6.65-6.31,10.37-14.88,10.37-23.81V144.95c0-4.42-.92-8.8-2.7-12.89-1.78-4.09-4.39-7.8-7.68-10.92-3.29-3.13-7.19-5.61-11.49-7.3-4.29-1.69-8.9-2.56-13.55-2.56h-.02Z"/>
      <path class="st1" d="M293.65,816.9h-78.09c-.47,0-.94.09-1.37.26-.43.17-.83.42-1.16.74-.33.32-.6.7-.78,1.11-.18.41-.27.86-.27,1.3v17.03c0,.45.09.89.27,1.31.18.41.44.79.78,1.1.33.32.73.57,1.16.74.44.17.9.26,1.37.26h21.43c.47,0,.94.09,1.37.26.44.17.83.42,1.16.74.33.32.6.69.78,1.1.18.41.27.86.27,1.31v60.59c0,.91.38,1.77,1.05,2.41.67.64,1.58,1,2.54,1h20.89c.47,0,.94-.09,1.37-.26s.83-.42,1.16-.74c.33-.32.6-.69.78-1.1.18-.41.27-.86.27-1.31v-60.59c0-.91.38-1.77,1.05-2.41.67-.64,1.58-1,2.54-1h21.43c.47,0,.94-.09,1.37-.26.44-.17.83-.42,1.16-.74.33-.32.6-.69.78-1.1.18-.42.27-.86.27-1.31v-17.03c0-.44-.09-.89-.27-1.3-.18-.41-.44-.79-.78-1.11-.33-.32-.73-.57-1.16-.74-.44-.17-.9-.26-1.37-.26h0Z"/>
      <path class="st1" d="M551.92,816.9h-29.89c-.47,0-.94.09-1.37.26-.44.17-.83.42-1.16.74-.34.32-.6.7-.78,1.11-.18.41-.27.86-.27,1.3v84.44c0,.91.38,1.77,1.05,2.41.67.64,1.58,1,2.53,1h29.76c33.88,0,55.03-17.53,55.03-45.89s-20.33-45.37-54.9-45.37h0ZM550.53,884.82h-1.31c-.96.01-1.88-.34-2.57-.99-.68-.64-1.07-1.51-1.08-2.42v-37.78c0-.91.4-1.78,1.08-2.42.69-.64,1.61-1,2.57-.99h1.59c18.18,0,27.41,6.7,27.41,22.04s-9.23,22.56-27.68,22.56h0Z"/>
      <path class="st1" d="M701.82,816.9h-21.53c-1.98,0-3.59,1.53-3.59,3.41v84.44c0,1.89,1.61,3.41,3.59,3.41h21.53c1.98,0,3.59-1.53,3.59-3.41v-84.44c0-1.88-1.61-3.41-3.59-3.41Z"/>
      <path class="st1" d="M444.92,816.9h-20.48c-.47,0-.94.09-1.37.26-.44.17-.83.42-1.16.74s-.6.7-.78,1.11c-.18.41-.27.86-.27,1.3v45.31c0,15.21-4.34,20.5-15.04,20.5s-15.05-5.28-15.05-20.5v-45.31c0-.44-.09-.89-.27-1.3-.18-.41-.44-.79-.78-1.11-.33-.32-.73-.57-1.16-.74-.44-.17-.9-.26-1.37-.26h-20.48c-.47,0-.94.09-1.37.26-.44.17-.83.42-1.16.74-.33.32-.6.7-.78,1.11-.18.41-.27.86-.27,1.3v47.89c0,27.97,13.15,42.41,42.7,42.41s42.7-15.21,42.7-42.53v-47.76c0-.45-.09-.89-.27-1.31-.18-.41-.44-.79-.78-1.1-.33-.32-.73-.57-1.16-.74s-.9-.26-1.37-.26h0Z"/>
      <path class="st1" d="M123.8,852.98c-2.97-1.21-11.12-4.42-12.23-4.77-7.93-2.45-8.3-6.03-6.98-9.48,1.32-3.45,6.65-4.98,11.75-3.01,2.74,1.06,9.53,6.92,10.27,7.6.49.55,1.15.94,1.88,1.13h0c.45.09.91.09,1.35,0,.44-.09.86-.27,1.23-.54l14.93-10.59c.35-.25.64-.56.86-.92.22-.36.36-.76.41-1.17.05-.41.02-.83-.11-1.23-.12-.4-.33-.77-.61-1.09-8.13-9.34-19.91-14.46-33.87-14.46-20.6,0-35.92,11.86-35.92,27.2,0,13.4,6.3,21.32,22.81,28.14,4.27,1.43,9.77,3.56,11.96,4.18,9.62,2.69,9.99,7.26,8.4,11.41-1.59,4.15-7.98,5.93-14.14,3.62-4.3-1.61-11.04-7.8-11.5-8.42-.45-.51-1.07-.87-1.75-1.01h-.05c-.43-.1-.87-.1-1.3-.02-.43.09-.84.25-1.2.49l-15.03,9.97c-.36.24-.66.54-.89.89-.23.35-.38.74-.45,1.15-.07.41-.04.83.06,1.23.11.4.3.78.57,1.1,8.69,10.69,21.42,16.34,36.26,16.34,22.09,0,37.82-13.02,37.82-30.67,0-11.6-6.64-19.85-24.54-27.07h0Z"/>
      <path class="st1" d="M824.33,814.44c-10,0-19.77,2.82-28.09,8.1-8.31,5.28-14.8,12.79-18.62,21.58-3.83,8.78-4.83,18.45-2.88,27.78,1.96,9.32,6.77,17.89,13.84,24.62,7.07,6.72,16.08,11.3,25.88,13.16,9.81,1.85,19.97.9,29.21-2.74,9.24-3.64,17.13-9.8,22.69-17.71,5.56-7.9,8.52-17.2,8.52-26.71,0-12.75-5.33-24.98-14.81-33.99-9.49-9.02-22.34-14.08-35.75-14.08h0ZM824.33,883.97c-4.46,0-8.83-1.26-12.53-3.62-3.71-2.36-6.6-5.71-8.31-9.63-1.71-3.92-2.15-8.23-1.29-12.4.87-4.16,3.02-7.98,6.18-10.98,3.15-3,7.18-5.05,11.55-5.87,4.38-.83,8.92-.4,13.04,1.22s7.65,4.37,10.12,7.9c2.48,3.53,3.8,7.68,3.8,11.92,0,5.69-2.38,11.14-6.62,15.17-4.23,4.02-9.96,6.29-15.94,6.29h0Z"/>
      <path class="st1" d="M984.39,852.98c-2.96-1.21-11.11-4.42-12.23-4.77-7.93-2.45-8.3-6.03-6.98-9.48,1.32-3.45,6.66-4.98,11.75-3.01,2.74,1.06,9.53,6.92,10.27,7.6.49.55,1.14.94,1.88,1.13h0c.44.09.91.09,1.35,0,.44-.09.86-.27,1.23-.54l14.94-10.59c.35-.25.64-.56.86-.92.22-.36.36-.76.41-1.17.05-.41.02-.83-.11-1.23-.12-.4-.33-.77-.61-1.09-8.13-9.34-19.91-14.46-33.87-14.46-20.61,0-35.92,11.86-35.92,27.2,0,13.4,6.3,21.32,22.81,28.14,4.27,1.43,9.76,3.56,11.97,4.18,9.61,2.69,9.98,7.26,8.4,11.41-1.58,4.15-7.98,5.93-14.14,3.62-4.3-1.61-11.04-7.8-11.51-8.42-.46-.51-1.07-.87-1.75-1.01h-.05c-.43-.1-.87-.1-1.3-.02-.43.09-.84.25-1.2.49l-15.03,9.97c-.36.24-.66.54-.89.89-.23.35-.39.74-.45,1.15-.06.41-.04.83.06,1.23s.3.78.57,1.1c8.69,10.69,21.43,16.34,36.25,16.34,22.1,0,37.82-13.02,37.82-30.67,0-11.6-6.64-19.85-24.53-27.07h0Z"/>
      <path class="st1" d="M560.17,175.21c-28.71,0-56.78,8.1-80.66,23.27-23.87,15.17-42.49,36.73-53.47,61.96-10.99,25.23-13.86,52.99-8.26,79.77,5.6,26.78,19.43,51.38,39.74,70.69,20.31,19.31,46.17,32.46,74.34,37.78,28.16,5.33,57.36,2.59,83.88-7.86,26.53-10.45,49.21-28.14,65.17-50.85,15.95-22.7,24.47-49.4,24.47-76.7,0-36.62-15.3-71.73-42.53-97.63-27.23-25.89-64.16-40.44-102.67-40.44h0ZM560.17,380.63c-14.01,0-27.7-3.95-39.35-11.35-11.65-7.4-20.73-17.92-26.09-30.23-5.36-12.31-6.76-25.85-4.03-38.91,2.73-13.06,9.48-25.06,19.38-34.48,9.9-9.42,22.52-15.83,36.26-18.43,13.74-2.6,27.98-1.26,40.92,3.83,12.94,5.1,24,13.73,31.78,24.81,7.79,11.08,11.94,24.1,11.94,37.42-.02,17.86-7.49,34.97-20.77,47.6-13.27,12.63-31.28,19.73-50.06,19.75h0Z"/>
      <path class="st1" d="M998.03,178.56h-198.31c-1.88,0-3.68.71-5.01,1.97-1.33,1.26-2.07,2.98-2.07,4.76v53.88c0,1.79.74,3.5,2.07,4.76s3.13,1.97,5.01,1.97h134.56v117.86c0,4.47-1.86,8.75-5.18,11.9-3.32,3.16-7.82,4.93-12.52,4.93h0s-53.12,0-53.12,0c-17.68-.02-34.71-6.32-47.76-17.66-13.05-11.34-21.17-26.91-22.78-43.65-.17-1.66-.98-3.19-2.28-4.31-1.3-1.12-2.99-1.73-4.74-1.73h-56.81c-.96,0-1.91.17-2.8.52-.88.35-1.69.88-2.35,1.54-.66.66-1.18,1.44-1.52,2.3-.33.86-.48,1.77-.43,2.68,1.9,34.46,17.63,66.91,43.95,90.66,26.32,23.75,61.22,36.99,97.51,36.99h63.75c.93,0,1.85-.17,2.71-.51.86-.34,1.64-.83,2.3-1.46.65-.63,1.18-1.37,1.53-2.19.36-.81.54-1.69.54-2.58v-26.94c0-4.42.92-8.8,2.7-12.89,1.78-4.09,4.39-7.8,7.67-10.92,3.29-3.13,7.2-5.61,11.49-7.3,4.3-1.69,8.9-2.56,13.55-2.56h28.33c.93,0,1.85-.17,2.71-.51.86-.34,1.64-.83,2.3-1.46.66-.63,1.18-1.37,1.54-2.18.35-.82.54-1.69.54-2.58v-188.58c0-1.79-.74-3.5-2.07-4.76-1.33-1.26-3.13-1.97-5.01-1.97h0Z"/>
      <path class="st1" d="M359.69,245.93c-4.66,0-9.27-.87-13.57-2.57-4.3-1.7-8.21-4.18-11.5-7.32-3.29-3.13-5.9-6.85-7.67-10.95-1.78-4.09-2.68-8.48-2.68-12.91l.06-26.87c0-1.79-.75-3.5-2.07-4.76-1.33-1.26-3.13-1.97-5.01-1.97H83.52c-.93,0-1.85.17-2.71.51-.86.34-1.64.83-2.3,1.46-.66.63-1.18,1.37-1.54,2.18-.36.82-.54,1.69-.54,2.58v255.92c0,1.78.75,3.5,2.07,4.76,1.33,1.26,3.13,1.97,5.01,1.97h56.66c.93,0,1.85-.17,2.71-.51.86-.34,1.64-.84,2.3-1.46.66-.62,1.18-1.37,1.54-2.19.36-.81.54-1.69.54-2.57v-178.48c0-4.47,1.87-8.75,5.19-11.91,3.32-3.16,7.82-4.93,12.52-4.93h17.71c2.33,0,4.63.44,6.78,1.28,2.15.85,4.1,2.09,5.74,3.65,1.64,1.56,2.95,3.42,3.84,5.46.89,2.04,1.35,4.23,1.35,6.44v110.96c0,.88.18,1.76.54,2.58.36.82.88,1.56,1.53,2.18s1.44,1.12,2.3,1.46c.86.34,1.78.51,2.71.51h56.66c1.88,0,3.68-.71,5.01-1.97s2.07-2.98,2.07-4.76v-110.96c0-4.47,1.87-8.75,5.19-11.91,3.32-3.16,7.82-4.93,12.52-4.93h17.63c4.69,0,9.2,1.77,12.52,4.93,3.32,3.16,5.19,7.44,5.19,11.9l.08,178.49c0,1.79.75,3.5,2.07,4.76,1.33,1.26,3.13,1.97,5.01,1.97h56.66c.93,0,1.85-.17,2.71-.51.86-.34,1.64-.83,2.3-1.46.66-.63,1.18-1.37,1.54-2.19.36-.81.54-1.69.54-2.58v-188.58c0-.88-.18-1.76-.54-2.58-.36-.82-.88-1.56-1.54-2.18-.66-.63-1.44-1.12-2.3-1.46-.86-.34-1.78-.51-2.71-.51h-28.38Z"/>
      <path class="st1" d="M410.34,481.67h198.32c1.88,0,3.68.71,5.01,1.97,1.33,1.26,2.07,2.98,2.07,4.76v26.9c0,8.92,3.72,17.48,10.35,23.79,6.63,6.32,15.63,9.87,25.01,9.88l28.38.03c1.88,0,3.68.71,5.01,1.97,1.33,1.26,2.07,2.98,2.07,4.76v188.58c0,1.78-.74,3.5-2.07,4.76-1.33,1.26-3.13,1.97-5.01,1.97h-56.66c-1.88,0-3.68-.71-5.01-1.97-1.33-1.26-2.07-2.97-2.07-4.76v-178.48c0-4.46-1.86-8.74-5.18-11.9-3.32-3.16-7.82-4.93-12.51-4.93h-106.26c-4.69,0-9.2,1.77-12.51,4.93-3.32,3.16-5.18,7.44-5.19,11.9v178.48c0,.88-.18,1.76-.54,2.58-.36.81-.88,1.56-1.54,2.18-.65.63-1.44,1.13-2.29,1.46-.86.34-1.78.51-2.71.51h-56.66c-1.88,0-3.68-.71-5.01-1.97-1.33-1.26-2.07-2.97-2.07-4.76v-255.91c0-.89.18-1.76.54-2.58.36-.82.88-1.56,1.54-2.19s1.44-1.12,2.3-1.46c.86-.34,1.78-.51,2.71-.51v-.02Z"/>
      <path class="st1" d="M352.66,549.02l-28.47-.11c-9.37-.04-18.34-3.6-24.95-9.91-6.61-6.31-10.32-14.86-10.32-23.77v-26.83c0-1.78-.75-3.5-2.07-4.76-1.33-1.26-3.13-1.97-5.01-1.97h-63.74c-37.57,0-73.6,14.19-100.16,39.45-26.56,25.26-41.49,59.52-41.49,95.25v127.96c0,.89.18,1.76.54,2.58.36.82.88,1.56,1.54,2.19.66.63,1.44,1.12,2.3,1.46.86.34,1.78.51,2.71.51h56.66c1.88,0,3.68-.71,5.01-1.97,1.33-1.26,2.07-2.97,2.07-4.76v-127.96c0-17.86,7.46-34.99,20.75-47.63,13.28-12.63,31.3-19.72,50.08-19.72h53.13c4.69,0,9.19,1.77,12.51,4.93,3.32,3.16,5.18,7.44,5.18,11.9v33.68c0,4.46-1.87,8.75-5.19,11.9-3.32,3.16-7.82,4.94-12.52,4.94h-77.91c-.93,0-1.85.17-2.71.51-.86.34-1.64.84-2.3,1.46-.66.63-1.18,1.37-1.54,2.19-.36.81-.54,1.69-.54,2.58v53.87c0,.88.18,1.76.54,2.58.36.82.88,1.56,1.54,2.19.66.63,1.44,1.12,2.3,1.46.86.34,1.78.51,2.71.51h77.92c4.69,0,9.19,1.78,12.51,4.94,3.32,3.16,5.18,7.44,5.18,11.9v43.78c0,1.78.75,3.5,2.07,4.76,1.33,1.26,3.13,1.97,5.01,1.97h56.66c1.88,0,3.68-.71,5.01-1.97,1.33-1.26,2.07-2.97,2.07-4.76v-188.58c0-.88-.18-1.76-.54-2.58-.36-.81-.88-1.56-1.53-2.19-.66-.62-1.44-1.12-2.3-1.46-.86-.34-1.78-.51-2.71-.51h0Z"/>
      <path class="st1" d="M861.51,549.02h136.57c.93,0,1.85-.18,2.71-.51.86-.34,1.65-.83,2.3-1.46.66-.63,1.18-1.37,1.54-2.19.35-.81.54-1.69.54-2.58v-53.88c0-1.78-.74-3.5-2.07-4.76-1.33-1.26-3.13-1.97-5.01-1.97h-136.44c-60.69,0-115.17,37.05-132.96,92.21-29.02,90.01,38.33,172.66,127.44,177.01.95.05,1.91-.1,2.81-.41.89-.32,1.72-.81,2.41-1.45.69-.63,1.24-1.39,1.61-2.23.38-.84.56-1.75.55-2.66v-43.58c0-4.46,1.86-8.75,5.18-11.9,3.32-3.16,7.82-4.93,12.51-4.94h35.43c4.69,0,9.2,1.78,12.52,4.94,3.32,3.16,5.18,7.44,5.18,11.9v43.78c0,1.79.74,3.5,2.07,4.76,1.33,1.26,3.13,1.97,5.01,1.97h56.67c1.88,0,3.68-.71,5.01-1.97,1.33-1.26,2.07-2.97,2.07-4.76v-121.23c0-1.78-.74-3.5-2.07-4.76-1.33-1.26-3.13-1.97-5.01-1.97h-127.49c-1.88,0-3.68.71-5.01,1.97-1.33,1.26-2.07,2.98-2.07,4.76v35.57c0,2.8-.63,5.56-1.88,8.1-1.24,2.53-3.04,4.79-5.29,6.59-2.25,1.8-4.89,3.11-7.73,3.83-2.84.73-5.81.85-8.71.37-7.36-1.17-14.3-4.05-20.23-8.35-22.92-17.26-34.43-47.63-21.72-79.09,4.99-12.15,13.74-22.58,25.09-29.92,11.34-7.34,24.76-11.23,38.48-11.18"/>
    </g>
  </g>
</svg>