<?xml version="1.0" encoding="UTF-8"?>
<svg id="Layer_1" data-name="Layer 1" xmlns="http://www.w3.org/2000/svg" viewBox="0 0 2000 480">
  <path d="M291.74,34.85c-17.76-9.41-37.15-15.73-58.11-18.93-20.98-3.22-41.32-4.83-61-4.83H5v449.46h77.68v-170.15h89.95c19.26,0,39.27-2.14,60.03-6.42,20.76-4.28,40.13-11.78,58.11-22.48,17.98-10.7,32.52-25.57,43.66-44.63,11.14-19.04,16.7-43.12,16.7-72.23s-5.45-51.79-16.37-69.34c-10.92-17.54-25.26-31.04-43.02-40.46ZM236.85,219.46c-20.56,14.34-49.24,21.51-86.04,21.51h-68.13V59.89h81.61c31.67,0,56.83,6.53,75.45,19.59,18.62,13.06,27.93,35.85,27.93,68.39s-10.28,57.25-30.82,71.59Z"/>
  <rect x="397.51" y="11.09" width="70.62" height="449.46"/>
  <path d="M673.6,131.17c-25.26,0-46.77,3.44-64.53,10.28-17.76,6.84-32.21,15.73-43.35,26.64-11.14,10.92-19.57,23.12-25.35,36.6-5.78,13.48-9.11,27.09-9.95,40.77h78.33c.86-21.39,6.42-39.05,16.7-52.97,10.28-13.9,26.74-20.87,49.44-20.87,14.12,0,25.68,2.79,34.68,8.36,8.98,5.56,15.73,12.84,20.23,21.82,4.48,9,6.73,18.62,6.73,28.9,0,12.84-3.53,22.7-10.59,29.54-7.06,6.84-20.23,11.14-39.49,12.84l-73.2,7.06c-17.12,1.72-32.43,5.58-45.91,11.56-13.48,6-24.07,14.76-31.77,26.32-7.72,11.56-11.56,26.98-11.56,46.24,0,23.11,5.67,42.38,17.01,57.78,11.34,15.42,26.1,27.07,44.3,34.99,18.18,7.92,37.77,11.89,58.75,11.89s40.02-4.08,54.58-12.2c14.54-8.14,26.96-20.34,37.24-36.6l1.28,40.44h69.34v-207.39c0-40.24-11.45-70.64-34.35-91.18-22.9-20.54-55.75-30.82-98.55-30.82ZM737.16,339.85c0,18.4-3.44,33.82-10.26,46.22-6.86,12.42-16.06,21.73-27.62,27.93-11.56,6.22-24.4,9.31-38.52,9.31-20.13,0-35.22-5.03-45.27-15.09-10.06-10.05-15.09-22.79-15.09-38.19s4.28-26.34,12.84-34.04c8.56-7.7,21.61-12.4,39.16-14.12l57.16-6.42c5.55-.86,10.26-1.7,14.12-2.58,3.86-.85,8.34-1.92,13.48-3.2v30.18Z"/>
  <path d="M1126.91,191.53c-4.28-14.56-11.34-26.21-21.18-34.99-9.86-8.78-20.87-15.2-33.07-19.27-12.2-4.06-24.95-6.09-38.21-6.09s-26.01,2.03-38.21,6.09c-12.2,4.08-23.21,9.95-33.06,17.67-9.86,7.7-18.21,16.92-25.04,27.6v-43.02h-71.28v321.04h70.62v-175.93c0-12.84.53-23.98,1.61-33.4,1.06-9.41,2.89-17.75,5.47-25.04,4.27-13.26,12.51-24.71,24.71-34.35,12.2-9.62,26.43-14.45,42.69-14.45,12.85,0,22.7,2.15,29.54,6.42,6.84,4.29,11.78,9.64,14.78,16.06,3.42,6,5.23,12.84,5.45,20.54.2,7.72.33,16.49.33,26.34v213.81h70.62v-215.1c0-9.84-.44-19.26-1.28-28.24-.86-9-2.36-17.54-4.5-25.68Z"/>
  <path d="M1451.79,191.53c-4.28-14.56-11.34-26.21-21.18-34.99-9.86-8.78-20.87-15.2-33.07-19.27-12.2-4.06-24.95-6.09-38.21-6.09s-26.01,2.03-38.21,6.09c-12.2,4.08-23.21,9.95-33.06,17.67-9.86,7.7-18.21,16.92-25.04,27.6V11.09h-71.28v449.46h70.62v-175.93c0-12.84.53-23.98,1.61-33.4,1.06-9.41,2.89-17.75,5.47-25.04,4.27-13.26,12.51-24.71,24.71-34.35,12.2-9.62,26.43-14.45,42.69-14.45,12.85,0,22.7,2.15,29.54,6.42,6.84,4.29,11.78,9.64,14.78,16.06,3.42,6,5.23,12.84,5.45,20.54.2,7.72.33,16.49.33,26.34v213.81h70.62v-215.1c0-9.84-.44-19.26-1.28-28.24-.86-9-2.36-17.54-4.5-25.68Z"/>
  <path d="M1653.41,131.17c-25.26,0-46.77,3.44-64.53,10.28-17.76,6.84-32.21,15.73-43.35,26.64-11.14,10.92-19.57,23.12-25.35,36.6-5.78,13.48-9.11,27.09-9.95,40.77h78.33c.86-21.39,6.42-39.05,16.7-52.97,10.28-13.9,26.74-20.87,49.44-20.87,14.12,0,25.68,2.79,34.68,8.36,8.98,5.56,15.73,12.84,20.23,21.82,4.48,9,6.73,18.62,6.73,28.9,0,12.84-3.53,22.7-10.59,29.54-7.06,6.84-20.23,11.14-39.49,12.84l-73.2,7.06c-17.12,1.72-32.43,5.58-45.91,11.56-13.48,6-24.07,14.76-31.77,26.32-7.72,11.56-11.56,26.98-11.56,46.24,0,23.11,5.67,42.38,17.01,57.78,11.34,15.42,26.1,27.07,44.3,34.99,18.18,7.92,37.77,11.89,58.75,11.89s40.02-4.08,54.58-12.2c14.54-8.14,26.96-20.34,37.24-36.6l1.28,40.44h69.34v-207.39c0-40.24-11.45-70.64-34.35-91.18-22.9-20.54-55.75-30.82-98.55-30.82ZM1716.98,339.85c0,18.4-3.44,33.82-10.26,46.22-6.86,12.42-16.06,21.73-27.62,27.93-11.56,6.22-24.4,9.31-38.52,9.31-20.13,0-35.22-5.03-45.27-15.09-10.06-10.05-15.09-22.79-15.09-38.19s4.28-26.34,12.84-34.04c8.56-7.7,21.61-12.4,39.16-14.12l57.16-6.42c5.55-.86,10.26-1.7,14.12-2.58,3.86-.85,8.34-1.92,13.48-3.2v30.18Z"/>
  <path d="M1995,182.53v-43.02h-64.86V63.75h-70.62v75.76h-52v43.02h52v209.96c0,14.56,1.92,26.87,5.78,36.93,3.86,10.06,10.59,17.76,20.23,23.11,9.62,5.36,22.57,8.03,38.85,8.03h70.62v-45.58h-42.38c-7.28,0-12.84-1.28-16.7-3.86-3.84-2.56-5.78-8.34-5.78-17.34v-211.24h64.86Z"/>
</svg>