<?xml version="1.0" encoding="UTF-8"?>
<svg id="Layer_1" data-name="Layer 1" xmlns="http://www.w3.org/2000/svg" viewBox="0 0 2000 320">
  <path d="M842.07,21.13c-12.02-6.37-25.14-10.65-39.33-12.82-14.2-2.18-27.97-3.27-41.29-3.27h-113.47v304.24h52.58v-115.17h60.89c13.04,0,26.58-1.45,40.64-4.35,14.05-2.9,27.16-7.97,39.33-15.22s22.02-17.31,29.55-30.21c7.54-12.89,11.3-29.19,11.3-48.89s-3.69-35.05-11.08-46.94c-7.39-11.88-17.1-21.01-29.12-27.39ZM804.91,146.09c-13.91,9.71-33.33,14.56-58.24,14.56h-46.11V38.08h55.24c21.43,0,38.47,4.42,51.07,13.26,12.6,8.84,18.91,24.27,18.91,46.29s-6.96,38.75-20.86,48.46Z"/>
  <path d="M235.63,175.72c-127.38,0-230.63,25.14-230.63,51.57s103.26,51.57,230.63,51.57,230.63-25.14,230.63-51.57-103.26-51.57-230.63-51.57Z"/>
  <path d="M361.64,153.89c0-74.55-45.25-118.41-126.01-118.41s-126.01,43.86-126.01,118.41c15.25-7.04,62.79-19.14,126.01-19.14s110.76,12.1,126.01,19.14Z"/>
  <rect x="913.66" y="5.05" width="47.81" height="304.24"/>
  <path d="M1100.54,86.33c-17.1,0-31.66,2.33-43.68,6.96-12.02,4.63-21.8,10.65-29.34,18.03-7.54,7.39-13.25,15.65-17.16,24.77-3.91,9.13-6.16,18.33-6.74,27.6h53.02c.58-14.48,4.35-26.44,11.3-35.86,6.96-9.41,18.1-14.13,33.47-14.13,9.56,0,17.38,1.89,23.47,5.66,6.08,3.76,10.65,8.69,13.69,14.77,3.04,6.09,4.56,12.6,4.56,19.56,0,8.69-2.39,15.36-7.17,19.99-4.78,4.63-13.69,7.54-26.73,8.69l-49.55,4.78c-11.59,1.16-21.95,3.77-31.08,7.82-9.13,4.06-16.29,9.99-21.51,17.82-5.22,7.82-7.82,18.26-7.82,31.3,0,15.64,3.84,28.69,11.52,39.11,7.68,10.44,17.67,18.32,29.99,23.69,12.31,5.36,25.57,8.05,39.77,8.05s27.09-2.76,36.94-8.26c9.85-5.51,18.25-13.77,25.21-24.77l.87,27.38h46.94v-140.38c0-27.24-7.75-47.81-23.25-61.72-15.5-13.91-37.74-20.86-66.71-20.86ZM1143.57,227.59c0,12.46-2.33,22.89-6.95,31.29-4.64,8.41-10.87,14.71-18.69,18.91-7.82,4.21-16.52,6.3-26.08,6.3-13.63,0-23.84-3.4-30.64-10.21-6.81-6.8-10.21-15.43-10.21-25.85s2.9-17.83,8.69-23.04c5.79-5.21,14.62-8.4,26.51-9.56l38.69-4.35c3.76-.58,6.95-1.15,9.56-1.74,2.61-.57,5.65-1.3,9.13-2.17v20.43Z"/>
  <path d="M1407.39,127.19c-2.9-9.85-7.68-17.74-14.34-23.69-6.67-5.94-14.13-10.29-22.38-13.05-8.26-2.75-16.89-4.12-25.86-4.12s-17.61,1.37-25.86,4.12c-8.26,2.76-15.71,6.74-22.38,11.96-6.67,5.21-12.33,11.45-16.95,18.68v-29.12h-48.25v217.31h47.81v-119.08c0-8.69.36-16.23,1.09-22.61.72-6.37,1.96-12.01,3.7-16.95,2.89-8.98,8.47-16.73,16.73-23.25,8.26-6.51,17.89-9.78,28.9-9.78,8.7,0,15.36,1.46,19.99,4.35,4.63,2.91,7.97,6.52,10,10.87,2.32,4.06,3.54,8.69,3.69,13.91.14,5.22.22,11.16.22,17.83v144.73h47.81v-145.6c0-6.66-.3-13.04-.87-19.12-.58-6.09-1.6-11.88-3.04-17.38Z"/>
  <path d="M1627.3,127.19c-2.9-9.85-7.68-17.74-14.34-23.69-6.67-5.94-14.13-10.29-22.38-13.05-8.26-2.75-16.89-4.12-25.86-4.12s-17.61,1.37-25.86,4.12c-8.26,2.76-15.71,6.74-22.38,11.96-6.67,5.21-12.33,11.45-16.95,18.68V5.05h-48.25v304.24h47.81v-119.08c0-8.69.36-16.23,1.09-22.61.72-6.37,1.96-12.01,3.7-16.95,2.89-8.98,8.47-16.73,16.73-23.25,8.26-6.51,17.89-9.78,28.9-9.78,8.7,0,15.36,1.46,19.99,4.35,4.63,2.91,7.97,6.52,10,10.87,2.32,4.06,3.54,8.69,3.69,13.91.14,5.22.22,11.16.22,17.83v144.73h47.81v-145.6c0-6.66-.3-13.04-.87-19.12-.58-6.09-1.6-11.88-3.04-17.38Z"/>
  <path d="M1763.78,86.33c-17.1,0-31.66,2.33-43.68,6.96-12.02,4.63-21.8,10.65-29.34,18.03-7.54,7.39-13.25,15.65-17.16,24.77-3.91,9.13-6.16,18.33-6.74,27.6h53.02c.58-14.48,4.35-26.44,11.3-35.86,6.96-9.41,18.1-14.13,33.47-14.13,9.56,0,17.38,1.89,23.47,5.66,6.08,3.76,10.65,8.69,13.69,14.77,3.04,6.09,4.56,12.6,4.56,19.56,0,8.69-2.39,15.36-7.17,19.99-4.78,4.63-13.69,7.54-26.73,8.69l-49.55,4.78c-11.59,1.16-21.95,3.77-31.08,7.82-9.13,4.06-16.29,9.99-21.51,17.82-5.22,7.82-7.82,18.26-7.82,31.3,0,15.64,3.84,28.69,11.52,39.11,7.68,10.44,17.67,18.32,29.99,23.69,12.31,5.36,25.57,8.05,39.77,8.05s27.09-2.76,36.94-8.26c9.85-5.51,18.25-13.77,25.21-24.77l.87,27.38h46.94v-140.38c0-27.24-7.75-47.81-23.25-61.72-15.5-13.91-37.74-20.86-66.71-20.86ZM1806.81,227.59c0,12.46-2.33,22.89-6.95,31.29-4.64,8.41-10.87,14.71-18.69,18.91-7.82,4.21-16.52,6.3-26.08,6.3-13.63,0-23.84-3.4-30.64-10.21-6.81-6.8-10.21-15.43-10.21-25.85s2.9-17.83,8.69-23.04c5.79-5.21,14.62-8.4,26.51-9.56l38.69-4.35c3.76-.58,6.95-1.15,9.56-1.74,2.61-.57,5.65-1.3,9.13-2.17v20.43Z"/>
  <path d="M1995,121.1v-29.12h-43.9v-51.28h-47.81v51.28h-35.2v29.12h35.2v142.12c0,9.85,1.3,18.19,3.91,25,2.61,6.81,7.17,12.02,13.69,15.64,6.51,3.63,15.28,5.43,26.3,5.43h47.81v-30.86h-28.69c-4.93,0-8.69-.87-11.3-2.61-2.6-1.73-3.91-5.65-3.91-11.74V121.1h43.9Z"/>
</svg>