<?xml version="1.0" encoding="UTF-8"?>
<svg id="Layer_1" data-name="Layer 1" xmlns="http://www.w3.org/2000/svg" viewBox="0 0 2000 320">
  <defs>
    <style>
      .cls-1 {
        fill: #fff;
      }
    </style>
  </defs>
  <path class="cls-1" d="M841.37,20.96c-11.9-6.38-24.81-10.66-38.73-12.84-13.93-2.18-27.42-3.27-40.48-3.27h-110.13v304.63h44.83v-117.06h65.31c12.77,0,26.03-1.45,39.82-4.35,13.78-2.9,26.7-7.98,38.73-15.23,12.05-7.25,21.84-17.26,29.38-30.03,7.54-12.76,11.33-29.01,11.33-48.74s-3.71-34.16-11.11-45.91c-7.39-11.75-17.05-20.81-28.94-27.2ZM810.03,147.6c-14.8,10.16-35.53,15.23-62.23,15.23h-50.95V34.01h60.09c22.91,0,41.19,4.57,54.82,13.71,13.64,9.14,20.45,25.31,20.45,48.52s-7.39,41.2-22.19,51.35Z"/>
  <rect class="cls-1" x="917.96" y="4.86" width="40.91" height="304.63"/>
  <path class="cls-1" d="M1101.6,86.24c-16.26,0-30.17,2.25-41.78,6.75-11.6,4.5-21.12,10.3-28.51,17.41-7.39,7.11-13.06,15.16-16.96,24.15-3.92,9-6.47,18.14-7.63,27.42h46.14c.87-14.8,5.06-27.05,12.62-36.77,7.54-9.72,19.72-14.58,36.55-14.58,10.74,0,19.51,2.11,26.33,6.31,6.82,4.21,11.75,9.51,14.8,15.89,3.05,6.38,4.56,13.2,4.56,20.45,0,9.58-2.61,16.61-7.83,21.11-5.21,4.5-14.65,7.47-28.29,8.92l-49.17,5.22c-11.6,1.16-21.91,3.77-30.89,7.83-9,4.06-16.11,10.01-21.32,17.84-5.23,7.83-7.83,17.99-7.83,30.46,0,15.38,3.77,28.29,11.31,38.73,7.54,10.44,17.41,18.35,29.6,23.72,12.18,5.36,25.24,8.05,39.15,8.05s27.13-2.76,37.86-8.27c10.74-5.51,19.88-14.36,27.42-26.55l.87,29.16h40.04v-142.3c0-26.4-7.34-46.49-21.97-60.27-14.65-13.77-36.34-20.67-65.06-20.67ZM1148.59,227.24c0,12.77-2.53,23.72-7.61,32.85-5.08,9.14-11.9,16.1-20.45,20.89-8.56,4.79-18.2,7.18-28.94,7.18-15.1,0-26.26-3.77-33.5-11.32-7.26-7.54-10.88-16.97-10.88-28.28s3.05-19.29,9.13-24.81c6.1-5.51,15.96-8.99,29.6-10.44l40.04-4.35c4.34-.58,8.11-1.31,11.31-2.18,3.2-.87,6.97-1.89,11.31-3.05v23.5Z"/>
  <path class="cls-1" d="M1405.78,127.14c-2.9-9.86-7.69-17.77-14.36-23.72-6.67-5.94-14.08-10.3-22.19-13.06-8.13-2.75-16.54-4.13-25.24-4.13s-17.7,1.46-26.11,4.35c-8.43,2.91-16.09,7.11-23.06,12.62-6.97,5.52-12.77,12.19-17.41,20.02v-31.33h-41.35v217.59h40.91v-114.45c0-9.86.37-18.27,1.09-25.24.72-6.96,1.96-13.34,3.7-19.15,3.2-9.86,9.42-18.42,18.72-25.67,9.28-7.25,19.86-10.88,31.76-10.88,9.28,0,16.39,1.46,21.32,4.35,4.93,2.9,8.56,6.96,10.88,12.19,2.31,4.64,3.62,10.01,3.92,16.1.28,6.09.44,12.77.44,20.02v142.74h40.47v-145.79c0-6.67-.22-13.05-.65-19.15-.44-6.09-1.39-11.89-2.85-17.41Z"/>
  <path class="cls-1" d="M1625.97,127.14c-2.9-9.86-7.69-17.77-14.36-23.72-6.67-5.94-14.08-10.3-22.19-13.06-8.13-2.75-16.54-4.13-25.24-4.13s-17.7,1.46-26.11,4.35c-8.43,2.91-16.09,7.11-23.06,12.62-6.97,5.52-12.77,12.19-17.41,20.02V4.86h-41.35v304.63h40.91v-114.45c0-9.86.37-18.27,1.09-25.24.72-6.96,1.96-13.34,3.7-19.15,3.2-9.86,9.42-18.42,18.72-25.67,9.28-7.25,19.86-10.88,31.76-10.88,9.28,0,16.39,1.46,21.32,4.35,4.93,2.9,8.56,6.96,10.88,12.19,2.31,4.64,3.62,10.01,3.92,16.1.28,6.09.44,12.77.44,20.02v142.74h40.46v-145.79c0-6.67-.22-13.05-.65-19.15-.44-6.09-1.39-11.89-2.85-17.41Z"/>
  <path class="cls-1" d="M1765.68,86.24c-16.26,0-30.17,2.25-41.78,6.75-11.6,4.5-21.12,10.3-28.51,17.41-7.39,7.11-13.06,15.16-16.96,24.15-3.92,9-6.47,18.14-7.63,27.42h46.14c.87-14.8,5.06-27.05,12.62-36.77,7.54-9.72,19.72-14.58,36.55-14.58,10.74,0,19.51,2.11,26.33,6.31,6.82,4.21,11.75,9.51,14.8,15.89,3.05,6.38,4.56,13.2,4.56,20.45,0,9.58-2.61,16.61-7.83,21.11-5.21,4.5-14.65,7.47-28.29,8.92l-49.17,5.22c-11.6,1.16-21.91,3.77-30.89,7.83-9,4.06-16.11,10.01-21.32,17.84-5.23,7.83-7.83,17.99-7.83,30.46,0,15.38,3.77,28.29,11.31,38.73,7.54,10.44,17.41,18.35,29.6,23.72,12.18,5.36,25.24,8.05,39.15,8.05s27.13-2.76,37.86-8.27c10.74-5.51,19.88-14.36,27.42-26.55l.87,29.16h40.04v-142.3c0-26.4-7.34-46.49-21.97-60.27-14.65-13.77-36.34-20.67-65.06-20.67ZM1812.67,227.24c0,12.77-2.53,23.72-7.61,32.85-5.08,9.14-11.9,16.1-20.45,20.89-8.56,4.79-18.2,7.18-28.94,7.18-15.1,0-26.26-3.77-33.5-11.32-7.26-7.54-10.88-16.97-10.88-28.28s3.05-19.29,9.13-24.81c6.1-5.51,15.96-8.99,29.6-10.44l40.04-4.35c4.34-.58,8.11-1.31,11.31-2.18,3.2-.87,6.97-1.89,11.31-3.05v23.5Z"/>
  <path class="cls-1" d="M1995,117.13v-25.24h-45.25v-51.35h-40.91v51.35h-36.55v25.24h36.55v151.01c0,8.42,1.24,15.67,3.7,21.76,2.48,6.09,6.54,10.88,12.19,14.36,5.65,3.48,13.27,5.22,22.84,5.22h47.43v-27.42h-30.03c-4.93,0-8.7-.87-11.31-2.61-2.61-1.74-3.92-5.66-3.92-11.75V117.13h45.25Z"/>
  <path class="cls-1" d="M412.66,200.04c-46.58-10.7-107.22-16.6-170.75-16.6s-124.17,5.89-170.75,16.6c-22.88,5.26-66.16,18.54-66.16,31.19s43.28,25.94,66.16,31.2c46.58,10.7,107.22,16.6,170.75,16.6s124.17-5.89,170.75-16.6c22.88-5.26,66.16-18.55,66.16-31.2s-43.28-25.94-66.16-31.19Z"/>
  <path class="cls-1" d="M368.04,143.85c-3.89-69.14-49.37-108.53-126.13-108.53s-122.24,39.39-126.14,108.53c23.33-7.89,69.07-17.04,126.14-17.04s102.8,9.15,126.13,17.04Z"/>
</svg>