<?xml version="1.0" encoding="UTF-8"?>
<svg id="Layer_1" data-name="Layer 1" xmlns="http://www.w3.org/2000/svg" viewBox="0 0 2000 1050">
  <defs>
    <style>
      .cls-1 {
        fill: #fff;
      }
    </style>
  </defs>
  <path class="cls-1" d="M1717.13,705.03c-195.64-44.95-450.32-69.7-717.13-69.7s-521.49,24.75-717.14,69.7C186.76,727.11,5,782.91,5,836.04s181.76,108.93,277.86,131.02c195.65,44.95,450.32,69.7,717.14,69.7s521.49-24.75,717.13-69.7c96.11-22.09,277.87-77.89,277.87-131.02s-181.76-108.93-277.87-131.01Z"/>
  <path class="cls-1" d="M1529.75,469.05C1513.4,178.67,1322.39,13.24,1000,13.24S486.6,178.67,470.25,469.05c98-33.12,290.1-71.55,529.76-71.55s431.76,38.43,529.75,71.55Z"/>
</svg>