<?xml version="1.0" encoding="UTF-8"?>
<svg id="Layer_1" data-name="Layer 1" xmlns="http://www.w3.org/2000/svg" viewBox="0 0 2000 480">
  <defs>
    <style>
      .cls-1 {
        fill: #fff;
      }
    </style>
  </defs>
  <path class="cls-1" d="M285.57,33.97c-17.63-9.45-36.77-15.8-57.39-19.02-20.64-3.22-40.63-4.84-59.99-4.84H5v451.39h66.42v-173.46h96.77c18.92,0,38.58-2.14,59-6.45,20.42-4.29,39.56-11.82,57.39-22.57,17.85-10.74,32.36-25.57,43.53-44.5,11.17-18.91,16.78-42.98,16.78-72.22s-5.5-50.62-16.46-68.03c-10.95-17.41-25.27-30.84-42.88-40.3ZM239.13,221.62c-21.93,15.05-52.65,22.57-92.21,22.57h-75.5V53.32h89.05c33.95,0,61.03,6.78,81.24,20.31,20.21,13.54,30.31,37.51,30.31,71.9s-10.95,61.05-32.88,76.09Z"/>
  <rect class="cls-1" x="399.05" y="10.11" width="60.62" height="451.39"/>
  <path class="cls-1" d="M671.18,130.7c-24.09,0-44.71,3.34-61.9,10-17.2,6.67-31.3,15.26-42.25,25.79-10.95,10.54-19.36,22.46-25.13,35.78-5.8,13.33-9.58,26.87-11.31,40.62h68.37c1.29-21.92,7.5-40.08,18.7-54.49,11.17-14.4,29.21-21.6,54.16-21.6,15.91,0,28.91,3.12,39.02,9.35,10.1,6.24,17.41,14.09,21.93,23.54,4.52,9.46,6.76,19.56,6.76,30.3,0,14.19-3.86,24.61-11.61,31.27-7.72,6.67-21.71,11.07-41.92,13.22l-72.86,7.74c-17.2,1.72-32.47,5.59-45.78,11.61-13.33,6.02-23.87,14.83-31.6,26.44-7.75,11.61-11.61,26.66-11.61,45.14,0,22.79,5.59,41.92,16.76,57.39,11.17,15.48,25.79,27.19,43.86,35.14,18.04,7.95,37.4,11.93,58.02,11.93s40.19-4.09,56.1-12.25c15.91-8.17,29.46-21.28,40.63-39.34l1.29,43.2h59.33v-210.86c0-39.11-10.87-68.89-32.55-89.31-21.71-20.41-53.85-30.63-96.4-30.63ZM740.8,339.63c0,18.92-3.75,35.14-11.28,48.68-7.53,13.55-17.63,23.86-30.31,30.95-12.68,7.1-26.97,10.64-42.88,10.64-22.37,0-38.91-5.59-49.64-16.77-10.76-11.17-16.13-25.15-16.13-41.91s4.52-28.58,13.53-36.76c9.04-8.16,23.66-13.32,43.86-15.48l59.33-6.45c6.43-.85,12.02-1.94,16.76-3.22,4.74-1.29,10.32-2.79,16.76-4.52v34.83Z"/>
  <path class="cls-1" d="M1121.9,191.32c-4.3-14.61-11.39-26.33-21.27-35.14-9.88-8.81-20.86-15.26-32.88-19.35-12.05-4.08-24.5-6.13-37.4-6.13s-26.23,2.16-38.69,6.45c-12.49,4.31-23.85,10.54-34.17,18.7-10.32,8.17-18.92,18.06-25.79,29.67v-46.43h-61.28v322.42h60.62v-169.6c0-14.61.55-27.08,1.62-37.4,1.07-10.32,2.9-19.77,5.48-28.37,4.74-14.61,13.96-27.3,27.74-38.04,13.74-10.74,29.43-16.12,47.06-16.12,13.74,0,24.29,2.16,31.6,6.45,7.31,4.3,12.68,10.32,16.13,18.06,3.42,6.88,5.37,14.83,5.8,23.85.41,9.03.66,18.93.66,29.67v211.51h59.96v-216.02c0-9.88-.33-19.34-.96-28.37-.66-9.03-2.05-17.62-4.22-25.79Z"/>
  <path class="cls-1" d="M1448.18,191.32c-4.3-14.61-11.39-26.33-21.27-35.14-9.88-8.81-20.86-15.26-32.88-19.35-12.05-4.08-24.5-6.13-37.4-6.13s-26.23,2.16-38.69,6.45c-12.49,4.31-23.85,10.54-34.17,18.7-10.32,8.17-18.92,18.06-25.79,29.67V10.11h-61.28v451.39h60.62v-169.6c0-14.61.55-27.08,1.62-37.4,1.07-10.32,2.9-19.77,5.48-28.37,4.74-14.61,13.96-27.3,27.74-38.04,13.74-10.74,29.43-16.12,47.06-16.12,13.74,0,24.29,2.16,31.6,6.45,7.31,4.3,12.68,10.32,16.13,18.06,3.42,6.88,5.37,14.83,5.81,23.85.41,9.03.66,18.93.66,29.67v211.51h59.96v-216.02c0-9.88-.33-19.34-.96-28.37-.66-9.03-2.05-17.62-4.22-25.79Z"/>
  <path class="cls-1" d="M1655.19,130.7c-24.09,0-44.71,3.34-61.9,10-17.19,6.67-31.3,15.26-42.25,25.79-10.95,10.54-19.36,22.46-25.13,35.78-5.8,13.33-9.58,26.87-11.31,40.62h68.37c1.29-21.92,7.5-40.08,18.7-54.49,11.17-14.4,29.21-21.6,54.16-21.6,15.91,0,28.91,3.12,39.02,9.35,10.1,6.24,17.41,14.09,21.93,23.54,4.52,9.46,6.76,19.56,6.76,30.3,0,14.19-3.86,24.61-11.61,31.27-7.72,6.67-21.71,11.07-41.92,13.22l-72.86,7.74c-17.19,1.72-32.47,5.59-45.78,11.61-13.33,6.02-23.87,14.83-31.6,26.44-7.75,11.61-11.61,26.66-11.61,45.14,0,22.79,5.59,41.92,16.76,57.39,11.17,15.48,25.79,27.19,43.86,35.14,18.04,7.95,37.4,11.93,58.02,11.93s40.19-4.09,56.1-12.25c15.91-8.17,29.46-21.28,40.63-39.34l1.29,43.2h59.33v-210.86c0-39.11-10.87-68.89-32.55-89.31-21.71-20.41-53.85-30.63-96.4-30.63ZM1724.82,339.63c0,18.92-3.75,35.14-11.28,48.68-7.53,13.55-17.63,23.86-30.31,30.95-12.68,7.1-26.97,10.64-42.88,10.64-22.37,0-38.91-5.59-49.64-16.77-10.76-11.17-16.13-25.15-16.13-41.91s4.52-28.58,13.53-36.76c9.04-8.16,23.66-13.32,43.86-15.48l59.33-6.45c6.43-.85,12.02-1.94,16.76-3.22,4.74-1.29,10.32-2.79,16.76-4.52v34.83Z"/>
  <path class="cls-1" d="M1995,176.48v-37.4h-67.05V62.99h-60.62v76.09h-54.16v37.4h54.16v223.76c0,12.48,1.83,23.22,5.48,32.25,3.67,9.03,9.69,16.12,18.07,21.28,8.38,5.15,19.66,7.73,33.84,7.73h70.28v-40.62h-44.49c-7.31,0-12.9-1.29-16.76-3.87-3.86-2.58-5.81-8.39-5.81-17.41v-223.12h67.05Z"/>
</svg>