<svg role="img" xmlns="http://www.w3.org/2000/svg" fill="currentColor" viewBox="0 0 192 192">
  <title>Google Slides</title>
  <path d="M12.591 63.318c-2.493-15.262 7.858-29.655 23.12-32.148l96.724-15.8c15.262-2.492 29.655 7.859 32.148 23.12l14.732 90.189c2.493 15.262-7.858 29.655-23.12 32.148l-96.724 15.8c-15.262 2.493-29.655-7.858-32.148-23.12z"/><path d="M12 61.6c0-8.943 0-13.415 1.405-16.962a20 20 0 0 1 11.233-11.233C28.185 32 32.656 32 41.6 32h108.8c8.943 0 13.415 0 16.962 1.404a20 20 0 0 1 11.234 11.234C180 48.185 180 52.657 180 61.6v68.8c0 8.943 0 13.415-1.404 16.962a20 20 0 0 1-11.234 11.234C163.815 160 159.343 160 150.4 160H41.6c-8.943 0-13.415 0-16.963-1.404a20 20 0 0 1-11.232-11.234C12 143.815 12 139.343 12 130.4z"/><g><path d="m33.74 191.516 144.396-21.58L153.304 3.781 8.907 25.361z"/><path d="m33.74 191.516 144.396-21.58L153.304 3.781 8.907 25.361z"/></g><path fill-rule="evenodd" d="M148 58a6 6 0 0 1 6 6v64a6 6 0 0 1-6 6H44l-.309-.008A6 6 0 0 1 38 128V64a6 6 0 0 1 5.691-5.992L44 58zm-98 64h92V70H50z" clip-rule="evenodd"/>
</svg>
