<svg version="1.2" xmlns="http://www.w3.org/2000/svg" viewBox="0 0 1619 502" width="1619" height="502">
	<title>Wisetech Global</title>
	<style>
		.s0 { fill: #000000 } 
	</style>
	<g id="Layer">
		<path id="Layer" fill-rule="evenodd" class="s0" d="m547 62l29.5 0.3l30.9 96.1l35.5-96.1h28.7l35 96.1l31.9-96.1h29.5l-47 135.4h-28l-36.1-96.8l-36.6 96.8h-28.4zm249.7-59.4c2.6-0.1 5.2 0.3 7.6 1.2c2.4 1 4.6 2.4 6.5 4.2c1.8 1.9 3.2 4.1 4.2 6.5c0.9 2.4 1.4 5 1.3 7.6c-0.2 5-2.4 9.8-6 13.3c-3.6 3.5-8.5 5.5-13.5 5.5c-5.1 0-9.9-2-13.6-5.5c-3.6-3.5-5.8-8.3-5.9-13.3c-0.1-2.6 0.3-5.2 1.2-7.6c1-2.4 2.4-4.6 4.2-6.4c1.9-1.9 4.1-3.3 6.5-4.3c2.4-0.9 5-1.3 7.5-1.2zm-14.6 59.7h29.3v135.3h-29.3zm43 107.5l26-14.1c7.9 12.8 19.5 19.5 35.7 19.5c16.8 0 25.5-8.1 25.5-17.6c0-11.1-16.2-13.5-33.6-17.3c-23-4.6-47.4-12.2-47.4-40.1c0-21.4 20.6-41.1 52.9-40.8c26.1 0 43.8 9.7 55.2 26.1l-24.4 13.3c-6.5-9.8-16.5-15.5-30.8-15.5c-16 0-23.6 7.3-23.6 16.3c0 9.7 11.7 11.9 32.2 16.5c22.8 4.9 48.5 12.4 48.5 40.9c0 20.3-18.1 43.6-55.8 43.3c-29.3 0.1-48.7-10.5-60.4-30.5zm127.2-39.3c0-39.7 30.6-70.9 70.5-70.9c39.8 0 69.6 29 69.6 69v11.4h-112.2c3.8 20.9 20.1 34.7 43.6 34.7c4.2 0.1 8.2-0.4 12.2-1.5c4-1 7.8-2.7 11.2-4.8c3.5-2.2 6.7-4.8 9.4-7.9c2.8-3 5-6.5 6.8-10.2l23.8 13.3c-11.9 22.2-33.3 36.8-63.4 36.8c-42.7 0-71.5-30.6-71.5-69.9zm29.3-15.1h81.2c-4.3-19.5-19.2-30.3-40-30.3c-4.6-0.1-9.2 0.5-13.6 1.9c-4.3 1.4-8.5 3.5-12.2 6.3c-3.6 2.7-6.9 6-9.5 9.8c-2.6 3.7-4.6 7.9-5.9 12.3zm117.9-53.1h23v-31.9l29.3-16v47.9h28.8v26h-28.8v53.9c0 24.4 3.8 28.1 28.8 28.1v27.4h-4.3c-41.2 0-53.7-13.1-53.7-55.2v-54.2h-23zm89.1 68.2c0-39.8 30.6-70.9 70.4-70.9c39.8 0 69.7 29 69.7 69v11.4h-112.2c3.8 20.9 20.1 34.7 43.6 34.7c4.1 0.1 8.2-0.4 12.2-1.5c4-1 7.7-2.7 11.2-4.8c3.5-2.2 6.7-4.8 9.4-7.9c2.7-3 5-6.5 6.8-10.2l23.8 13.3c-11.9 22.2-33.3 36.8-63.4 36.8c-42.8 0-71.5-30.6-71.5-69.9zm29.3-15.1h81.2c-4.3-19.5-19.2-30.4-40.1-30.4c-4.5 0-9.1 0.6-13.5 2c-4.4 1.4-8.5 3.5-12.2 6.3c-3.7 2.7-6.9 6-9.5 9.7c-2.6 3.8-4.6 8-5.9 12.4zm123.5 14.6c-0.2-9.3 1.6-18.5 5.1-27.1c3.5-8.6 8.7-16.4 15.3-23c6.6-6.5 14.4-11.7 23-15.2c8.7-3.5 17.9-5.2 27.2-5.1c30 0 53.8 17.1 64.2 41.4l-26 11.1c-1.5-3.8-3.6-7.3-6.2-10.5c-2.5-3.1-5.6-5.9-9-8.1c-3.4-2.3-7.1-4-11-5.2c-3.9-1.1-8-1.7-12-1.6c-24.1 0-42.3 19.2-42.3 43.3c-0.1 5.7 1 11.3 3.1 16.5c2.1 5.3 5.2 10.1 9.2 14.1c4 4.1 8.8 7.3 14 9.4c5.2 2.2 10.8 3.3 16.5 3.3c18.3 0 32-11.4 38.2-26.5l26.2 11.1c-10.9 24.9-33.4 42.5-65 42.5c-9.3 0.1-18.5-1.7-27.1-5.2c-8.6-3.5-16.4-8.7-23-15.2c-6.5-6.6-11.7-14.4-15.2-23c-3.6-8.5-5.3-17.7-5.2-27zm152.1-130h28.8v79.4c2.4-3.2 5.3-6 8.4-8.5c3.1-2.5 6.5-4.6 10.1-6.3c3.6-1.7 7.4-3 11.3-3.8c3.9-0.9 7.9-1.3 11.9-1.2c34.1 0 54.9 22.2 54.9 59v79.1h-29.6v-76.4c0-22.5-10.8-36.6-32.7-36.6c-19.3 0-34 14.6-34 38.5v74.5h-29.1zm-1493.5 237.4h39.6v118.7h-39.6zm158.4 79.2h39.5v118.7h-39.5zm277-79.2v118.7h-39.6v-118.7zm-435.4-237.4h39.6v197.8h-39.6zm79.2 0h39.6v197.8h-39.6zm79.2 0h39.5v197.8h-39.5zm79.1 237.5h39.6v197.8h-39.6zm79.2-237.1h39.5v197.8h-39.5zm237.5 367.2c0-43.4 32.3-70.5 67.8-70.5c4.3 0 8.6 0.4 12.7 1.4c4.2 0.9 8.3 2.3 12.2 4.1c3.9 1.8 7.5 4.1 10.9 6.7c3.4 2.6 6.5 5.7 9.2 9v-18.3h29v132.2c0 39.9-24.9 69.1-68.3 69.1c-34 0-56.9-16.2-67.2-38.2l26.8-12.7c6.8 14.9 19.8 24.4 40.4 24.4c24.7 0 39.6-18.2 39.6-41.5v-17.1c-2.7 3.5-5.8 6.6-9.2 9.3c-3.4 2.7-7.1 5.1-11.1 7c-3.9 1.8-8 3.3-12.3 4.3c-4.3 0.9-8.6 1.4-13 1.4c-34.4-0.2-67.5-27.6-67.5-70.6zm114.4-0.3c0-24.1-18.3-43.9-42.8-43.9c-24.2 0-42.9 19.3-42.9 43.9c0 24.7 18.7 44.2 42.9 44.2c24.6 0 42.8-19.8 42.8-44.2zm53-129.8h29.1v197.8h-29.1zm48.1 130.1c0-28.4 17.2-54.1 43.5-64.9c26.3-10.8 56.6-4.8 76.7 15.4c20 20.1 26 50.4 15.1 76.7c-11 26.2-36.7 43.3-65.1 43.3c-9.3 0-18.5-1.8-27-5.3c-8.6-3.5-16.4-8.7-22.9-15.3c-6.5-6.5-11.7-14.3-15.2-22.9c-3.5-8.6-5.2-17.7-5.1-27zm111.9 0c0-23.8-18.4-43.3-41.8-43.3c-23.4 0-41.5 19.5-41.5 43.3c0 23.9 18.1 43.4 41.5 43.4c23.3 0 41.8-19.5 41.8-43.4zm76.3 49.3v18.3h-28.5v-197.7h28.8v80.5c2.7-3.3 5.8-6.3 9.2-8.9c3.4-2.6 7-4.8 10.9-6.6c3.9-1.9 8-3.2 12.1-4.1c4.2-0.9 8.5-1.4 12.8-1.3c35.5 0 67.5 27.1 67.5 70.6c0 43.5-32.8 70.4-67.2 70.4c-18.2 0-35.6-7.9-45.6-21.2zm84-49.6c0-24.7-18.7-43.9-42.8-43.9c-24.1 0-42.6 19.7-42.6 43.9c0 24.1 18.2 44.1 42.6 44.1c24.4 0 42.8-19.4 42.8-44.1zm41.2 0.4c0-43.4 32.3-70.5 67.8-70.5c17.9 0 35 7.9 45 20.4v-17.7h29v135.5h-29v-18.7c-2.7 3.4-5.8 6.4-9.2 9.1c-3.4 2.7-7 5-11 6.8c-3.9 1.9-8 3.3-12.2 4.2c-4.2 0.9-8.5 1.4-12.8 1.3c-34.5 0-67.6-27.4-67.6-70.4zm114.5-0.3c0-24.1-18.4-43.9-42.9-43.9c-24.1 0-42.8 19.3-42.8 43.9c0 24.7 18.7 44.2 42.8 44.2c24.7 0 42.9-19.8 42.9-44.2zm52.7-129.8h29v197.8h-29z" />
	</g>
	<path id="Layer" class="s0" d="m0 237.4h39.6v118.7h-39.6zm158.3 79.2h39.6v118.7h-39.6zm277.1-79.2v118.7h-39.6v-118.7zm-435.4-237.4h39.6v197.8h-39.6zm79.1 0h39.6v197.8h-39.6zm79.2 0h39.6v197.9h-39.6zm79.2 237.4h39.6v197.9h-39.6zm79.1-237.2h39.6v197.8h-39.6z" />
</svg>
