<svg version="1.2" xmlns="http://www.w3.org/2000/svg" viewBox="0 0 1619 502" width="1619" height="502">
	<title>Wisetech Global</title>
	<style>
		.s0 { fill: #1d1765 } 
	</style>
	<g id="Layer">
		<path id="Layer" class="s0" d="m547 62l29.5 0.3l30.9 96.1l35.5-96.1h28.7l35 96.1l31.9-96.1h29.5l-47 135.4h-28l-36.1-96.8l-36.6 96.8h-28.4z" />
		<path id="Layer" class="s0" d="m796.7 2.6c2.6-0.1 5.2 0.3 7.6 1.3c2.4 0.9 4.6 2.4 6.4 4.2c1.8 1.8 3.3 4 4.2 6.4c1 2.4 1.4 5 1.3 7.6c-0.2 5.1-2.3 9.8-6 13.3c-3.6 3.6-8.5 5.5-13.5 5.5c-5.1 0-9.9-1.9-13.5-5.5c-3.7-3.5-5.8-8.2-6-13.3c-0.1-2.6 0.3-5.1 1.3-7.6c0.9-2.4 2.3-4.6 4.2-6.4c1.8-1.8 4-3.3 6.4-4.2c2.4-0.9 5-1.4 7.6-1.3zm-14.7 59.7h29.3v135.4h-29.3z" />
		<path id="Layer" class="s0" d="m825.1 169.8l26-14.1c7.8 12.8 19.4 19.5 35.7 19.5c16.8 0 25.5-8.1 25.5-17.6c0-11.1-16.3-13.5-33.6-17.3c-23-4.6-47.4-12.2-47.4-40.1c0-21.4 20.6-41.1 52.8-40.8c26.1 0 43.9 9.7 55.2 26.1l-24.3 13.3c-6.5-9.8-16.5-15.5-30.9-15.5c-16 0-23.5 7.3-23.5 16.3c0 9.7 11.6 11.9 32.2 16.5c22.7 4.9 48.5 12.4 48.5 40.9c0 20.3-18.2 43.6-55.8 43.3c-29.3 0.1-48.8-10.5-60.4-30.5z" />
		<path id="Layer" fill-rule="evenodd" class="s0" d="m952.3 130.5c0-39.7 30.6-70.9 70.4-70.9c39.8 0 69.6 29 69.6 69v11.4h-112.1c3.8 20.9 20 34.7 43.6 34.7c4.1 0.1 8.2-0.4 12.1-1.5c4-1 7.8-2.7 11.3-4.8c3.5-2.2 6.6-4.8 9.4-7.9c2.7-3 5-6.5 6.7-10.2l23.9 13.3c-12 22.2-33.4 36.8-63.4 36.8c-42.8 0-71.5-30.6-71.5-69.9zm29.2-15.1h81.3c-4.4-19.5-19.2-30.3-40.1-30.3c-4.6-0.1-9.2 0.5-13.5 1.9c-4.4 1.4-8.5 3.5-12.2 6.3c-3.7 2.7-6.9 6-9.6 9.7c-2.6 3.8-4.6 8-5.9 12.4z" />
		<path id="Layer" class="s0" d="m1099.5 62.3h23v-31.9l29.2-16v47.9h28.8v26h-28.8v53.9c0 24.3 3.8 28.1 28.8 28.1v27.4h-4.3c-41.2 0-53.6-13.1-53.6-55.2v-54.2h-23.1z" />
		<path id="Layer" fill-rule="evenodd" class="s0" d="m1188.6 130.5c0-39.7 30.6-70.9 70.4-70.9c39.8 0 69.7 29 69.7 69v11.4h-112.2c3.8 20.9 20 34.7 43.6 34.7c4.1 0.1 8.2-0.4 12.2-1.5c3.9-1 7.7-2.7 11.2-4.8c3.5-2.2 6.6-4.8 9.4-7.9c2.7-3 5-6.5 6.7-10.2l23.8 13.3c-11.9 22.2-33.3 36.8-63.3 36.8c-42.8 0-71.5-30.6-71.5-69.9zm29.2-15.1h81.3c-4.3-19.5-19.2-30.3-40.1-30.3c-4.6-0.1-9.2 0.5-13.5 1.9c-4.4 1.4-8.5 3.5-12.2 6.3c-3.7 2.7-6.9 6-9.6 9.8c-2.6 3.7-4.6 7.9-5.9 12.3z" />
		<path id="Layer" class="s0" d="m1341.3 130c-0.1-9.3 1.7-18.5 5.2-27.1c3.5-8.6 8.7-16.4 15.3-23c6.6-6.5 14.4-11.7 23-15.2c8.6-3.5 17.8-5.2 27.1-5.1c30.1 0 53.9 17.1 64.2 41.4l-26 11.1c-1.5-3.7-3.6-7.3-6.1-10.4c-2.6-3.2-5.6-6-9-8.2c-3.4-2.3-7.1-4-11-5.2c-3.9-1.1-8-1.7-12.1-1.6c-24.1 0-42.2 19.2-42.2 43.3c-0.1 5.7 0.9 11.3 3.1 16.6c2.1 5.2 5.2 10 9.2 14c4 4.1 8.7 7.3 14 9.4c5.2 2.2 10.8 3.3 16.5 3.3c18.3 0 31.9-11.4 38.2-26.5l26.1 11.1c-10.8 24.9-33.3 42.5-65 42.5c-9.3 0.1-18.5-1.7-27-5.2c-8.6-3.5-16.4-8.7-23-15.2c-6.6-6.6-11.8-14.4-15.3-23c-3.5-8.5-5.3-17.7-5.2-27z" />
		<path id="Layer" class="s0" d="m1493.5 0h28.7v79.4c2.5-3.2 5.3-6 8.4-8.5c3.2-2.5 6.6-4.6 10.2-6.3c3.6-1.7 7.4-3 11.3-3.8c3.9-0.9 7.9-1.3 11.8-1.2c34.2 0 55 22.2 55 59v79.1h-29.6v-76.4c0-22.4-10.8-36.6-32.8-36.6c-19.2 0-34 14.7-34 38.5v74.5h-29z" />
	</g>
	<path id="Layer" class="s0" d="m0 237.4h39.6v118.7h-39.6zm158.3 79.2h39.6v118.7h-39.6zm277.1-79.2v118.7h-39.6v-118.7zm-435.4-237.4h39.6v197.8h-39.6zm79.1 0h39.6v197.8h-39.6zm79.2 0h39.6v197.9h-39.6zm79.2 237.4h39.6v197.9h-39.6zm79.1-237.2h39.6v197.8h-39.6z" />
	<g id="Layer">
		<path id="Layer" fill-rule="evenodd" class="s0" d="m554.1 367.5c0-43.3 32.3-70.5 67.8-70.5c4.3 0 8.6 0.5 12.8 1.4c4.2 0.9 8.3 2.3 12.2 4.1c3.8 1.8 7.5 4.1 10.9 6.7c3.4 2.7 6.4 5.7 9.2 9v-18.3h29v132.2c0 39.9-25 69.1-68.4 69.1c-34 0-56.9-16.2-67.2-38.2l26.9-12.7c6.7 14.9 19.8 24.4 40.3 24.4c24.7 0 39.6-18.2 39.6-41.5v-17c-2.7 3.4-5.8 6.5-9.2 9.2c-3.4 2.7-7.1 5.1-11 7c-3.9 1.9-8.1 3.3-12.3 4.3c-4.3 0.9-8.7 1.4-13 1.4c-34.5-0.1-67.6-27.6-67.6-70.6zm114.5-0.3c0-24.1-18.3-43.9-42.9-43.9c-24.1 0-42.8 19.3-42.8 43.9c0 24.7 18.7 44.2 42.8 44.2c24.7 0 42.9-19.8 42.9-44.2z" />
		<path id="Layer" class="s0" d="m721.5 237.4h29.2v197.8h-29.2z" />
		<path id="Layer" fill-rule="evenodd" class="s0" d="m769.6 367.5c0.1-28.4 17.3-54.1 43.6-64.9c26.3-10.8 56.5-4.8 76.6 15.4c20.1 20.1 26.1 50.4 15.1 76.7c-10.9 26.2-36.6 43.3-65.1 43.3c-9.2 0-18.4-1.8-27-5.3c-8.5-3.5-16.3-8.7-22.8-15.3c-6.6-6.5-11.7-14.3-15.2-22.9c-3.5-8.6-5.3-17.7-5.2-27zm112 0c0-23.8-18.5-43.3-41.9-43.3c-23.4 0-41.4 19.5-41.4 43.3c0 23.9 18.1 43.4 41.4 43.4c23.4 0 41.9-19.5 41.9-43.4z" />
		<path id="Layer" fill-rule="evenodd" class="s0" d="m957.8 416.8v18.3h-28.4v-197.7h28.7v80.5c2.8-3.3 5.8-6.3 9.2-8.9c3.4-2.6 7.1-4.8 11-6.6c3.8-1.9 7.9-3.2 12.1-4.1c4.2-0.9 8.4-1.4 12.7-1.3c35.5 0 67.5 27.1 67.5 70.6c0 43.5-32.8 70.4-67.2 70.4c-18.2 0-35.5-7.9-45.6-21.2zm84.1-49.6c0-24.7-18.7-43.9-42.9-43.9c-24.1 0-42.5 19.7-42.5 43.9c0 24.1 18.1 44.1 42.5 44.1c24.4 0 42.9-19.4 42.9-44.1z" />
		<path id="Layer" fill-rule="evenodd" class="s0" d="m1083.1 367.5c0-43.3 32.3-70.5 67.8-70.5c17.9 0 34.9 7.9 45 20.4v-17.6h29v135.4h-29v-18.6c-2.7 3.3-5.8 6.4-9.2 9c-3.4 2.7-7.1 5-11 6.8c-3.9 1.9-8 3.3-12.2 4.2c-4.2 1-8.6 1.4-12.9 1.4c-34.4 0-67.5-27.5-67.5-70.5zm114.4-0.3c0-24.1-18.3-43.9-42.8-43.9c-24.1 0-42.8 19.3-42.8 43.9c0 24.7 18.7 44.2 42.8 44.2c24.6 0 42.8-19.8 42.8-44.2z" />
		<path id="Layer" class="s0" d="m1250.2 237.4h29v197.8h-29z" />
	</g>
	<path id="Layer" class="s0" d="m0 237.4h39.6v118.7h-39.6zm158.3 79.2h39.6v118.7h-39.6zm277.1-79.2v118.7h-39.6v-118.7zm-435.4-237.4h39.6v197.8h-39.6zm79.1 0h39.6v197.8h-39.6zm79.2 0h39.6v197.9h-39.6zm79.2 237.4h39.6v197.9h-39.6zm79.1-237.2h39.6v197.8h-39.6z" />
</svg>
