<svg version="1.2" xmlns="http://www.w3.org/2000/svg" viewBox="0 0 1705 1413" width="1705" height="1413">
	<title>Nextera Energy</title>
	<style>
		.s0 { fill: #000000 } 
	</style>
	<g>
		<path class="s0" d="m1034.6 95c0 0 26.2 72 29.4 170.3l-435.6 507.2 602.6-454.9 29.6 140.8c0 0-458.5 520.4-569.9 667.6 0 0 584.5-483.3 911.1-678.6-144.1-266-425.7-446.7-749.8-446.7-470.5 0-852 381.4-852 851.6 0 13.1 1.3 25.7 1.9 38.7 189.3-164 699.2-596.5 1032.7-796zm669.5 777.8c0-84.8-12.7-166.5-35.8-243.9-196.7 104.5-664 363.2-999.4 633.4q105.9 14.6 211.6 31.3 105.7 16.7 211 35.5 105.3 18.8 210.2 39.7 105 20.8 209.4 43.8c31-37.7 58.7-77.9 82.7-120.3 24.1-42.5 44.4-86.9 60.9-132.8 16.4-45.9 28.8-93.2 37.1-141.2 8.3-48 12.5-96.7 12.4-145.5"/>
		<path class="s0" d="m1050.9 580.3c0 0-481.4 373.1-547 435.3l-65.4-121c0 0 330.7-412.4 438.8-520.5 0 0-589 419.1-859.6 672.3 10.8 51.9 26.5 101.9 46.3 149.9 145.1 11.6 291.9 26.5 440.5 44.6 10.4-12.6 488.1-586.1 546.4-660.6z"/>
	</g>
</svg>