<svg version="1.2" xmlns="http://www.w3.org/2000/svg" viewBox="0 0 1682 736" width="1682" height="736">
	<title>Nextera Energy</title>
	<style>
		.s0 { fill: #000000 } 
	</style>
	<g>
		<path fill-rule="evenodd" class="s0" d="m0.7 463.8v-195.2h155.3v15.5h-138.1v70.9h132.5v15.5h-132.5v77.8h139.7v15.5zm334.4 0l-139.1-169.6v169.6h-17.1v-195.2h19l139.1 169.6v-169.6h17.2v195.2zm51.5 0v-195.2h155.3v15.5h-138.1v70.9h132.5v15.5h-132.5v77.8h139.7v15.5zm330.5-0.6c-4.9-5.2-5.1-16.8-6.1-46-0.4-16.4-3.3-26.1-10-31.8-6.6-5.8-18.1-8.3-36.7-8.3h-82.4v86.7h-17.1v-195.2h99.8c18.5 0 35 2.6 47.1 10.6 12.3 8 19.6 21.7 19.6 42.2 0 18.5-10.2 38.5-32.5 47.1 18.8 5.5 29.1 21.2 29.3 40.1 0.5 34.6 1.7 45.6 5 51.6l1.9 3.6h-17.2zm-54.7-101.5c6 0 19.2-0.1 30.6-5.3 11.4-5.2 21-14.8 21.1-35.7-0.1-29.2-21.7-36.3-48.5-36.5h-83.7v77.5h80.5z"/>
		<path class="s0" d="m156.2 200.1l-139.1-169.6v169.6h-17.1v-195.2h19l139.2 169.6v-169.6h17.1v195.2zm51.6 0v-195.2h155.2v15.5h-138.1v70.9h132.5v15.5h-132.5v77.8h139.7v15.5zm337.2-195.2h175.9v15.5h-76.9v179.7h-17.1v-179.7h-76.8v-15.4l-79.8 95.9 82.6 99.2h-22.6l-71.4-86.1-72.2 86.1h-21.8l82.8-99.2-79.9-96h22.9l68.2 82.6 69.5-82.6z"/>
		<path class="s0" d="m1372.1 267.2c0 0 4.7 12.9 5.2 30.4l-77.9 90.8 107.8-81.4 5.3 25.2c0 0-82 93.1-101.9 119.5 0-0.1 104.5-86.5 162.9-121.5-25.7-47.6-76.1-79.9-134.1-79.9-84.1 0-152.4 68.2-152.4 152.4 0 2.3 0.2 4.6 0.3 6.9 33.9-29.3 125.1-106.7 184.8-142.4zm119.8 139.2c0-15.2-2.3-29.8-6.5-43.7-35.1 18.7-118.7 65-178.7 113.3q18.9 2.6 37.8 5.6 18.9 3 37.8 6.4 18.8 3.3 37.6 7.1 18.7 3.7 37.4 7.8c5.6-6.7 10.5-13.9 14.8-21.5 4.3-7.6 8-15.5 10.9-23.8 2.9-8.2 5.2-16.6 6.6-25.2 1.5-8.6 2.3-17.3 2.2-26z"/>
		<path class="s0" d="m1375 354c0 0-86.1 66.8-97.9 77.9l-11.7-21.7c0 0 59.2-73.8 78.5-93.1 0 0-105.3 75-153.7 120.3 1.9 9.3 4.7 18.2 8.3 26.8q38.9 3.1 78.7 8c1.9-2.2 87.3-104.9 97.8-118.2z"/>
		<path class="s0" d="m856.2 468.1c-29.4 0-55.4-9.3-74-26.8-18.6-17.5-29.8-43.1-29.8-75.1 0.1-23.6 8.1-49 25.1-68.6 17-19.6 43.2-33.3 78.7-33.3 47.4-0.1 83.3 23.7 92.8 65.9l0.7 3h-17.3l-0.4-1.9c-7.7-33.9-38.3-51.4-75.8-51.5-53.1 0.1-86.5 39.6-86.6 86.4 0.1 46.7 29.5 86.2 86.6 86.3 46.1-0.1 75.6-27.3 79.5-73h-76.3v-15.5h93.8l-0.1 2.6c-0.8 15.9-5.6 36.3-10.2 49.3-14.8 35.1-49.4 52.2-86.5 52.2zm197.7-8.8c-3.3 0-6.7-0.1-10-0.1h-2.2-2.5v-77l-90.9-113.6h23.3l76.2 97.4 77.8-97.4h21.6l-90.8 113.6v77.1h-2.5z"/>
		<path class="s0" d="m1451.2 509.9q-19-4.1-38.1-7.9-19-3.7-38.2-7.1-19.1-3.3-38.3-6.3-19.2-2.9-38.5-5.5-7.7-1.1-15.5-2c-27.1-3.4-53.9-6.2-80.4-8.4q-19-1.5-38.2-2.7-19.1-1.2-38.2-2-19.2-0.8-38.3-1.2-19.2-0.4-38.3-0.4h-0.1c-490.8 0-848 193.9-968 269 389.6-175.7 752.8-226.7 1043.4-226.7 248.8 0 444.4 37.4 557.7 66.1q-28.4-9.8-57-18.8-28.6-9-57.5-17.1-28.9-8.1-58.1-15.4-29.1-7.2-58.4-13.6z"/>
		<path fill-rule="evenodd" class="s0" d="m927 115.3h-162.1c1.5 19.5 14 54.1 58.4 54.1 29.5 0 42.4-11.6 51.2-27.4h48.6c-9.7 21.2-33 63.4-98.5 63.4-77.5 0-106.4-50.1-106.4-100.9 0-63.8 42.5-104.5 103.4-104.5 76.2 0 105.4 52.3 105.4 108.1zm-46.7-31.7c-5.5-38.2-36-49.7-58-49.7-20.7 0-49.9 10.8-57.4 49.7zm391.9 81.7c2.6 0.6 3.6 1 9.5 1.5l-0.1 34.3c-5.9 0.8-18.5 1.4-25.8 1.4-28.8 0-32-17.1-33.3-24.2-8.7 9.2-30.2 26-80 26-44.3 0-69.3-22.1-69.3-59.2 0-52.1 48.2-56.8 76.4-59.6 63.5-6.8 70.3-9.3 70.3-23.9 0-21.8-22.5-27.1-48.1-27.1-29.3 0-45 10.3-46.6 31.4h-43.3c6.4-49.6 39.5-64.9 89.9-64.9 88.9 0 91.4 38.8 91.4 63.4v89.6c0 10.3 5.2 10.3 9 11.3zm-53.3-62.3c-12.8 6.1-26.6 7.8-58 11.8-33.4 4.2-41.5 12.4-41.5 28.5 0 25 20.6 29.6 35.6 29.6 23.8 0 63.9-10 63.9-51.7zm-146.4-101.2l-0.2 45.8c-3.9-0.4-16.8-0.5-20.3-0.5-23.1 0-55.9 13.6-55.9 58.8v94.1h-45.6v-194.8h45.6v37.8h0.7c12.2-22 31.1-43 66.1-43 7 0 3.7 0.7 9.6 1.8z"/>
	</g>
</svg>