<svg xmlns="http://www.w3.org/2000/svg" fill="none" viewBox="4.45 4.15 267.9 31.4"><g clip-path="url(#a)"><path fill="#fbbc04" d="m11.081 30.527-4.72 4.721a.933.933 0 0 1-1.317 0l-.292-.292a.933.933 0 0 1 0-1.316l4.72-4.721a.933.933 0 0 1 1.318 0l.291.291a.93.93 0 0 1 0 1.317"/><path fill="#4285f4" d="M23.75 32.5h6.042a6.04 6.04 0 0 0 6.041-6.042v-16.25a6.04 6.04 0 0 0-6.041-6.041 6.04 6.04 0 0 0-6.042 6.041z"/><path fill="#fbbc04" d="M13.75 32.5a6.04 6.04 0 0 0 6.042-6.042 6.04 6.04 0 0 0-6.042-6.041 6.04 6.04 0 0 0-6.042 6.041A6.04 6.04 0 0 0 13.75 32.5"/><path fill="#34a853" d="M27.97 32.5h-5.887a6.04 6.04 0 0 1-6.041-6.042v-7.916a6.04 6.04 0 0 1 6.041-6.042 6.04 6.04 0 0 1 6.042 6.042v13.804a.154.154 0 0 1-.154.154z"/><path fill="#1967d2" d="M28.125 32.346V18.542a6.04 6.04 0 0 0-4.375-5.807V32.5h4.22a.154.154 0 0 0 .155-.154"/><path fill="#ea4335" d="M19.792 26.575a6.04 6.04 0 0 0-3.75-5.59v5.59c0 1.72.72 3.273 1.875 4.373a6.02 6.02 0 0 0 1.875-4.373"/></g><path fill="#5f6368" d="M136.949 24.423q0 2.107-1.543 3.385-1.566 1.255-3.802 1.255-1.99 0-3.511-1.163-1.52-1.163-2.102-3.176l1.968-.805q.2.717.559 1.297.357.582.839.995.48.414 1.062.649t1.23.235q1.408 0 2.304-.727.894-.728.894-1.934 0-1.007-.738-1.722-.693-.694-2.594-1.342-1.923-.693-2.393-.94-2.549-1.296-2.549-3.823 0-1.767 1.409-3.02 1.43-1.251 3.511-1.252 1.834 0 3.175.94 1.342.917 1.789 2.303l-1.923.805a2.84 2.84 0 0 0-1.062-1.487q-.794-.592-1.935-.592-1.207 0-2.035.668-.827.624-.827 1.625 0 .825.649 1.425.714.601 3.108 1.425 2.438.83 3.477 2.029 1.041 1.199 1.041 2.947zm6.686 4.639q-2.415 0-3.981-1.655-1.565-1.654-1.565-4.181c0-2.527.507-3.06 1.521-4.17q1.52-1.666 3.891-1.666c1.58 0 2.918.525 3.88 1.576q1.442 1.576 1.442 4.416l-.022.224h-8.61q.045 1.61 1.074 2.594a3.43 3.43 0 0 0 2.459.984q1.968 0 3.086-1.968l1.834.894a5.46 5.46 0 0 1-2.046 2.17q-1.308.782-2.963.782m-3.287-7.156h6.284a2.73 2.73 0 0 0-.928-1.89q-.839-.748-2.248-.748-1.163 0-2.002.715-.838.716-1.106 1.923m14.05-4.517q2.28 0 3.6 1.219 1.319 1.22 1.319 3.343v6.753h-1.967v-1.52h-.09q-1.275 1.878-3.399 1.878-1.812 0-3.03-1.073-1.22-1.073-1.219-2.684 0-1.699 1.285-2.706 1.286-1.006 3.433-1.006 1.834 0 3.019.671v-.47q0-1.073-.85-1.822t-1.99-.75q-1.722 0-2.728 1.454l-1.812-1.14q1.498-2.147 4.428-2.147zm-2.661 7.961q0 .805.682 1.342.681.537 1.599.537 1.296 0 2.314-.962 1.017-.96 1.018-2.259-.962-.76-2.684-.76-1.253 0-2.091.604t-.839 1.498zm11.594 3.354h-2.057V17.747h1.968v1.789h.089q.314-.872 1.286-1.487.973-.615 1.912-.615c.626 0 1.103.09 1.521.268l-.626 1.99q-.381-.156-1.208-.156-1.163 0-2.024.94a3.14 3.14 0 0 0-.861 2.19zm10.238.358q-2.438 0-4.048-1.655-1.588-1.699-1.588-4.181c0-1.655.529-3.079 1.588-4.182q1.61-1.655 4.048-1.655 1.677 0 2.929.839 1.252.838 1.879 2.314l-1.879.783q-.872-2.058-3.063-2.058-1.41 0-2.438 1.141-1.006 1.14-1.006 2.818c0 1.678.335 2.057 1.006 2.817q1.028 1.14 2.438 1.14 2.257 0 3.175-2.057l1.834.783q-.605 1.476-1.89 2.314-1.285.84-2.985.84zm6.131-16.369h2.057v5.054l-.089 1.52h.089q.47-.804 1.443-1.341a4.14 4.14 0 0 1 2.024-.537q2.012 0 3.097 1.152t1.084 3.276v6.887h-2.057V22.22q0-2.952-2.616-2.952-1.254 0-2.114 1.04-.861 1.04-.861 2.427v5.97H179.7zm24.934 16.369q-3.556 0-5.949-2.393-2.37-2.392-2.37-5.97t2.37-5.949q2.37-2.415 5.949-2.415c2.385 0 4.375.872 5.881 2.616l-1.476 1.432q-1.722-2.08-4.405-2.08c-1.789 0-3.258.596-4.45 1.789q-1.767 1.767-1.767 4.607t1.767 4.606q1.788 1.79 4.45 1.79 2.795 0 4.852-2.349l1.499 1.454a7.8 7.8 0 0 1-2.796 2.113 8.5 8.5 0 0 1-3.555.75zm7.144-5.836q0-2.527 1.588-4.182 1.61-1.655 4.048-1.655t4.025 1.655q1.61 1.654 1.61 4.182c0 1.684-.537 3.093-1.61 4.181q-1.589 1.656-4.025 1.655-2.438 0-4.048-1.655-1.588-1.654-1.588-4.181m2.058 0q0 1.767 1.028 2.862t2.55 1.096q1.52 0 2.549-1.096 1.028-1.095 1.029-2.862c0-1.178-.344-2.11-1.029-2.84q-1.052-1.119-2.549-1.119-1.498 0-2.55 1.119-1.029 1.095-1.028 2.84m10.673-5.479h1.968v1.52h.09q.47-.804 1.442-1.341a4.14 4.14 0 0 1 2.024-.537q2.013 0 3.097 1.152t1.085 3.276v6.887h-2.058v-6.753q-.067-2.684-2.706-2.684-1.23 0-2.057.995-.827.996-.827 2.382v6.06h-2.058V17.746zm20.01 7.916q0 1.432-1.252 2.415t-3.153.984q-1.656 0-2.907-.86a4.73 4.73 0 0 1-1.789-2.27l1.833-.783q.403.983 1.174 1.532a2.85 2.85 0 0 0 1.689.547q.984.001 1.643-.424.66-.425.66-1.007 0-1.05-1.61-1.543l-1.878-.47q-3.199-.804-3.198-3.085 0-1.498 1.219-2.404 1.218-.906 3.119-.905 1.453 0 2.628.693 1.175.692 1.643 1.856l-1.833.76a2.3 2.3 0 0 0-1.018-1.084 3.2 3.2 0 0 0-1.576-.392q-.805 0-1.443.403-.637.402-.637.984 0 .939 1.767 1.341l1.655.425q3.264.805 3.265 3.288zm.773-2.437q0-2.527 1.588-4.182 1.61-1.655 4.048-1.655t4.025 1.655q1.61 1.654 1.61 4.182c0 1.684-.537 3.093-1.61 4.181q-1.589 1.656-4.025 1.655-2.438 0-4.048-1.655-1.588-1.654-1.588-4.181m2.058 0q0 1.767 1.028 2.862t2.55 1.096q1.52 0 2.549-1.096 1.028-1.095 1.029-2.862c0-1.178-.344-2.11-1.029-2.84q-1.052-1.119-2.549-1.119-1.498 0-2.55 1.119-1.029 1.095-1.028 2.84m12.758-10.533v16.011h-2.058V12.693zm7.032 16.369q-2.415 0-3.98-1.655-1.566-1.654-1.566-4.181c0-2.527.507-3.06 1.521-4.17q1.521-1.666 3.891-1.666c1.581 0 2.919.525 3.88 1.576q1.443 1.576 1.442 4.416l-.022.224h-8.609q.044 1.61 1.073 2.594a3.43 3.43 0 0 0 2.46.984q1.967 0 3.086-1.968l1.834.894a5.46 5.46 0 0 1-2.046 2.17q-1.309.782-2.963.782zm-3.287-7.156h6.284a2.73 2.73 0 0 0-.928-1.89q-.838-.748-2.248-.748-1.163 0-2.001.715-.839.715-1.107 1.923m-206.276-.224v-2.476h8.287c.084.437.134.956.134 1.518 0 1.857-.508 4.156-2.144 5.792-1.59 1.658-3.624 2.542-6.32 2.542-4.995 0-9.194-4.067-9.194-9.064 0-4.995 4.2-9.063 9.194-9.063 2.762 0 4.73 1.083 6.21 2.498l-1.746 1.747c-1.061-.995-2.497-1.769-4.464-1.769-3.647 0-6.498 2.94-6.498 6.588s2.851 6.588 6.498 6.588c2.365 0 3.713-.95 4.575-1.813.702-.702 1.164-1.71 1.344-3.087zm21.049 1.541c0 3.36-2.63 5.836-5.856 5.836s-5.857-2.476-5.857-5.837 2.63-5.836 5.857-5.836c3.226 0 5.856 2.454 5.856 5.837m-2.563 0c0-2.1-1.525-3.537-3.293-3.537s-3.293 1.436-3.293 3.537 1.525 3.536 3.293 3.536 3.293-1.459 3.293-3.537zm15.34 0c0 3.36-2.63 5.836-5.857 5.836s-5.857-2.476-5.857-5.837 2.63-5.836 5.857-5.836 5.857 2.454 5.857 5.837m-2.564 0c0-2.1-1.524-3.537-3.292-3.537s-3.294 1.436-3.294 3.537 1.525 3.536 3.294 3.536c1.768 0 3.292-1.459 3.292-3.537zm14.81-5.483v10.478c0 4.31-2.541 6.08-5.547 6.08-2.83 0-4.53-1.902-5.172-3.449l2.232-.929c.398.95 1.37 2.078 2.94 2.078 1.923 0 3.116-1.194 3.116-3.426v-.84h-.088c-.575.707-1.68 1.326-3.072 1.326-2.918 0-5.592-2.542-5.592-5.814s2.674-5.858 5.592-5.858c1.392 0 2.497.619 3.072 1.304h.088v-.95zm-2.254 5.504c0-2.056-1.37-3.559-3.117-3.559s-3.248 1.503-3.248 3.56c0 2.055 1.48 3.514 3.248 3.514s3.117-1.48 3.117-3.515m6.596-11.636v17.097h-2.563V11.608zm9.9 13.537 1.989 1.326c-.641.951-2.188 2.587-4.862 2.587-3.315 0-5.791-2.565-5.791-5.836 0-3.471 2.498-5.837 5.503-5.837s4.509 2.41 4.995 3.714l.265.663-7.802 3.228c.597 1.172 1.526 1.769 2.829 1.769s2.211-.642 2.874-1.614m-6.122-2.1 5.215-2.166c-.287-.73-1.149-1.238-2.165-1.238-1.304 0-3.117 1.15-3.05 3.405z"/><defs><clipPath id="a"><path fill="#fff" d="M0 0h40v40H0z"/></clipPath></defs></svg>