<?xml version="1.0" standalone="no"?>
<!DOCTYPE svg PUBLIC "-//W3C//DTD SVG 20010904//EN"
 "http://www.w3.org/TR/2001/REC-SVG-20010904/DTD/svg10.dtd">
<svg version="1.0" xmlns="http://www.w3.org/2000/svg"
 width="1024.000000pt" height="1024.000000pt" viewBox="0 0 1024.000000 1024.000000"
 preserveAspectRatio="xMidYMid meet">

<g transform="translate(0.000000,1024.000000) scale(0.100000,-0.100000)"
fill="#000000" stroke="none">
<path d="M1597 8583 c-4 -3 -7 -179 -7 -390 l0 -383 958 0 957 0 -3 -1815 -2
-1815 -228 -2 c-125 -2 -392 -2 -594 0 l-368 2 0 1125 0 1125 310 0 310 0 0
360 0 360 -667 -2 -668 -3 -3 -1842 -2 -1843 1300 0 1300 0 -2 2175 -3 2175
293 0 292 0 0 -2895 0 -2895 350 0 350 0 0 2895 0 2895 295 0 295 0 0 -2175 0
-2175 1295 0 1295 0 -2 1843 -3 1842 -667 2 -668 2 0 -359 0 -360 310 0 310 0
0 -1125 0 -1125 -52 0 c-57 -1 -325 -1 -825 0 l-313 0 0 1815 0 1815 955 0
955 0 -2 388 -3 387 -3521 3 c-1936 1 -3524 -1 -3527 -5z"/>
<path d="M1590 2410 l0 -390 1300 0 1300 0 0 390 0 390 -1300 0 -1300 0 0
-390z"/>
<path d="M6060 2410 l0 -390 1295 0 1295 0 0 390 0 390 -1295 0 -1295 0 0
-390z"/>
</g>
</svg>
