<?xml version="1.0" encoding="UTF-8"?>
<svg version="1.1" xmlns="http://www.w3.org/2000/svg" width="1024" height="1024" viewBox="0 0 1024 1024">
<path d="M0 0 C0.495 0.99 0.495 0.99 1 2 C1.57363281 1.9278125 2.14726562 1.855625 2.73828125 1.78125 C10.05222768 0.98215418 17.27769608 0.93068806 24.62426758 1.03710938 C28.94627437 1.22683851 28.94627437 1.22683851 33 0 C33 0.66 33 1.32 33 2 C34.13909821 1.83701416 35.27819641 1.67402832 36.45181274 1.50610352 C40.9094046 0.95188021 45.28412508 0.87232713 49.77099609 0.90234375 C51.02614014 0.90453415 51.02614014 0.90453415 52.30664062 0.9067688 C54.10828628 0.91055069 55.90992831 0.91664136 57.7115593 0.92483521 C60.56077571 0.93766817 63.40994527 0.94413123 66.25918579 0.94897461 C72.29781173 0.96035921 78.33639857 0.97963008 84.375 1 C91.39469747 1.02358956 98.41437342 1.04395885 105.4341011 1.05593872 C108.24494596 1.06243416 111.05572399 1.0749365 113.86654663 1.08764648 C115.57948752 1.0912769 117.29242903 1.09462889 119.00537109 1.09765625 C119.7897757 1.10282257 120.5741803 1.10798889 121.38235474 1.11331177 C125.31976107 1.19705667 125.31976107 1.19705667 129 0 C129 0.66 129 1.32 129 2 C130.03229736 1.9278125 131.06459473 1.855625 132.12817383 1.78125 C144.65266816 1.00689654 157.15621382 0.91582243 169.69921875 0.9375 C171.02421576 0.93966019 171.02421576 0.93966019 172.37598038 0.94186401 C178.81318013 0.9541703 185.25033381 0.97626105 191.6875 1 C198.19206718 1.02367525 204.69661192 1.04394927 211.20121193 1.05593872 C213.78828275 1.06241011 216.37527965 1.07489739 218.96232605 1.08764648 C220.53176815 1.09127493 222.10121092 1.09462716 223.6706543 1.09765625 C224.38788162 1.10282257 225.10510895 1.10798889 225.84407043 1.11331177 C229.54598377 1.16676845 229.54598377 1.16676845 233 0 C233 0.66 233 1.32 233 2 C233.80727539 1.9278125 234.61455078 1.855625 235.44628906 1.78125 C247.54984267 0.82753634 259.61593875 0.92049445 271.75 1 C275.89062207 1.02658302 280.03120006 1.04652039 284.171875 1.0625 C285.11552917 1.07079834 286.05918335 1.07909668 287.03143311 1.08764648 C287.90374573 1.09094971 288.77605835 1.09425293 289.67480469 1.09765625 C290.44008484 1.10289307 291.20536499 1.10812988 291.99383545 1.11352539 C294.2084945 1.07612631 294.2084945 1.07612631 297 0 C297 0.66 297 1.32 297 2 C297.75023437 1.9278125 298.50046875 1.855625 299.2734375 1.78125 C305.22466004 1.24159254 311.06363014 0.90779625 317.0390625 1.0625 C319.0800211 1.13436172 319.0800211 1.13436172 321 0 C321 0.66 321 1.32 321 2 C322.485 1.505 322.485 1.505 324 1 C325.68693289 0.95625458 327.37546831 0.96024668 329.0625 1 C332.67327132 1.15626873 332.67327132 1.15626873 336 0 C337.175625 0.2475 337.175625 0.2475 338.375 0.5 C341.03845204 1.0073242 342.46663295 0.84445568 345 0 C345 0.66 345 1.32 345 2 C345.86625 1.835 346.7325 1.67 347.625 1.5 C352.69285556 0.74920658 357.78175289 0.97479404 362.890625 1.0625 C366.03520517 1.1533198 366.03520517 1.1533198 369 0 C369 0.66 369 1.32 369 2 C369.72721189 1.83761904 370.45442379 1.67523808 371.20367241 1.50793648 C373.7956505 1.03711889 376.11350144 0.8742553 378.74124146 0.87301636 C379.66618912 0.87019653 380.59113678 0.86737671 381.54411316 0.86447144 C383.04812431 0.86750778 383.04812431 0.86750778 384.58251953 0.87060547 C385.64822678 0.86885315 386.71393402 0.86710083 387.81193542 0.86529541 C391.33557769 0.86089416 394.85916972 0.86381011 398.3828125 0.8671875 C400.83796193 0.86651367 403.2931113 0.86554298 405.7482605 0.86428833 C410.89793533 0.86281345 416.04759281 0.86495811 421.19726562 0.86962891 C427.77746027 0.87530804 434.35761396 0.87205739 440.93780708 0.86605644 C446.01148787 0.8624298 451.08515909 0.86359938 456.15884018 0.86618423 C458.58357625 0.86684863 461.00831321 0.86604222 463.43304825 0.86370468 C466.83575973 0.86114561 470.23840657 0.86506513 473.64111328 0.87060547 C474.631642 0.86858124 475.62217072 0.86655701 476.64271545 0.86447144 C483.14339998 0.88393363 489.53649805 1.31014069 496 2 C496.33 1.34 496.66 0.68 497 0 C497 0.66 497 1.32 497 2 C498.07217773 1.83628906 499.14435547 1.67257813 500.24902344 1.50390625 C505.83569183 0.80951463 511.39436514 0.89445163 517.015625 0.9375 C518.14901306 0.94128662 519.28240112 0.94507324 520.45013428 0.94897461 C524.05012925 0.96113319 527.65004189 0.9797701 531.25 1 C536.00520611 1.0265654 540.76037277 1.046559 545.515625 1.0625 C547.15316742 1.07494751 547.15316742 1.07494751 548.8237915 1.08764648 C549.83874695 1.09094971 550.85370239 1.09425293 551.89941406 1.09765625 C553.23555756 1.10551147 553.23555756 1.10551147 554.59869385 1.11352539 C556.87526957 1.00589682 558.81942713 0.64059523 561 0 C561 0.66 561 1.32 561 2 C562.12172607 1.75552124 562.12172607 1.75552124 563.26611328 1.50610352 C568.43529571 0.80545521 573.53191333 0.87744329 578.7421875 0.90234375 C579.73871338 0.90335083 580.73523926 0.90435791 581.76196289 0.90539551 C585.46632039 0.91060736 589.17066141 0.92456857 592.875 0.9375 C601.16625 0.958125 609.4575 0.97875 618 1 C618 28.39 618 55.78 618 84 C579.99871685 84.04030303 579.99871685 84.04030303 563.8515625 84.04882812 C552.78189623 84.05472009 541.71223767 84.06157607 530.64257812 84.07543945 C522.57411294 84.08553923 514.50565412 84.09188897 506.43718278 84.09408849 C502.18164109 84.09537022 497.92611757 84.09828857 493.67058182 84.10573006 C489.63061068 84.11273449 485.59066443 84.11456992 481.55068779 84.11310768 C480.10076574 84.11337347 478.65084245 84.11522891 477.20092583 84.11920547 C460.45084205 84.16272174 443.75469712 83.49278521 427 83 C427 189.59 427 296.18 427 406 C465.94 406 504.88 406 545 406 C544.67 344.95 544.34 283.9 544 221 C523.21 220.67 502.42 220.34 481 220 C481 194.92 481 169.84 481 144 C488.87700789 142.87471316 488.87700789 142.87471316 492.6784668 142.87060547 C493.52591965 142.86745331 494.3733725 142.86430115 495.24650574 142.86105347 C496.58434868 142.86408981 496.58434868 142.86408981 497.94921875 142.8671875 C498.88425735 142.86623077 499.81929596 142.86527405 500.78266907 142.86428833 C502.74842395 142.86361092 504.71418112 142.86543444 506.67993164 142.86962891 C509.68836465 142.87500154 512.69664961 142.86965972 515.70507812 142.86328125 C517.619792 142.86394175 519.53450577 142.86522234 521.44921875 142.8671875 C522.34718674 142.86516327 523.24515472 142.86313904 524.17033386 142.86105347 C525.42732841 142.86578171 525.42732841 142.86578171 526.7097168 142.87060547 C527.4436113 142.87140106 528.1775058 142.87219666 528.93363953 142.87301636 C531.06428057 143.00395022 532.95037896 143.41783026 535 144 C535.33 143.34 535.66 142.68 536 142 C536.33 142.33 536.66 142.66 537 143 C563.73 143 590.46 143 618 143 C618 255.53 618 368.06 618 484 C543.0081703 485.15372046 543.0081703 485.15372046 506.83129191 484.89946485 C501.51187022 484.86365551 496.19240403 484.83605236 490.87294006 484.80735779 C480.92318028 484.7525513 470.9734758 484.6909994 461.02377373 484.62663645 C449.64403782 484.55338051 438.26425921 484.48823454 426.88447177 484.42356598 C403.58959246 484.29101571 380.2947799 484.14894316 357 484 C356.05768265 480.02480665 355.87752256 476.33344062 355.8825388 472.25272083 C355.88198414 471.58401995 355.88142949 470.91531906 355.88085803 470.22635451 C355.88021534 467.98166889 355.88673832 465.73706144 355.89320374 463.49238586 C355.89419972 461.86844964 355.89474944 460.24451309 355.89489073 458.62057656 C355.8965379 454.15490326 355.90441061 449.68925908 355.91325247 445.22359502 C355.92167463 440.40901513 355.92428023 435.59443188 355.92750549 430.77984619 C355.93380662 422.43671968 355.94354851 414.09360293 355.95540047 405.75048256 C355.97236014 393.68550943 355.98192486 381.62053873 355.9892792 369.55555632 C356.00122805 349.97868504 356.0161797 330.40181759 356.03442383 310.82495117 C356.03551395 309.6529917 356.03660407 308.48103222 356.03772723 307.27355882 C356.0533497 290.62839757 356.07194476 273.98324094 356.0917251 257.33808418 C356.09311842 256.16521513 356.09451173 254.99234608 356.09594727 253.78393555 C356.0973408 252.61249071 356.09873433 251.44104587 356.10017008 250.2341027 C356.1231749 230.72766352 356.13850927 211.22122734 356.14750665 191.71477669 C356.15337127 179.67401777 356.16577714 167.63329994 356.18647944 155.59255721 C356.20014937 147.34994001 356.20667834 139.10733725 356.20748956 130.86470882 C356.20819613 126.10299908 356.21225207 121.34135073 356.2249527 116.5796566 C356.23650215 112.22691188 356.23897632 107.87426314 356.23401051 103.52150681 C356.23385831 101.94087386 356.23714588 100.36023637 356.24408758 98.77961866 C356.25299214 96.64287655 356.24976104 94.50649822 356.24330235 92.36975574 C356.24460386 91.17938483 356.24590537 89.98901392 356.24724633 88.76257116 C356.28485135 85.85734564 356.28485135 85.85734564 354 84 C351.73572626 83.70768461 351.73572626 83.70768461 349.09130859 83.77294922 C348.07040131 83.77310028 347.04949402 83.77325134 345.99765015 83.77340698 C344.33978989 83.78889084 344.33978989 83.78889084 342.6484375 83.8046875 C341.5192691 83.8075174 340.39010071 83.81034729 339.22671509 83.81326294 C335.60937029 83.82448538 331.99227034 83.84959378 328.375 83.875 C325.9270869 83.88502713 323.47916993 83.89415344 321.03125 83.90234375 C315.02074936 83.92443143 309.01039217 83.95792926 303 84 C303 84.66 303 85.32 303 86 C302.34 86 301.68 86 301 86 C301.495 353.3 301.495 353.3 302 626 C300.35 626.66 298.7 627.32 297 628 C297 628.33 297 628.66 297 629 C288.59414954 629.04635 280.18835253 629.08188271 271.78240585 629.10362434 C267.8791426 629.11405948 263.97596682 629.12821371 260.07275391 629.15087891 C256.305607 629.17261699 252.5385442 629.18457066 248.77133942 629.18975449 C247.33443121 629.19344851 245.89752759 629.20066203 244.46065521 629.21146011 C242.44744866 629.225987 240.43415739 629.22681703 238.42089844 629.22705078 C237.27506287 629.231492 236.12922729 629.23593323 234.94866943 629.24050903 C232.02098085 629.00171131 230.53060911 628.37278089 228 627 C227.03279014 570.94518585 226.84885159 514.90064085 226.86470055 458.83839734 C226.86701632 450.41186421 226.86725624 441.9853331 226.86618423 433.55879974 C226.866031 432.34056636 226.86587777 431.12233298 226.86571989 429.86718343 C226.86540006 427.38984531 226.86507584 424.91250719 226.8647473 422.43516907 C226.86193031 399.48843235 226.8651224 376.54169969 226.87054767 353.59496364 C226.87504205 333.97655579 226.87421093 314.35815384 226.86962891 294.73974609 C226.86426666 271.77097151 226.8621739 248.80220041 226.86524117 225.83342528 C226.86555964 223.38321034 226.86587401 220.9329954 226.86618423 218.48278046 C226.86633851 217.27811184 226.86649279 216.07344323 226.86665174 214.8322695 C226.86750973 206.40537292 226.86607022 197.97847858 226.86370468 189.55158234 C226.86088937 179.30154698 226.86168257 169.05151928 226.86698543 158.80148479 C226.86959456 153.58912403 226.87067492 148.376776 226.86733627 143.16441536 C226.86431705 138.37853463 226.86605768 133.5926782 226.87131383 128.80679962 C226.87241398 127.09330057 226.87190166 125.37979939 226.86943804 123.66630176 C226.85185631 110.40279641 227.42282021 97.27513508 228 84 C210.18 84 192.36 84 174 84 C173.67 216 173.34 348 173 484 C108.4334375 484.2784375 108.4334375 484.2784375 42.5625 484.5625 C22.13710327 484.65446655 22.13710327 484.65446655 1.29907227 484.74829102 C-15.26379395 484.81628418 -15.26379395 484.81628418 -23.00502014 484.8467865 C-28.43915669 484.86854632 -33.87327273 484.89306265 -39.30738831 484.91941833 C-46.2244629 484.95295608 -53.14154261 484.98137912 -60.058653 485.00645053 C-62.60627074 485.01651104 -65.15388239 485.02828335 -67.70148361 485.0418998 C-71.12471535 485.05995843 -74.54791376 485.07193917 -77.97117615 485.08229065 C-79.48968217 485.09249442 -79.48968217 485.09249442 -81.03886509 485.10290432 C-81.9503097 485.10439795 -82.8617543 485.10589157 -83.80081844 485.10743046 C-84.59329477 485.11084794 -85.3857711 485.11426542 -86.20226187 485.11778647 C-88 485 -88 485 -89 484 C-89.09749351 482.19117646 -89.12371405 480.37849507 -89.12304783 478.56704617 C-89.1260344 476.78752785 -89.1260344 476.78752785 -89.12908131 474.97205967 C-89.12622772 473.63871647 -89.12328212 472.30537346 -89.12025452 470.97203064 C-89.1206901 469.56873526 -89.12156475 468.16543996 -89.12284368 466.7621451 C-89.12509128 462.88785907 -89.12106377 459.01360041 -89.11606562 455.13931787 C-89.11176507 450.96819899 -89.11320726 446.79708178 -89.1139679 442.6259613 C-89.11449338 435.39318918 -89.111344 428.16042604 -89.10573006 420.92765617 C-89.0976184 410.4701611 -89.09500018 400.01267039 -89.09374207 389.55517251 C-89.09155102 372.59040876 -89.08488951 355.62564981 -89.07543945 338.66088867 C-89.0662667 322.17683944 -89.0591852 305.6927915 -89.05493164 289.20874023 C-89.05466892 288.19342446 -89.05440619 287.17810869 -89.05413551 286.13202577 C-89.05283051 281.03871219 -89.0515668 275.94539859 -89.05032361 270.85208499 C-89.03994935 228.56805334 -89.02232961 186.28402692 -89 144 C-86.41842975 142.70921487 -84.57076572 142.87412318 -81.67906189 142.87301636 C-79.98586067 142.86878662 -79.98586067 142.86878662 -78.25845337 142.86447144 C-77.014216 142.86649567 -75.76997864 142.8685199 -74.48803711 142.87060547 C-73.18237289 142.86885315 -71.87670868 142.86710083 -70.53147888 142.86529541 C-66.9448583 142.86072709 -63.35826641 142.86250806 -59.77164531 142.8656745 C-56.02448494 142.86820066 -52.27732708 142.86585989 -48.53016663 142.86428833 C-42.23779864 142.86246761 -35.94544238 142.86487062 -29.65307617 142.86962891 C-22.36853533 142.8750737 -15.08402246 142.8733069 -7.79948229 142.8678025 C-1.55404035 142.86327141 4.69139314 142.86262073 10.93683618 142.86524117 C14.67094439 142.86680366 18.40503943 142.86699842 22.1391468 142.86370468 C26.29859208 142.86029219 30.45798874 142.86501562 34.61743164 142.87060547 C35.86369324 142.86858124 37.10995483 142.86655701 38.39398193 142.86447144 C40.08295341 142.86870117 40.08295341 142.86870117 41.80604553 142.87301636 C43.28300951 142.8735819 43.28300951 142.8735819 44.78981113 142.87415886 C47 143 47 143 48 144 C48.10554544 146.32648018 48.14678559 148.62342176 48.14526367 150.95068359 C48.14862228 151.67752853 48.1519809 152.40437347 48.15544128 153.15324402 C48.16497984 155.56832566 48.16689594 157.98333817 48.16796875 160.3984375 C48.17117968 162.07134022 48.17454363 163.74424266 48.17805481 165.41714478 C48.18405361 168.92947033 48.18589398 172.44177125 48.18530273 175.95410156 C48.18520115 180.45915306 48.19884585 184.96404679 48.21607494 189.4690609 C48.22718412 192.92626676 48.22922226 196.38343439 48.22869301 199.84065628 C48.22987505 201.50167 48.23430934 203.16268466 48.24202538 204.82368088 C48.25180208 207.14607583 48.24895637 209.46812708 48.24291992 211.79052734 C48.24853943 212.47947586 48.25415894 213.16842438 48.25994873 213.87825012 C48.23604141 217.49037904 48.0666851 218.89997235 46 222 C46 221.34 46 220.68 46 220 C25.87 220 5.74 220 -15 220 C-14.91621094 229.06984375 -14.83242187 238.1396875 -14.74609375 247.484375 C-14.69516733 253.35416131 -14.64462029 259.22394716 -14.59570312 265.09375 C-14.51859837 274.33793325 -14.44027728 283.58208946 -14.35180664 292.82617188 C-14.28727453 299.5697339 -14.22828215 306.31332216 -14.17494446 313.05698228 C-14.14675468 316.59996227 -14.11647876 320.14288367 -14.07946587 323.68578339 C-13.80224348 351.15157107 -14.47142329 378.51401094 -15 406 C23.61 406 62.22 406 102 406 C101.67 299.74 101.34 193.48 101 84 C38.3 84 -24.4 84 -89 84 C-89 56.94 -89 29.88 -89 2 C-85.87095122 0.43547561 -82.54297662 0.87941358 -79.10961914 0.90234375 C-78.29484604 0.90380402 -77.48007294 0.90526428 -76.64060974 0.9067688 C-74.86832641 0.91057944 -73.09604691 0.91670087 -71.32377815 0.92483521 C-68.52097437 0.93756441 -65.71821774 0.94410567 -62.91539001 0.94897461 C-55.95311051 0.96236878 -48.99087573 0.98656479 -42.02862549 1.01037598 C-36.14910068 1.03007844 -30.26959246 1.04573189 -24.39004326 1.05593872 C-21.62523815 1.06243519 -18.86050095 1.07494434 -16.09571838 1.08764648 C-14.40373799 1.09127854 -12.71175697 1.09463033 -11.01977539 1.09765625 C-9.86247421 1.10540573 -9.86247421 1.10540573 -8.68179321 1.11331177 C-5.51335719 1.11362724 -3.02950615 1.00983538 0 0 Z M254 627 C258 628 258 628 258 628 Z M260 627 C260 627.33 260 627.66 260 628 C261.65 628 263.3 628 265 628 C265 627.67 265 627.34 265 627 C263.35 627 261.7 627 260 627 Z M268 627 C268 627.33 268 627.66 268 628 C269.65 628 271.3 628 273 628 C273 627.67 273 627.34 273 627 C271.35 627 269.7 627 268 627 Z " fill="#FEFEFE" transform="translate(247,194)"/>
<path d="M0 0 C0.90668025 -0.00199105 1.81336051 -0.0039821 2.74751592 -0.00603348 C3.73972921 -0.00312064 4.73194251 -0.0002078 5.75422287 0.00279331 C6.81119708 0.00193889 7.86817129 0.00108446 8.95717502 0.00020415 C12.51020787 -0.00144716 16.06319385 0.00406505 19.61622238 0.00952244 C22.15865198 0.00980441 24.70108165 0.00964638 27.2435112 0.00907993 C32.72301203 0.00885198 38.20249768 0.01169428 43.68199539 0.01731777 C51.60443727 0.02544311 59.52687338 0.02804906 67.44931898 0.02930576 C80.30280827 0.03149465 93.15629122 0.03815033 106.00977707 0.04760838 C118.49610487 0.0567867 130.98243095 0.06386548 143.46876144 0.06811619 C144.62315239 0.06851027 144.62315239 0.06851027 145.80086437 0.06891232 C149.6616722 0.07021735 153.52248005 0.07148106 157.38328791 0.07272422 C189.41503891 0.08309176 221.44678211 0.10070566 253.47852707 0.12304783 C253.54793571 10.64955234 253.60129173 21.17600272 253.63396358 31.70268917 C253.64964181 36.59028658 253.67091926 41.47772782 253.70484543 46.36523533 C253.7373622 51.07902283 253.75536382 55.79265982 253.7631588 60.50655079 C253.76871616 62.30796397 253.77956788 64.1093686 253.79571724 65.91071796 C253.81738975 68.42747867 253.82049832 70.94361168 253.81910324 73.46045017 C253.83528198 74.58577908 253.83528198 74.58577908 253.85178757 75.7338419 C253.83929062 77.80746555 253.83929062 77.80746555 253.47852707 81.12304783 C249.88462813 83.51898045 247.3250802 83.40065131 243.17710495 83.37028599 C242.42795716 83.3727004 241.67880937 83.37511482 240.90696013 83.3776024 C238.38954948 83.38325102 235.87239127 83.37456763 233.35499191 83.36596775 C231.55323849 83.36704033 229.75148539 83.36897864 227.94973373 83.37172031 C223.05120618 83.37657501 218.15276948 83.3689057 213.25425291 83.35876727 C208.13643588 83.34999926 203.01862181 83.35174396 197.9007988 83.35212803 C189.30755208 83.35119097 180.71434064 83.34250047 172.12110519 83.32885838 C162.17188135 83.31312243 152.22269613 83.30786059 142.27346075 83.30859393 C132.71760035 83.30920326 123.1617526 83.30410716 113.605896 83.29580212 C109.53173474 83.29226253 105.45757795 83.29043791 101.38341522 83.28990841 C96.59166857 83.28890736 91.79995463 83.28283035 87.00821877 83.27274227 C85.24450061 83.26980989 83.48077868 83.26859338 81.71705818 83.26916981 C79.31999744 83.26965696 76.92302974 83.26404001 74.5259819 83.2567606 C73.81889757 83.2583092 73.11181323 83.2598578 72.38330209 83.26145333 C67.59270584 83.2372266 67.59270584 83.2372266 66.47852707 82.12304783 C66.47852707 82.45304783 66.47852707 82.78304783 66.47852707 83.12304783 C48.14519374 83.12304783 29.8118604 83.12304783 11.47852707 83.12304783 C9.87557785 83.15785252 9.87557785 83.15785252 8.24024582 83.19336033 C6.88217924 83.21205544 5.52410586 83.23026195 4.16602707 83.24804783 C3.48862473 83.26480564 2.81122238 83.28156345 2.11329269 83.29882908 C-4.80121675 83.36641959 -4.80121675 83.36641959 -7.52147293 81.12304783 C-8.67321844 77.00526734 -8.65731645 72.9125067 -8.63499832 68.67065525 C-8.63514435 67.93840733 -8.63529037 67.2061594 -8.63544083 66.45172215 C-8.63474706 64.04395628 -8.62697985 61.63626885 -8.61912918 59.22851658 C-8.6172631 57.55414465 -8.61584009 55.87977218 -8.61484146 54.20539951 C-8.61103128 49.80777562 -8.60121383 45.41018499 -8.59013748 41.0125742 C-8.57989109 36.52140852 -8.57533693 32.03023746 -8.57030106 27.53906345 C-8.55959019 18.73370969 -8.54253181 9.9283829 -8.52147293 1.12304783 C-5.60841506 0.28799516 -3.02642988 -0.00146914 0 0 Z M31.47852707 81.12304783 C31.47852707 81.45304783 31.47852707 81.78304783 31.47852707 82.12304783 C33.12852707 82.12304783 34.77852707 82.12304783 36.47852707 82.12304783 C36.47852707 81.79304783 36.47852707 81.46304783 36.47852707 81.12304783 C34.82852707 81.12304783 33.17852707 81.12304783 31.47852707 81.12304783 Z M47.47852707 81.12304783 C51.47852707 82.12304783 51.47852707 82.12304783 51.47852707 82.12304783 Z M54.47852707 81.12304783 C54.47852707 81.45304783 54.47852707 81.78304783 54.47852707 82.12304783 C56.45852707 82.12304783 58.43852707 82.12304783 60.47852707 82.12304783 C60.47852707 81.79304783 60.47852707 81.46304783 60.47852707 81.12304783 C58.49852707 81.12304783 56.51852707 81.12304783 54.47852707 81.12304783 Z M103.47852707 81.12304783 C103.47852707 81.45304783 103.47852707 81.78304783 103.47852707 82.12304783 C105.12852707 82.12304783 106.77852707 82.12304783 108.47852707 82.12304783 C108.47852707 81.79304783 108.47852707 81.46304783 108.47852707 81.12304783 C106.82852707 81.12304783 105.17852707 81.12304783 103.47852707 81.12304783 Z M119.47852707 81.12304783 C119.47852707 81.45304783 119.47852707 81.78304783 119.47852707 82.12304783 C121.45852707 82.12304783 123.43852707 82.12304783 125.47852707 82.12304783 C125.47852707 81.79304783 125.47852707 81.46304783 125.47852707 81.12304783 C123.49852707 81.12304783 121.51852707 81.12304783 119.47852707 81.12304783 Z M127.47852707 81.12304783 C127.47852707 81.45304783 127.47852707 81.78304783 127.47852707 82.12304783 C129.45852707 82.12304783 131.43852707 82.12304783 133.47852707 82.12304783 C133.47852707 81.79304783 133.47852707 81.46304783 133.47852707 81.12304783 C131.49852707 81.12304783 129.51852707 81.12304783 127.47852707 81.12304783 Z M135.47852707 81.12304783 C135.47852707 81.45304783 135.47852707 81.78304783 135.47852707 82.12304783 C137.12852707 82.12304783 138.77852707 82.12304783 140.47852707 82.12304783 C140.47852707 81.79304783 140.47852707 81.46304783 140.47852707 81.12304783 C138.82852707 81.12304783 137.17852707 81.12304783 135.47852707 81.12304783 Z M143.47852707 81.12304783 C143.47852707 81.45304783 143.47852707 81.78304783 143.47852707 82.12304783 C145.12852707 82.12304783 146.77852707 82.12304783 148.47852707 82.12304783 C148.47852707 81.79304783 148.47852707 81.46304783 148.47852707 81.12304783 C146.82852707 81.12304783 145.17852707 81.12304783 143.47852707 81.12304783 Z M151.47852707 81.12304783 C151.47852707 81.45304783 151.47852707 81.78304783 151.47852707 82.12304783 C153.12852707 82.12304783 154.77852707 82.12304783 156.47852707 82.12304783 C156.47852707 81.79304783 156.47852707 81.46304783 156.47852707 81.12304783 C154.82852707 81.12304783 153.17852707 81.12304783 151.47852707 81.12304783 Z M175.47852707 81.12304783 C175.47852707 81.45304783 175.47852707 81.78304783 175.47852707 82.12304783 C177.12852707 82.12304783 178.77852707 82.12304783 180.47852707 82.12304783 C180.47852707 81.79304783 180.47852707 81.46304783 180.47852707 81.12304783 C178.82852707 81.12304783 177.17852707 81.12304783 175.47852707 81.12304783 Z M207.47852707 81.12304783 C207.47852707 81.45304783 207.47852707 81.78304783 207.47852707 82.12304783 C209.12852707 82.12304783 210.77852707 82.12304783 212.47852707 82.12304783 C212.47852707 81.79304783 212.47852707 81.46304783 212.47852707 81.12304783 C210.82852707 81.12304783 209.17852707 81.12304783 207.47852707 81.12304783 Z M223.47852707 81.12304783 C223.47852707 81.45304783 223.47852707 81.78304783 223.47852707 82.12304783 C225.12852707 82.12304783 226.77852707 82.12304783 228.47852707 82.12304783 C228.47852707 81.79304783 228.47852707 81.46304783 228.47852707 81.12304783 C226.82852707 81.12304783 225.17852707 81.12304783 223.47852707 81.12304783 Z " fill="#FEFEFE" transform="translate(611.5214729309082,739.8769521713257)"/>
<path d="M0 0 C2.50018412 2.50018412 2.23513727 3.97857297 2.24884033 7.38920593 C2.24164978 8.1394252 2.23445923 8.88964447 2.22705078 9.66259766 C2.22734283 10.45292892 2.22763489 11.24326019 2.22793579 12.05754089 C2.22653962 14.67649214 2.21096505 17.2951608 2.1953125 19.9140625 C2.19158339 21.72724248 2.18873594 23.54042447 2.18673706 25.35360718 C2.17909257 30.13107851 2.15943712 34.90842867 2.1373291 39.68585205 C2.1168882 44.55878052 2.10773911 49.43172853 2.09765625 54.3046875 C2.07619197 63.86984497 2.04204623 73.43491242 2 83 C-1.465 83.495 -1.465 83.495 -5 84 C-5 84.33 -5 84.66 -5 85 C-84.33333333 85 -163.66666667 85 -243 85 C-243 84.67 -243 84.34 -243 84 C-248.61 83.67 -254.22 83.34 -260 83 C-260 56.6 -260 30.2 -260 3 C-257.66303019 1.83151509 -256.32727747 1.88120975 -253.72462273 1.89256954 C-252.37057549 1.89480806 -252.37057549 1.89480806 -250.98917377 1.89709181 C-249.99113479 1.9038956 -248.99309582 1.91069939 -247.96481323 1.91770935 C-246.90954787 1.92093848 -245.85428252 1.92416761 -244.76703942 1.92749459 C-241.20777566 1.93962161 -237.64858711 1.95898359 -234.08935547 1.97827148 C-231.54722255 1.98840878 -229.00508784 1.99810304 -226.46295166 2.00738525 C-220.97794724 2.02841499 -215.49297021 2.05254513 -210.00799179 2.07946587 C-202.077574 2.11838371 -194.14714057 2.15175563 -186.21669222 2.18376113 C-173.35098587 2.23583541 -160.4853034 2.29241331 -147.61962891 2.35180664 C-135.11963837 2.40950222 -122.6196414 2.46508717 -110.11962891 2.51782227 C-109.34950949 2.52107198 -108.57939008 2.5243217 -107.78593372 2.5276699 C-103.92258475 2.54395925 -100.05923561 2.56020698 -96.19588637 2.57643402 C-64.13056123 2.71117032 -32.0652723 2.85320847 0 3 C0 2.01 0 1.02 0 0 Z M-223 83 C-223 83.33 -223 83.66 -223 84 C-221.35 84 -219.7 84 -218 84 C-218 83.67 -218 83.34 -218 83 C-219.65 83 -221.3 83 -223 83 Z M-216 83 C-216 83.33 -216 83.66 -216 84 C-214.02 84 -212.04 84 -210 84 C-210 83.67 -210 83.34 -210 83 C-211.98 83 -213.96 83 -216 83 Z M-197 83 C-197 83.33 -197 83.66 -197 84 C-193.37 84 -189.74 84 -186 84 C-186 83.67 -186 83.34 -186 83 C-189.63 83 -193.26 83 -197 83 Z M-183 83 C-183 83.33 -183 83.66 -183 84 C-181.35 84 -179.7 84 -178 84 C-178 83.67 -178 83.34 -178 83 C-179.65 83 -181.3 83 -183 83 Z M-173 83 C-173 83.33 -173 83.66 -173 84 C-171.35 84 -169.7 84 -168 84 C-168 83.67 -168 83.34 -168 83 C-169.65 83 -171.3 83 -173 83 Z M-160 83 C-160 83.33 -160 83.66 -160 84 C-157.69 84 -155.38 84 -153 84 C-153 83.67 -153 83.34 -153 83 C-155.31 83 -157.62 83 -160 83 Z M-151 83 C-151 83.33 -151 83.66 -151 84 C-149.35 84 -147.7 84 -146 84 C-146 83.67 -146 83.34 -146 83 C-147.65 83 -149.3 83 -151 83 Z M-143 83 C-143 83.33 -143 83.66 -143 84 C-141.35 84 -139.7 84 -138 84 C-138 83.67 -138 83.34 -138 83 C-139.65 83 -141.3 83 -143 83 Z M-137 83 C-137 83.33 -137 83.66 -137 84 C-134.69 84 -132.38 84 -130 84 C-130 83.67 -130 83.34 -130 83 C-132.31 83 -134.62 83 -137 83 Z M-119 83 C-119 83.33 -119 83.66 -119 84 C-117.35 84 -115.7 84 -114 84 C-114 83.67 -114 83.34 -114 83 C-115.65 83 -117.3 83 -119 83 Z M-111 83 C-111 83.33 -111 83.66 -111 84 C-109.35 84 -107.7 84 -106 84 C-106 83.67 -106 83.34 -106 83 C-107.65 83 -109.3 83 -111 83 Z M-103 83 C-103 83.33 -103 83.66 -103 84 C-95.74 84 -88.48 84 -81 84 C-81 83.67 -81 83.34 -81 83 C-88.26 83 -95.52 83 -103 83 Z M-80 83 C-80 83.33 -80 83.66 -80 84 C-77.69 84 -75.38 84 -73 84 C-73 83.67 -73 83.34 -73 83 C-75.31 83 -77.62 83 -80 83 Z M-71 83 C-71 83.33 -71 83.66 -71 84 C-69.02 84 -67.04 84 -65 84 C-65 83.67 -65 83.34 -65 83 C-66.98 83 -68.96 83 -71 83 Z M-63 83 C-63 83.33 -63 83.66 -63 84 C-61.35 84 -59.7 84 -58 84 C-58 83.67 -58 83.34 -58 83 C-59.65 83 -61.3 83 -63 83 Z M-45 83 C-45 83.33 -45 83.66 -45 84 C-41.37 84 -37.74 84 -34 84 C-34 83.67 -34 83.34 -34 83 C-37.63 83 -41.26 83 -45 83 Z M-21 83 C-17 84 -17 84 -17 84 Z " fill="#FEFEFE" transform="translate(418,738)"/>
<path d="M0 0 C5.28 0 10.56 0 16 0 C16 0.33 16 0.66 16 1 C10.72 1 5.44 1 0 1 C0 0.67 0 0.34 0 0 Z " fill="#F7F7F8" transform="translate(848,679)"/>
<path d="M0 0 C1.98 0 3.96 0 6 0 C6 0.33 6 0.66 6 1 C4.02 1 2.04 1 0 1 C0 0.67 0 0.34 0 0 Z " fill="#EBECEC" transform="translate(168,822)"/>
<path d="M0 0 C1.98 0 3.96 0 6 0 C6 0.33 6 0.66 6 1 C4.02 1 2.04 1 0 1 C0 0.67 0 0.34 0 0 Z " fill="#FAFAF9" transform="translate(268,679)"/>
<path d="M0 0 C4 1 4 1 4 1 Z " fill="#F2F3F3" transform="translate(414,822)"/>
<path d="M0 0 C4 1 4 1 4 1 Z " fill="#E4E5E4" transform="translate(162,822)"/>
<path d="M0 0 C1 4 1 4 1 4 Z " fill="#EEEFF0" transform="translate(156,796)"/>
<path d="M0 0 C4 1 4 1 4 1 Z " fill="#FAFBFA" transform="translate(707,679)"/>
<path d="M0 0 C1 4 1 4 1 4 Z " fill="#F3F4F4" transform="translate(156,273)"/>
<path d="M0 0 C1 4 1 4 1 4 Z " fill="#F2F3F4" transform="translate(156,228)"/>
<path d="M0 0 C1 4 1 4 1 4 Z " fill="#F0F0F1" transform="translate(156,220)"/>
<path d="" fill="#F4F6F5" transform="translate(0,0)"/>
<path d="M0 0 C3 1 3 1 3 1 Z " fill="#F9F9F9" transform="translate(692,679)"/>
<path d="M0 0 C0.66 0.66 1.32 1.32 2 2 C1.34 2 0.68 2 0 2 C0 1.34 0 0.68 0 0 Z " fill="#FFFFFE" transform="translate(549,678)"/>
<path d="M0 0 C3 1 3 1 3 1 Z " fill="#FDFCFC" transform="translate(416,679)"/>
<path d="M0 0 C3 1 3 1 3 1 Z " fill="#FAFAFA" transform="translate(220,679)"/>
<path d="" fill="#F4F5F6" transform="translate(0,0)"/>
<path d="" fill="#F5F5F6" transform="translate(0,0)"/>
<path d="" fill="#FEFEFF" transform="translate(0,0)"/>
<path d="" fill="#F6F8F8" transform="translate(0,0)"/>
<path d="" fill="#F7F7F9" transform="translate(0,0)"/>
<path d="" fill="#F6F7F9" transform="translate(0,0)"/>
<path d="" fill="#F7F8F9" transform="translate(0,0)"/>
<path d="" fill="#F7F9F9" transform="translate(0,0)"/>
<path d="" fill="#F7F7F8" transform="translate(0,0)"/>
<path d="" fill="#F6F7F8" transform="translate(0,0)"/>
<path d="M0 0 C3 1 3 1 3 1 Z " fill="#FBFCFA" transform="translate(772,415)"/>
<path d="M0 0 C3 1 3 1 3 1 Z " fill="#FBFCFC" transform="translate(260,415)"/>
<path d="" fill="#F6F7F7" transform="translate(0,0)"/>
<path d="" fill="#F5F7F8" transform="translate(0,0)"/>
<path d="" fill="#F6F7F6" transform="translate(0,0)"/>
<path d="" fill="#F5F5F6" transform="translate(0,0)"/>
<path d="" fill="#F3F5F4" transform="translate(0,0)"/>
<path d="" fill="#E7E7E8" transform="translate(0,0)"/>
<path d="" fill="#DEDEDF" transform="translate(0,0)"/>
<path d="" fill="#FEFFFF" transform="translate(0,0)"/>
<path d="" fill="#F3F4F5" transform="translate(0,0)"/>
<path d="M0 0 C2 1 2 1 2 1 Z " fill="#FEFEFE" transform="translate(549,775)"/>
<path d="" fill="#F3F4F4" transform="translate(0,0)"/>
<path d="" fill="#F4F5F6" transform="translate(0,0)"/>
<path d="" fill="#FEFFFF" transform="translate(0,0)"/>
<path d="M0 0 C2 1 2 1 2 1 Z " fill="#F8FBFA" transform="translate(836,679)"/>
<path d="M0 0 C2 1 2 1 2 1 Z " fill="#FAFAF9" transform="translate(820,679)"/>
<path d="M0 0 C2 1 2 1 2 1 Z " fill="#F9FAF9" transform="translate(816,679)"/>
<path d="M0 0 C2 1 2 1 2 1 Z " fill="#FAFAF9" transform="translate(740,679)"/>
<path d="M0 0 C2 1 2 1 2 1 Z " fill="#FBFAFA" transform="translate(728,679)"/>
<path d="M0 0 C2 1 2 1 2 1 Z " fill="#FAFAFA" transform="translate(680,679)"/>
<path d="M0 0 C2 1 2 1 2 1 Z " fill="#F9FAF9" transform="translate(664,679)"/>
<path d="M0 0 C2 1 2 1 2 1 Z " fill="#F9F9F9" transform="translate(656,679)"/>
<path d="M0 0 C2 1 2 1 2 1 Z " fill="#FAFAF9" transform="translate(653,679)"/>
<path d="M0 0 C2 1 2 1 2 1 Z " fill="#FAF9F9" transform="translate(400,679)"/>
<path d="M0 0 C2 1 2 1 2 1 Z " fill="#FBFBF9" transform="translate(341,679)"/>
<path d="M0 0 C2 1 2 1 2 1 Z " fill="#FAFAF9" transform="translate(284,679)"/>
<path d="M0 0 C2 1 2 1 2 1 Z " fill="#FBFAFA" transform="translate(276,679)"/>
<path d="M0 0 C2 1 2 1 2 1 Z " fill="#FAF9FB" transform="translate(264,679)"/>
<path d="M0 0 C2 1 2 1 2 1 Z " fill="#FBFAF9" transform="translate(252,679)"/>
<path d="M0 0 C2 1 2 1 2 1 Z " fill="#F9F9F9" transform="translate(240,679)"/>
<path d="M0 0 C2 1 2 1 2 1 Z " fill="#FAFBFA" transform="translate(208,679)"/>
<path d="M0 0 C2 1 2 1 2 1 Z " fill="#FAF9F9" transform="translate(197,679)"/>
<path d="M0 0 C2 1 2 1 2 1 Z " fill="#F8F9F8" transform="translate(176,679)"/>
<path d="M0 0 C2 1 2 1 2 1 Z " fill="#F8F7F8" transform="translate(168,679)"/>
<path d="" fill="#F2F4F4" transform="translate(0,0)"/>
<path d="" fill="#F4F5F7" transform="translate(0,0)"/>
<path d="" fill="#FEFEFE" transform="translate(0,0)"/>
<path d="" fill="#FDFEFF" transform="translate(0,0)"/>
<path d="" fill="#FEFEFF" transform="translate(0,0)"/>
<path d="" fill="#FEFFFF" transform="translate(0,0)"/>
<path d="" fill="#F7F8F9" transform="translate(0,0)"/>
<path d="" fill="#FEFFFF" transform="translate(0,0)"/>
<path d="" fill="#FEFFFE" transform="translate(0,0)"/>
<path d="M0 0 C2 1 2 1 2 1 Z " fill="#FCFCFB" transform="translate(755,415)"/>
<path d="M0 0 C2 1 2 1 2 1 Z " fill="#FCFCFB" transform="translate(747,415)"/>
<path d="M0 0 C2 1 2 1 2 1 Z " fill="#FDFBFA" transform="translate(744,415)"/>
<path d="M0 0 C2 1 2 1 2 1 Z " fill="#FCFCFB" transform="translate(288,415)"/>
<path d="M0 0 C2 1 2 1 2 1 Z " fill="#FCFBFB" transform="translate(284,415)"/>
<path d="M0 0 C2 1 2 1 2 1 Z " fill="#FDFCFC" transform="translate(279,415)"/>
<path d="M0 0 C2 1 2 1 2 1 Z " fill="#FDFBFB" transform="translate(276,415)"/>
<path d="M0 0 C2 1 2 1 2 1 Z " fill="#FDFBFB" transform="translate(272,415)"/>
<path d="M0 0 C2 1 2 1 2 1 Z " fill="#FCFBFB" transform="translate(268,415)"/>
<path d="M0 0 C2 1 2 1 2 1 Z " fill="#FDFCFC" transform="translate(255,415)"/>
<path d="M0 0 C2 1 2 1 2 1 Z " fill="#FBFBFC" transform="translate(252,415)"/>
<path d="M0 0 C2 1 2 1 2 1 Z " fill="#FCFBFB" transform="translate(248,415)"/>
<path d="M0 0 C2 1 2 1 2 1 Z " fill="#FCFCFC" transform="translate(244,415)"/>
<path d="" fill="#FDFDFE" transform="translate(0,0)"/>
<path d="" fill="#FEFFFF" transform="translate(0,0)"/>
<path d="" fill="#F6F6F8" transform="translate(0,0)"/>
<path d="" fill="#FEFFFE" transform="translate(0,0)"/>
<path d="M0 0 C2 1 2 1 2 1 Z " fill="#FEFDFE" transform="translate(205,336)"/>
<path d="" fill="#FDFEFE" transform="translate(0,0)"/>
<path d="" fill="#F3F4F4" transform="translate(0,0)"/>
<path d="" fill="#F3F4F5" transform="translate(0,0)"/>
<path d="" fill="#ECEDED" transform="translate(0,0)"/>
<path d="" fill="#545454" transform="translate(0,0)"/>
<path d="" fill="#F1F0F3" transform="translate(0,0)"/>
<path d="" fill="#E0E1E1" transform="translate(0,0)"/>
<path d="" fill="#F3F5F3" transform="translate(0,0)"/>
<path d="" fill="#E5E4E5" transform="translate(0,0)"/>
<path d="" fill="#E7E7E6" transform="translate(0,0)"/>
<path d="" fill="#EAE9EA" transform="translate(0,0)"/>
<path d="" fill="#FCFDFD" transform="translate(0,0)"/>
<path d="" fill="#F0F2F3" transform="translate(0,0)"/>
<path d="" fill="#F2F2F3" transform="translate(0,0)"/>
<path d="" fill="#FBFDFC" transform="translate(0,0)"/>
<path d="" fill="#F3F4F4" transform="translate(0,0)"/>
<path d="" fill="#FEFFFF" transform="translate(0,0)"/>
<path d="" fill="#FCFFFE" transform="translate(0,0)"/>
<path d="" fill="#F5F5F5" transform="translate(0,0)"/>
<path d="" fill="#F3F4F5" transform="translate(0,0)"/>
<path d="" fill="#F2F2F2" transform="translate(0,0)"/>
<path d="" fill="#FCFEFE" transform="translate(0,0)"/>
<path d="" fill="#FCFFFD" transform="translate(0,0)"/>
<path d="" fill="#FBFFFE" transform="translate(0,0)"/>
<path d="" fill="#FDFEFC" transform="translate(0,0)"/>
<path d="" fill="#FDFEFF" transform="translate(0,0)"/>
<path d="" fill="#FFFFFE" transform="translate(0,0)"/>
<path d="" fill="#FDFEFF" transform="translate(0,0)"/>
<path d="" fill="#FFFFFF" transform="translate(0,0)"/>
<path d="" fill="#FDFEFD" transform="translate(0,0)"/>
<path d="" fill="#FFFFFD" transform="translate(0,0)"/>
<path d="" fill="#F3F4F4" transform="translate(0,0)"/>
<path d="" fill="#FEFFFE" transform="translate(0,0)"/>
<path d="" fill="#FDFDFF" transform="translate(0,0)"/>
<path d="" fill="#FAF9F9" transform="translate(0,0)"/>
<path d="" fill="#FAF9FA" transform="translate(0,0)"/>
<path d="" fill="#FAF9F9" transform="translate(0,0)"/>
<path d="" fill="#FBFBFC" transform="translate(0,0)"/>
<path d="" fill="#F9FAFA" transform="translate(0,0)"/>
<path d="" fill="#FAF9FA" transform="translate(0,0)"/>
<path d="" fill="#F8FAF9" transform="translate(0,0)"/>
<path d="" fill="#FAF9F9" transform="translate(0,0)"/>
<path d="" fill="#FAFAFB" transform="translate(0,0)"/>
<path d="" fill="#FCFBFA" transform="translate(0,0)"/>
<path d="" fill="#F9FAF9" transform="translate(0,0)"/>
<path d="" fill="#FBF9FA" transform="translate(0,0)"/>
<path d="" fill="#FBFAF8" transform="translate(0,0)"/>
<path d="" fill="#F9F8F9" transform="translate(0,0)"/>
<path d="" fill="#FBFAFA" transform="translate(0,0)"/>
<path d="" fill="#FCF9F9" transform="translate(0,0)"/>
<path d="" fill="#FAFCFA" transform="translate(0,0)"/>
<path d="" fill="#FAF9FA" transform="translate(0,0)"/>
<path d="" fill="#F9FAFB" transform="translate(0,0)"/>
<path d="" fill="#FAFBF9" transform="translate(0,0)"/>
<path d="" fill="#FBFAF9" transform="translate(0,0)"/>
<path d="" fill="#FBFAF9" transform="translate(0,0)"/>
<path d="" fill="#F9F9F9" transform="translate(0,0)"/>
<path d="" fill="#F9FAF9" transform="translate(0,0)"/>
<path d="" fill="#F9FAFA" transform="translate(0,0)"/>
<path d="" fill="#FBFBF9" transform="translate(0,0)"/>
<path d="" fill="#FAFAFB" transform="translate(0,0)"/>
<path d="" fill="#FAFAF9" transform="translate(0,0)"/>
<path d="" fill="#FBF9F9" transform="translate(0,0)"/>
<path d="" fill="#FAF9FB" transform="translate(0,0)"/>
<path d="" fill="#F9F9F8" transform="translate(0,0)"/>
<path d="" fill="#F9F8FA" transform="translate(0,0)"/>
<path d="" fill="#FBFAFB" transform="translate(0,0)"/>
<path d="" fill="#F9F9F9" transform="translate(0,0)"/>
<path d="" fill="#F9F8F8" transform="translate(0,0)"/>
<path d="" fill="#F6F5F5" transform="translate(0,0)"/>
<path d="" fill="#F3F6F6" transform="translate(0,0)"/>
<path d="" fill="#FEFEFF" transform="translate(0,0)"/>
<path d="" fill="#F6F7F9" transform="translate(0,0)"/>
<path d="" fill="#FFFFFF" transform="translate(0,0)"/>
<path d="" fill="#F6F6F8" transform="translate(0,0)"/>
<path d="" fill="#F6F7F8" transform="translate(0,0)"/>
<path d="" fill="#FFFEFF" transform="translate(0,0)"/>
<path d="" fill="#F7F8F8" transform="translate(0,0)"/>
<path d="" fill="#FFFEFF" transform="translate(0,0)"/>
<path d="" fill="#FEFFFD" transform="translate(0,0)"/>
<path d="" fill="#F4F7F8" transform="translate(0,0)"/>
<path d="" fill="#FEFFFC" transform="translate(0,0)"/>
<path d="" fill="#F8F8F7" transform="translate(0,0)"/>
<path d="" fill="#FDFFFD" transform="translate(0,0)"/>
<path d="" fill="#FDFFFF" transform="translate(0,0)"/>
<path d="" fill="#F6F7F8" transform="translate(0,0)"/>
<path d="" fill="#FDFEFD" transform="translate(0,0)"/>
<path d="" fill="#FEFFFD" transform="translate(0,0)"/>
<path d="" fill="#FEFDFF" transform="translate(0,0)"/>
<path d="" fill="#FFFFFF" transform="translate(0,0)"/>
<path d="" fill="#FEFDFE" transform="translate(0,0)"/>
<path d="" fill="#FFFEFE" transform="translate(0,0)"/>
<path d="" fill="#F6F9F8" transform="translate(0,0)"/>
<path d="" fill="#FDFCFE" transform="translate(0,0)"/>
<path d="" fill="#FFFEFE" transform="translate(0,0)"/>
<path d="" fill="#FFFFFE" transform="translate(0,0)"/>
<path d="" fill="#FCFCFD" transform="translate(0,0)"/>
<path d="" fill="#F7F8F8" transform="translate(0,0)"/>
<path d="" fill="#FCFEFD" transform="translate(0,0)"/>
<path d="" fill="#FDFFFF" transform="translate(0,0)"/>
<path d="" fill="#F8F8F9" transform="translate(0,0)"/>
<path d="" fill="#FFFFFF" transform="translate(0,0)"/>
<path d="" fill="#F8F8FA" transform="translate(0,0)"/>
<path d="" fill="#F7FAF9" transform="translate(0,0)"/>
<path d="" fill="#FDFDFE" transform="translate(0,0)"/>
<path d="" fill="#F7F9F9" transform="translate(0,0)"/>
<path d="" fill="#F7F9F9" transform="translate(0,0)"/>
<path d="" fill="#FFFFFF" transform="translate(0,0)"/>
<path d="" fill="#FDFFFF" transform="translate(0,0)"/>
<path d="" fill="#FDFFFE" transform="translate(0,0)"/>
<path d="" fill="#FCFCFD" transform="translate(0,0)"/>
<path d="" fill="#F7FAFA" transform="translate(0,0)"/>
<path d="" fill="#FFFEFF" transform="translate(0,0)"/>
<path d="" fill="#F7F9F9" transform="translate(0,0)"/>
<path d="" fill="#FEFFFE" transform="translate(0,0)"/>
<path d="" fill="#F8F9F9" transform="translate(0,0)"/>
<path d="" fill="#F8F9F8" transform="translate(0,0)"/>
<path d="" fill="#F7F8F9" transform="translate(0,0)"/>
<path d="" fill="#F8F9F9" transform="translate(0,0)"/>
<path d="" fill="#FEFFFF" transform="translate(0,0)"/>
<path d="" fill="#FEFDFD" transform="translate(0,0)"/>
<path d="" fill="#FFFEFE" transform="translate(0,0)"/>
<path d="" fill="#FDFFFE" transform="translate(0,0)"/>
<path d="" fill="#F8F7F9" transform="translate(0,0)"/>
<path d="" fill="#FDFDFD" transform="translate(0,0)"/>
<path d="" fill="#FFFFFF" transform="translate(0,0)"/>
<path d="" fill="#FEFEFE" transform="translate(0,0)"/>
<path d="" fill="#FEFDFF" transform="translate(0,0)"/>
<path d="" fill="#FDFDFE" transform="translate(0,0)"/>
<path d="" fill="#F8F9F9" transform="translate(0,0)"/>
<path d="" fill="#FDFEFD" transform="translate(0,0)"/>
<path d="" fill="#F6F8F9" transform="translate(0,0)"/>
<path d="" fill="#F8F9F9" transform="translate(0,0)"/>
<path d="" fill="#FEFFFF" transform="translate(0,0)"/>
<path d="" fill="#FDFFFE" transform="translate(0,0)"/>
<path d="" fill="#FEFCFD" transform="translate(0,0)"/>
<path d="" fill="#FEFFFD" transform="translate(0,0)"/>
<path d="" fill="#F6F8F9" transform="translate(0,0)"/>
<path d="" fill="#F6F8F8" transform="translate(0,0)"/>
<path d="" fill="#FBFDFB" transform="translate(0,0)"/>
<path d="" fill="#FDFDFB" transform="translate(0,0)"/>
<path d="" fill="#FBFBFB" transform="translate(0,0)"/>
<path d="" fill="#FCFBFB" transform="translate(0,0)"/>
<path d="" fill="#FBFCFB" transform="translate(0,0)"/>
<path d="" fill="#FCFDFB" transform="translate(0,0)"/>
<path d="" fill="#FDFAFA" transform="translate(0,0)"/>
<path d="" fill="#FCFCFB" transform="translate(0,0)"/>
<path d="" fill="#FFFDFE" transform="translate(0,0)"/>
<path d="" fill="#FFFDFB" transform="translate(0,0)"/>
<path d="" fill="#FEFDFE" transform="translate(0,0)"/>
<path d="" fill="#FDFDFB" transform="translate(0,0)"/>
<path d="" fill="#FEFFFE" transform="translate(0,0)"/>
<path d="" fill="#FEFFFD" transform="translate(0,0)"/>
<path d="" fill="#F5F7F8" transform="translate(0,0)"/>
<path d="" fill="#F5F7F9" transform="translate(0,0)"/>
<path d="" fill="#F7F8F7" transform="translate(0,0)"/>
<path d="" fill="#FFFEFE" transform="translate(0,0)"/>
<path d="" fill="#F5F7F8" transform="translate(0,0)"/>
<path d="" fill="#F7F6F8" transform="translate(0,0)"/>
<path d="" fill="#FEFEFD" transform="translate(0,0)"/>
<path d="" fill="#F6F8F7" transform="translate(0,0)"/>
<path d="" fill="#F6F7F7" transform="translate(0,0)"/>
<path d="" fill="#FCFCFB" transform="translate(0,0)"/>
<path d="" fill="#FEFFFD" transform="translate(0,0)"/>
<path d="" fill="#F6F8F7" transform="translate(0,0)"/>
<path d="" fill="#F5F8F6" transform="translate(0,0)"/>
<path d="" fill="#FEFDFE" transform="translate(0,0)"/>
<path d="" fill="#FFFDFE" transform="translate(0,0)"/>
<path d="" fill="#FEFEFF" transform="translate(0,0)"/>
<path d="" fill="#FEFFFF" transform="translate(0,0)"/>
<path d="" fill="#FFFFFD" transform="translate(0,0)"/>
<path d="" fill="#FFFFFE" transform="translate(0,0)"/>
<path d="" fill="#FEFFFF" transform="translate(0,0)"/>
<path d="" fill="#FCFEFD" transform="translate(0,0)"/>
<path d="" fill="#FEFDFE" transform="translate(0,0)"/>
<path d="" fill="#FEFFFF" transform="translate(0,0)"/>
<path d="" fill="#FEFEFF" transform="translate(0,0)"/>
<path d="" fill="#FEFFFF" transform="translate(0,0)"/>
<path d="" fill="#FDFEFD" transform="translate(0,0)"/>
<path d="" fill="#FDFEFB" transform="translate(0,0)"/>
<path d="" fill="#FDFCFE" transform="translate(0,0)"/>
<path d="" fill="#F3F5F4" transform="translate(0,0)"/>
<path d="" fill="#F4F5F5" transform="translate(0,0)"/>
<path d="" fill="#F4F6F7" transform="translate(0,0)"/>
<path d="" fill="#F4F6F5" transform="translate(0,0)"/>
<path d="" fill="#F3F5F4" transform="translate(0,0)"/>
<path d="" fill="#F5F5F6" transform="translate(0,0)"/>
<path d="" fill="#F1F3F3" transform="translate(0,0)"/>
<path d="" fill="#F0F0F0" transform="translate(0,0)"/>
<path d="" fill="#ECECED" transform="translate(0,0)"/>
<path d="" fill="#E9EBEA" transform="translate(0,0)"/>
<path d="" fill="#DEDFDE" transform="translate(0,0)"/>
<path d="" fill="#DBDBDA" transform="translate(0,0)"/>
<path d="" fill="#F2F4F2" transform="translate(0,0)"/>
<path d="" fill="#F1F2F1" transform="translate(0,0)"/>
<path d="" fill="#F2F4F4" transform="translate(0,0)"/>
<path d="" fill="#F3F4F3" transform="translate(0,0)"/>
<path d="" fill="#F3F4F3" transform="translate(0,0)"/>
<path d="" fill="#F3F5F3" transform="translate(0,0)"/>
<path d="" fill="#F2F3F3" transform="translate(0,0)"/>
<path d="" fill="#F1F1F1" transform="translate(0,0)"/>
<path d="" fill="#F2F4F1" transform="translate(0,0)"/>
<path d="" fill="#F3F3F2" transform="translate(0,0)"/>
<path d="" fill="#F2F4F2" transform="translate(0,0)"/>
<path d="" fill="#F1F2F1" transform="translate(0,0)"/>
<path d="" fill="#F3F2F2" transform="translate(0,0)"/>
<path d="" fill="#F3F4F4" transform="translate(0,0)"/>
<path d="" fill="#F1F0F0" transform="translate(0,0)"/>
<path d="" fill="#F0F3F3" transform="translate(0,0)"/>
</svg>
