<svg xmlns="http://www.w3.org/2000/svg" fill="none" viewBox="0 0 41 41" height="41" width="41">
<path fill="#FB513B" d="M15.6167 14.902C17.6884 14.902 19.7136 15.5163 21.4362 16.6673C23.1587 17.8182 24.5013 19.4542 25.2941 21.3682C26.0869 23.2822 26.2944 25.3883 25.8902 27.4202C25.486 29.4521 24.4884 31.3186 23.0235 32.7835C21.5586 34.2484 19.6921 35.246 17.6602 35.6502C15.6283 36.0544 13.5222 35.8469 11.6082 35.0541C9.69418 34.2613 8.05827 32.9187 6.90729 31.1962C5.75631 29.4736 5.14197 27.4484 5.14197 25.3767C5.14497 22.5995 6.24952 19.937 8.21326 17.9733C10.177 16.0095 12.8396 14.905 15.6167 14.902ZM15.6167 9.76001C12.528 9.76001 9.50869 10.6759 6.94054 12.3919C4.37239 14.1079 2.37075 16.5469 1.18876 19.4005C0.00676653 22.254 -0.302496 25.394 0.300077 28.4234C0.902651 31.4527 2.39 34.2353 4.57403 36.4194C6.75807 38.6034 9.5407 40.0908 12.57 40.6933C15.5994 41.2959 18.7394 40.9866 21.593 39.8046C24.4465 38.6227 26.8855 36.621 28.6015 34.0529C30.3175 31.4847 31.2334 28.4654 31.2334 25.3767C31.2334 23.3259 30.8295 21.2952 30.0447 19.4005C29.2598 17.5057 28.1095 15.7842 26.6594 14.334C25.2092 12.8839 23.4877 11.7336 21.593 10.9488C19.6983 10.1639 17.6675 9.76001 15.6167 9.76001Z"></path>
<path fill="#FB513B" d="M34.1645 3.92633C34.7398 3.92633 35.3022 4.09696 35.7805 4.41664C36.2589 4.73632 36.6316 5.19068 36.8517 5.72225C37.0717 6.25382 37.1292 6.83872 37.0168 7.40295C36.9044 7.96719 36.6272 8.48541 36.2202 8.89206C35.8132 9.29872 35.2948 9.57553 34.7305 9.6875C34.1661 9.79946 33.5813 9.74154 33.0499 9.52106C32.5185 9.30059 32.0644 8.92746 31.7451 8.44888C31.4258 7.97029 31.2556 7.40777 31.2561 6.83244C31.2573 6.06167 31.5642 5.32284 32.1094 4.77804C32.6546 4.23323 33.3937 3.92693 34.1645 3.92633ZM34.1645 0C32.8131 0 31.4922 0.400718 30.3686 1.15148C29.245 1.90224 28.3692 2.96932 27.8521 4.21778C27.335 5.46625 27.1997 6.84002 27.4633 8.16539C27.727 9.49075 28.3777 10.7082 29.3332 11.6637C30.2887 12.6192 31.5062 13.27 32.8315 13.5336C34.1569 13.7972 35.5307 13.6619 36.7791 13.1448C38.0276 12.6277 39.0947 11.7519 39.8455 10.6283C40.5962 9.50476 40.9969 8.18377 40.9969 6.83244C40.9969 5.02037 40.2771 3.28251 38.9957 2.00118C37.7144 0.719848 35.9766 0 34.1645 0Z"></path>
</svg>
