<svg xmlns="http://www.w3.org/2000/svg" viewBox="0 0 100 100" fill="#f43f5e">
  <title>profClaw</title>
  <ellipse cx="50" cy="54" rx="24" ry="22"/>
  <rect x="39" y="73" width="8" height="10" rx="4" fill="#be123c"/>
  <rect x="53" y="73" width="8" height="10" rx="4" fill="#be123c"/>
  <ellipse cx="20" cy="54" rx="8" ry="6" fill="#be123c"/>
  <ellipse cx="80" cy="54" rx="8" ry="6" fill="#be123c"/>
  <line x1="39" y1="34" x2="31" y2="20" stroke="#be123c" stroke-width="2.2" stroke-linecap="round"/>
  <circle cx="30" cy="18" r="3.5" fill="#fda4af"/>
  <line x1="61" y1="34" x2="69" y2="20" stroke="#be123c" stroke-width="2.2" stroke-linecap="round"/>
  <circle cx="70" cy="18" r="3.5" fill="#fda4af"/>
  <circle cx="43" cy="51" r="6.5" fill="#fff"/>
  <circle cx="57" cy="51" r="6.5" fill="#fff"/>
  <circle cx="44.5" cy="50" r="3.5" fill="#4c0519"/>
  <circle cx="58.5" cy="50" r="3.5" fill="#4c0519"/>
  <circle cx="46" cy="48.5" r="1.4" fill="#fff"/>
  <circle cx="60" cy="48.5" r="1.4" fill="#fff"/>
  <path d="M45,63 Q50,68 57,62" stroke="#9f1239" stroke-width="2" fill="none" stroke-linecap="round"/>
</svg>
