<svg xmlns="http://www.w3.org/2000/svg" viewBox="0 0 24 24" fill="#f43f5e">
  <title>profClaw</title>
  <ellipse cx="12" cy="13" rx="5.8" ry="5.3"/>
  <rect x="9.4" y="17.5" width="1.9" height="2.4" rx="1" fill="#be123c"/>
  <rect x="12.7" y="17.5" width="1.9" height="2.4" rx="1" fill="#be123c"/>
  <ellipse cx="4.8" cy="13" rx="1.9" ry="1.4" fill="#be123c"/>
  <ellipse cx="19.2" cy="13" rx="1.9" ry="1.4" fill="#be123c"/>
  <line x1="9.4" y1="8.2" x2="7.4" y2="4.8" stroke="#be123c" stroke-width=".55" stroke-linecap="round"/>
  <circle cx="7.2" cy="4.3" r=".85" fill="#fda4af"/>
  <line x1="14.6" y1="8.2" x2="16.6" y2="4.8" stroke="#be123c" stroke-width=".55" stroke-linecap="round"/>
  <circle cx="16.8" cy="4.3" r=".85" fill="#fda4af"/>
  <circle cx="10.3" cy="12.2" r="1.6" fill="#fff"/>
  <circle cx="13.7" cy="12.2" r="1.6" fill="#fff"/>
  <circle cx="10.7" cy="12" r=".85" fill="#4c0519"/>
  <circle cx="14.1" cy="12" r=".85" fill="#4c0519"/>
  <circle cx="11" cy="11.6" r=".34" fill="#fff"/>
  <circle cx="14.4" cy="11.6" r=".34" fill="#fff"/>
  <path d="M10.8,15.1 Q12,16.3 13.7,14.9" stroke="#9f1239" stroke-width=".5" fill="none" stroke-linecap="round"/>
</svg>
