<svg version="1.2" xmlns="http://www.w3.org/2000/svg" viewBox="0 0 1585 326" width="1585" height="326">
	<title>Ngern Tid Lor</title>
	<defs>
		<clipPath clipPathUnits="userSpaceOnUse" id="cp1">
			<path d="m25.38 99.86l75.95 76.43c0 0 25.35-51.72 72.13-92.72 29.47-25.83 67.41-47.39 112.88-49.11 0.64-0.03 1.33-0.07 1.98-0.08 0 0-35.17-27.16-89.94-27.16-46.65 0-107.53 19.7-173 92.64z"/>
		</clipPath>
		<linearGradient id="g1" x1="25.4" y1="91.8" x2="288.3" y2="91.8" gradientUnits="userSpaceOnUse">
			<stop offset="0" stop-color="#ed3f36"/>
			<stop offset="1" stop-color="#b31f2a"/>
		</linearGradient>
		<clipPath clipPathUnits="userSpaceOnUse" id="cp2">
			<path d="m160.16 242.43c-29.45 25.82-67.4 47.38-112.87 49.1-0.67 0.03-1.32 0.08-1.99 0.08 0 0 120.6 93.12 262.94-65.47l-75.92-76.97c0 0-25.39 52.25-72.16 93.26z"/>
		</clipPath>
		<linearGradient id="g2" x1="45.3" y1="234" x2="308.2" y2="234" gradientUnits="userSpaceOnUse">
			<stop offset="0" stop-color="#ed3f36"/>
			<stop offset="1" stop-color="#b31f2a"/>
		</linearGradient>
		<clipPath clipPathUnits="userSpaceOnUse" id="cp3">
			<path d="m185.3 86.64c18.65 8.15 53.41 31.12 88.96 85.12l52.22-100.62c-8.94-11.27-21.2-22.9-29.11-29.79-66.79 0.05-101.38 33.86-112.07 45.29z"/>
		</clipPath>
		<linearGradient id="g3" x1="185.3" y1="106.6" x2="326.5" y2="106.6" gradientUnits="userSpaceOnUse">
			<stop offset="0" stop-color="#2a3b8e"/>
			<stop offset="1" stop-color="#1c75ba"/>
		</linearGradient>
		<clipPath clipPathUnits="userSpaceOnUse" id="cp4">
			<path d="m8.59 255.55c8.73 11.03 21.87 23.61 31.88 32.04 43.05-7.56 71.97-13.4 107.85-46.66-18.9-8.58-52.81-33.3-87.52-85.98 0 0-52.21 100.6-52.21 100.6z"/>
		</clipPath>
		<linearGradient id="g4" x1="8.6" y1="221.3" x2="148.3" y2="221.3" gradientUnits="userSpaceOnUse">
			<stop offset="0" stop-color="#1c75ba"/>
			<stop offset="1" stop-color="#2a3b8e"/>
		</linearGradient>
	</defs>
	<style>
		.s0 { fill: #ffffff } 
		.s1 { fill: url(#g1) } 
		.s2 { fill: url(#g2) } 
		.s3 { fill: url(#g3) } 
		.s4 { fill: url(#g4) } 
		.s5 { fill: #0768b0 } 
	</style>
	<g id="Layer">
		<path id="Layer" fill-rule="evenodd" class="s0" d="m135.4 326c-55.8 0-92.1-26.8-94.4-28.6l-22.1-19.5-0.3-0.5-0.4-0.4c-0.4-0.5-11.1-11.6-15.3-17l-2.9-3.6 58.6-112.9-43.2-43.4 4.5-5.1c30.8-34.2 63-59.5 95.8-75.3 27.2-13.1 54.9-19.7 82.5-19.7 56.8 0 93.1 27.5 94.6 28.7 8.1 6 20.6 16 22.7 19.5l0.3 0.4 0.4 0.4c6.3 6.3 11.7 12.2 16 17.7l2.9 3.6-58.7 113.2 41.8 42.4-4.5 5c-30.7 34.2-62.9 59.6-95.8 75.4-27.1 13-54.9 19.7-82.5 19.7z"/>
		<g id="Layer">
			<g id="Clip-Path" clip-path="url(#cp1)">
				<path id="Layer" fill-rule="evenodd" class="s1" d="m25.4 99.9l75.9 76.4c0 0 25.4-51.7 72.2-92.7 29.4-25.9 67.4-47.4 112.8-49.1 0.7-0.1 1.4-0.1 2-0.1 0 0-35.1-27.2-89.9-27.2-46.7 0-107.5 19.7-173 92.7z"/>
			</g>
		</g>
		<g id="Layer">
			<g id="Clip-Path" clip-path="url(#cp2)">
				<path id="Layer" fill-rule="evenodd" class="s2" d="m160.2 242.4c-29.5 25.8-67.4 47.4-112.9 49.1-0.7 0.1-1.3 0.1-2 0.1 0 0 120.6 93.1 262.9-65.5l-75.9-76.9c0 0-25.4 52.2-72.1 93.2z"/>
			</g>
		</g>
		<g id="Layer">
			<g id="Clip-Path" clip-path="url(#cp3)">
				<path id="Layer" fill-rule="evenodd" class="s3" d="m185.3 86.6c18.6 8.2 53.4 31.2 89 85.2l52.2-100.7c-9-11.2-21.2-22.9-29.1-29.8-66.8 0.1-101.4 33.9-112.1 45.3z"/>
			</g>
		</g>
		<g id="Layer">
			<g id="Clip-Path" clip-path="url(#cp4)">
				<path id="Layer" fill-rule="evenodd" class="s4" d="m8.6 255.6c8.7 11 21.9 23.6 31.9 32 43-7.6 71.9-13.4 107.8-46.7-18.9-8.6-52.8-33.3-87.5-85.9 0 0-52.2 100.6-52.2 100.6z"/>
			</g>
		</g>
		<g id="Layer">
			<path id="Layer" fill-rule="evenodd" class="s5" d="m1461.4 145.4l-6.3 24.1h-14l-1.7 5.6c-1.2 5.2-2.8 11.7-2.9 15-0.2 7.7 1.8 13.9 6.2 18.3 5.4 5.6 14.5 8.5 26.9 8.5 13.6 0 24.6-3.4 32.6-10 10.1-8.1 18.1-22.8 23.8-43.5 2.3-8.5 3.6-16.1 3.9-22.6 0.2-9.9-2.3-17.8-7.6-23.2-5.9-6-15.1-9.1-27.6-9.1-10.7 0-20.3 2.8-28.6 8.3-5.7 3.8-10 8-12.9 12.6h-49.1c6.2-12.1 16.9-22.4 31.9-30.6 18.5-10.1 42.2-15.6 69.7-15.6 29.7 0 50.3 6.6 62.2 18.8 8.3 8.5 12.3 20.4 11.9 35.2-0.2 7.4-1.5 15.8-3.8 24.9-14.6 54.1-52.6 80.7-113.8 79.5-30.5-0.7-51.2-6.5-62.6-18.5-8.5-8.9-12.4-21.6-11.9-38.6 0.2-8.1 2.2-17.7 4.9-26.5 1.3-5.4 2.8-9.7 4.3-12.6zm-1065.5-59.5h43.8l-41.7 153.8h-43.5zm489.7 0q0.2 0 0.4 0 0.3 0 0.5 0 0.2 0 0.5 0h0.3q0.8 0 1.6 0 0.9 0.1 1.7 0.2 0.8 0 1.6 0.1 0.9 0.1 1.7 0.3c5.2 1 8.7 3.9 8.9 4.1l14.8 11c1.5 1 2.7 1.2 3.4 1.2h0.5c2.9-0.4 7.7-3.4 8.6-4l20.3-12.9h50.4l-41.1 153.9h-44.2l34.1-127.2-31.1 18.9c-1.3 0.9-5.6 3.3-8.1 3.3-1.4 0-5.4-2.7-8.1-5.3l-12.7-11.2c-0.3-0.2-1.8-1.4-4-1.4q-1.7 0-3.2 1c-11.7 7.3-20.8 23.1-26.8 46.8-0.8 3.7-1.5 7.1-2.2 10.3-0.6 3.4-1 6.4-1 9.1-0.2 8.6 2.1 15.5 7 20.5 6.1 6.2 16.1 9.5 29.9 9.6l-6.7 25.5h-31.2c-17.9 0.4-30.9-2.5-39.2-10.9-7.6-7.9-11.3-19.8-10.9-35.5q0.1-1.6 0.2-3.3 0-1.6 0.2-3.2 0.1-1.6 0.3-3.2 0.2-1.7 0.4-3.3c0.6-4.4 1.7-9.1 3.3-14.5 6.6-25 17.3-44.9 31.7-59.3 13.7-13.7 29.8-20.6 47.7-20.6q0.2 0 0.5 0zm-195.4 0l-22.4 82.5c-1.3 4.8-3.5 13.9-4 21.2-0.3 5.6 1.4 10.7 4.9 14.5 4 4.2 10 6.5 17.3 6.5 15.9 0 32.3-12.9 43.9-34.6l0.2-0.4q0-0.1 0.2-0.4c0.6-1.1 2-3.6 4.5-11l22.5-78.3h44.1l-26.3 96.5c-7.2 26.3-13.5 49.4-16 57.4h-43.5l9.4-32.3-7 7.4c-16.6 17.7-37.2 26.7-61.5 26.7-14.6 0-25.1-3.3-31.4-10.1-6.2-6.5-8.7-16.2-7.8-29.7 0.5-8.8 2.3-18.1 5.4-28.6l23.7-87.3c0 0 43.8 0 43.8 0zm610.1-59.5l-15.6 0.1 3.7-12.7c2.1-0.5 15.7-3.3 42.6-4.3h13.2l-8.1 28.7 87.5 0.3-4.5 18.8-127.6-0.2zm-211.9 93c-2.2 0.3-5.4 1.4-5.6 1.5-22 7.7-30.9 29.8-34.3 42.4q-1.3 5.6-2.3 10.3c-0.7 3.4-1 6.3-1.1 9-0.2 7.9 2.2 14.6 7.3 19.7 7 7.3 18.9 11.2 34.3 11.4l-7.6 26-26.8 0.1c-19.3 0.4-33.9-3.1-42.6-11.9-7.5-7.8-11.1-19.4-10.7-34.5 0-3.2 0.2-9.2 1-14.1q0.3-1.9 0.6-3.7 0.4-1.8 0.8-3.6 0.5-1.8 1-3.6 0.5-1.8 1-3.5c7.8-27.8 16.8-44.3 31.2-56.9 23.6-20.6 54.4-22.1 81.4-22.1h78.6l-41.3 153.9h-46.7l32.3-120.3-3.1-0.1zm-231.5-62.3l6.1-23.2c9.5-0.6 58.2-4.7 109.2-6.8l43.5 2.3-7.6 27.7zm-321.4 149.2l26.2-97.1h-22.2l6.2-23.3h67l-41.5 153.8h-69.8c-13.2 0-16.6-11.9-17.4-13.2l-39.5-106.1h43.7c4.8 13.4 28.1 74.6 32.6 84.3q0.2 0.4 0.5 0.8 0.2 0.5 0.4 0.9 0.3 0.4 0.5 0.8 0.3 0.4 0.6 0.8l0.3 0.5c0.8 1 1.9 1.7 3 2.1 1.2 0.4 2.5 0.6 3.7 0.4 1.3-0.2 2.4-0.7 3.4-1.5 1-0.8 1.8-1.8 2.3-2.9 0 0 0-0.3 0-0.3zm-64.2-149.2v-0.1l6.1-23.1c9.4-0.7 58.1-4.7 109.1-6.9l43.5 2.4-7.5 27.6c0 0-151.2 0.1-151.2 0.1zm908.9 63.6q0 2.2-0.3 4.5c-0.2 1.4-0.5 2.9-0.9 4.8l-29.2 109.7h-45.9l17.8-65.3-52-0.2h-0.7c-7.6 0-14 1.8-19.1 5.4q-7.9 5.5-9.9 13.1c-1.9 8.3 0.6 16.7 8.4 20.6 3.2 1.5 6.6 2.1 10.1 2.3 0.9 0.1 10.1 0.6 10.3 0.1l-7.3 24h-6.9c-36 0-48-2.2-56.1-9.6-9.1-8.4-11.6-20.4-7.6-36.6 1.5-6.3 4.3-12.4 8.5-18.3 4.1-5.8 9.4-11.1 15.7-15.5 6.3-4.4 13.8-7.9 22.3-10.5 8.1-2.4 17.2-3.6 27-3.6q0.2 0 0.4 0 0.2 0 0.5 0 0.2 0 0.4 0 0.2 0 0.4 0l55.6-0.1h7.4l0.1-1.5c0.1-0.2 0.5-1.6 0.9-3 0.8-2.5 1.1-3.5 1.2-4l1.4-5.3c0.5-1.3 0.7-3 0.8-5.1 0.1-4.7-1.3-8.6-4.2-11.6-4.9-5.1-13.7-7.5-26.9-7.5-9.4 0-17.8 1.8-25.1 5.4-8 4.2-13.1 9.5-15.7 16.6h-50.1c4.9-13.8 15-24.5 30.5-32.6 16.9-8.9 39.5-13.4 67.1-13.4 32.5 0 53.3 5.2 63.5 15.8 5.4 5.5 7.9 12.5 7.6 21.4zm187.9 107.2q0 0.2 0 0.4 0 0.3-0.1 0.5 0 0.2-0.1 0.4-0.1 0.2-0.2 0.4-0.4 0.8-1.2 1.3-0.2 0.1-0.4 0.2-0.2 0.1-0.4 0.2-0.2 0.1-0.4 0.2-0.3 0.1-0.5 0.1-0.2 0.1-0.5 0.2-0.2 0-0.5 0-0.2 0.1-0.5 0.1-0.3 0-0.5 0-0.3 0-0.5 0-0.3 0-0.6 0-0.2-0.1-0.5-0.1-0.2-0.1-0.5-0.2-0.2 0-0.5-0.1-0.2-0.1-0.4-0.2-0.3-0.1-0.5-0.3-0.2-0.1-0.4-0.2-0.2-0.2-0.4-0.4-0.1-0.1-0.3-0.3-0.2-0.2-0.3-0.4-0.1-0.2-0.2-0.4-0.2-0.3-0.2-0.6-0.1-0.2-0.2-0.5 0-0.3-0.1-0.5 0-0.3 0-0.6h1.7q0 0.2 0 0.4 0 0.1 0.1 0.3 0 0.2 0.1 0.4 0 0.2 0.1 0.3 0.3 0.6 0.9 1 0.1 0.1 0.3 0.2 0.1 0.1 0.3 0.2 0.1 0.1 0.3 0.1 0.1 0.1 0.3 0.2 0.7 0.2 1.4 0.2 0.8-0.1 1.5-0.2 0.1 0 0.3-0.1 0.1 0 0.3-0.1 0.1 0 0.3-0.1 0.1-0.1 0.2-0.2 0.1 0 0.2-0.1 0.1-0.1 0.2-0.2 0.1-0.1 0.2-0.2 0.1-0.1 0.2-0.2 0-0.1 0.1-0.3 0-0.1 0.1-0.3 0-0.1 0-0.2 0-0.2 0-0.3 0-0.2 0-0.3 0-0.2 0-0.3-0.1-0.1-0.1-0.3-0.1-0.1-0.2-0.2 0-0.2-0.1-0.3-0.1-0.1-0.2-0.1-0.1-0.1-0.2-0.2-0.2-0.1-0.3-0.1-0.1-0.1-0.3-0.2-0.1-0.1-0.3-0.1-0.2-0.1-0.3-0.1-0.2-0.1-0.4-0.1-0.7-0.2-1.7-0.4-1-0.3-1.9-0.5-0.8-0.2-1.4-0.6-0.2-0.1-0.3-0.3-0.2-0.1-0.3-0.2-0.1-0.2-0.2-0.3-0.1-0.2-0.2-0.3-0.1-0.2-0.2-0.4 0-0.3-0.1-0.5 0-0.2 0-0.4-0.1-0.3-0.1-0.5 0-0.2 0.1-0.4 0-0.2 0-0.4 0.1-0.2 0.2-0.4 0-0.2 0.1-0.4 0.1-0.2 0.2-0.3 0.2-0.2 0.3-0.3 0.1-0.2 0.3-0.3 0.1-0.2 0.3-0.3 0.2-0.1 0.4-0.2 0.1-0.1 0.3-0.2 0.2-0.1 0.4-0.2 0.2 0 0.5-0.1 0.8-0.3 1.8-0.3 1.3 0 2.3 0.3 0.9 0.4 1.5 0.9 0.1 0.2 0.3 0.4 0.1 0.1 0.2 0.3 0.1 0.2 0.2 0.3 0.1 0.2 0.2 0.4 0.3 0.8 0.3 1.7l-1.6 0.1q0-0.2-0.1-0.3 0-0.2 0-0.3-0.1-0.2-0.1-0.3-0.1-0.2-0.1-0.3-0.1-0.1-0.2-0.2 0-0.2-0.1-0.3-0.1-0.1-0.2-0.2-0.1-0.1-0.2-0.2-0.1-0.1-0.2-0.2-0.1-0.1-0.2-0.1-0.2-0.1-0.3-0.2-0.1 0-0.3-0.1-0.1 0-0.3-0.1-0.2 0-0.3 0-0.2-0.1-0.4-0.1-0.1 0-0.3 0-0.7 0-1.2 0.2-0.2 0-0.3 0.1-0.1 0-0.3 0.1-0.1 0-0.2 0.1-0.1 0-0.2 0.1-0.1 0.1-0.2 0.2-0.1 0-0.2 0.1-0.1 0.1-0.2 0.2 0 0.1-0.1 0.2-0.1 0.1-0.1 0.3-0.1 0.1-0.1 0.2 0 0.1 0 0.3 0 0.1 0 0.2 0 0.1 0 0.3 0 0.1 0 0.2 0 0.1 0.1 0.3 0 0.1 0.1 0.2 0.1 0.4 0.6 0.6 0.4 0.2 1 0.4 0.6 0.1 1.5 0.4 0.7 0.1 1.3 0.3 0.7 0.1 1.3 0.3 0.6 0.2 1.1 0.5 0.1 0 0.2 0.1 0.1 0.1 0.3 0.2 0.1 0.1 0.2 0.2 0.1 0.1 0.2 0.2 0.1 0.1 0.2 0.2 0.1 0.1 0.1 0.3 0.1 0.1 0.2 0.2 0 0.2 0.1 0.3 0.2 0.6 0.2 1.5zm14-8.2l-4.2 11.7h-1.5l-4.5-11.7 0.2 11.8h-1.7l-0.2-13.9h2.5l4.4 11.6 4.1-11.7h2.5l0.2 13.8h-1.7z"/>
		</g>
	</g>
</svg>