<svg role="img" xmlns="http://www.w3.org/2000/svg" fill="currentColor" viewBox="0 0 192 192">
  <title>Google Keep</title>
  <g><circle cx="96" cy="78" r="70"/><g><path d="M52 124c0-38.137 14.81-60 44-60s44 21.863 44 60c0 33.137-19.699 60-44 60s-44-26.863-44-60"/></g><g><path d="M64 102c0-17.673 14.327-32 32-32s32 14.327 32 32v52c0 17.673-14.327 32-32 32s-32-14.327-32-32z"/></g><path d="M78 127c0-7.18 5.82-13 13-13h10c7.18 0 13 5.82 13 13s-5.82 13-13 13H91c-7.18 0-13-5.82-13-13"/></g><g><path d="M96 56c-18.4 0-32 14.4-32 33.6v62.8c0 19.2 13.6 33.6 32 33.6s32-14.4 32-33.6V89.6C128 70.4 114.4 56 96 56"/></g>
</svg>
