<svg xmlns="http://www.w3.org/2000/svg" xmlns:xlink="http://www.w3.org/1999/xlink" data-stacking-context="true" aria-owns="root" width="1216" height="512" viewBox="32 32 1216 512"><!-- Generated by dom-to-svg from about:srcdoc --><style/><g data-stacking-layer="rootBackgroundAndBorders"/><g data-stacking-layer="childStackingContextsWithNegativeStackLevels"/><g data-stacking-layer="inFlowNonInlineNonPositionedDescendants"/><g data-stacking-layer="nonPositionedFloats"/><g data-stacking-layer="inFlowInlineLevelNonPositionedDescendants"/><g data-stacking-layer="childStackingContextsWithStackLevelZeroAndPositionedDescendantsWithStackLevelZero"/><g data-stacking-layer="childStackingContextsWithPositiveStackLevels"/><g data-tag="div" id="root" data-z-index="auto" aria-owns="svg1"><g data-tag="svg" id="svg1" data-z-index="auto" mask="url(#mask-for-svg11)"><mask id="mask-for-svg11"><rect width="512" height="512" x="32" y="32" fill="#ffffff"/></mask><g class="svg-content" data-view-box="0 0 64 64" data-width="512" data-height="512" transform="matrix(8 0 0 8 32 32)">
  <path d="M16 0C24.8365 0 32 7.16344 32 16L32 36H0V16C0 7.16344 7.16344 0 16 0Z" fill="url(&quot;#svg1-paint0_linear_5655_147842&quot;)" alignment-baseline="baseline" baseline-shift="baseline" color="rgb(0, 0, 0)" stroke="none"/>
  <path d="M48 0C39.1635 0 32 7.16344 32 16L32 36H64V16C64 7.16344 56.8366 0 48 0Z" fill="url(&quot;#svg1-paint1_linear_5655_147842&quot;)" alignment-baseline="baseline" baseline-shift="baseline" color="rgb(0, 0, 0)" stroke="none"/>
  <path d="M48 26C48 17.1634 40.8365 10 32 10C23.1634 10 16 17.1634 16 26C16 34.8366 23.1634 42 32 42C40.8365 42 48 34.8366 48 26Z" fill="url(&quot;#svg1-paint2_linear_5655_147842&quot;)" alignment-baseline="baseline" baseline-shift="baseline" color="rgb(0, 0, 0)" stroke="none"/>
  <path d="M64 15.9998C64 15.8951 63.999 15.7907 63.997 15.6865H63.9857C63.5971 25.0104 55.3287 32.5199 45 32.9777V32.9998C36.1634 32.9998 29 39.9394 29 48.4998C29 57.0602 36.1634 63.9998 45 63.9998L45.0958 63.9995C61.012 63.9369 64 48.2769 64 40.9998V15.9998Z" fill="url(&quot;#svg1-paint3_linear_5655_147842&quot;)" alignment-baseline="baseline" baseline-shift="baseline" color="rgb(0, 0, 0)" stroke="none"/>
  <path d="M0 40.9998C0 48.2769 2.98802 63.9369 18.9042 63.9995L19 63.9998C27.8366 63.9998 35 57.0602 35 48.4998C35 39.9394 27.8366 32.9998 19 32.9998V32.9777C8.6713 32.5199 0.402893 25.0104 0.0142874 15.6865H0.00300489C0.00100467 15.7907 0 15.8951 0 15.9998V40.9998Z" fill="url(&quot;#svg1-paint4_linear_5655_147842&quot;)" alignment-baseline="baseline" baseline-shift="baseline" color="rgb(0, 0, 0)" stroke="none"/>
  <defs alignment-baseline="baseline" baseline-shift="baseline" color="rgb(0, 0, 0)" fill="none" stroke="none">
    <linearGradient id="svg1-paint0_linear_5655_147842" x1="6" y1="31.3333" x2="13.046" y2="-2.05664" gradientUnits="userSpaceOnUse">
      <stop stop-color="#053377"/>
      <stop offset="1" stop-color="#2F91F2"/>
    </linearGradient>
    <linearGradient id="svg1-paint1_linear_5655_147842" x1="53.361" y1="4.95462" x2="37.3333" y2="29" gradientUnits="userSpaceOnUse">
      <stop stop-color="#4AC1FF"/>
      <stop offset="0.926632" stop-color="#155EB5"/>
    </linearGradient>
    <linearGradient id="svg1-paint2_linear_5655_147842" x1="27.6667" y1="14.3333" x2="43.3333" y2="45.3333" gradientUnits="userSpaceOnUse">
      <stop stop-color="#96DFFF"/>
      <stop offset="0.413439" stop-color="#53ADEE"/>
      <stop offset="1" stop-color="#006BB9"/>
    </linearGradient>
    <linearGradient id="svg1-paint3_linear_5655_147842" x1="40.2264" y1="38.8504" x2="57.1203" y2="66.9453" gradientUnits="userSpaceOnUse">
      <stop offset="0.0799194" stop-color="#4AC1FF"/>
      <stop offset="1" stop-color="#155EB5"/>
    </linearGradient>
    <linearGradient id="svg1-paint4_linear_5655_147842" x1="6.64196" y1="27.7693" x2="22.512" y2="65.9607" gradientUnits="userSpaceOnUse">
      <stop stop-color="#2F91F2"/>
      <stop offset="1" stop-color="#053377"/>
    </linearGradient>
  </defs>
</g></g></g></svg>