<svg role="img" xmlns="http://www.w3.org/2000/svg" fill="currentColor" viewBox="0 0 192 192">
  <title>Google Sheets</title>
  <path d="M8 74.6c0-8.943 0-13.415 1.404-16.962a20 20 0 0 1 11.234-11.233C24.185 45 28.656 45 37.6 45h60.8c8.943 0 13.415 0 16.962 1.404a20 20 0 0 1 11.234 11.234C128 61.185 128 65.656 128 74.6v42.8c0 8.943 0 13.415-1.404 16.962a20 20 0 0 1-11.234 11.234C111.815 147 107.343 147 98.4 147H37.6c-8.943 0-13.415 0-16.963-1.404a20 20 0 0 1-11.233-11.234C8 130.815 8 126.343 8 117.4z"/><g><path d="M24 32h160v128H24z"/><g><rect width="144" height="102" rx="25.6" transform="matrix(1 0 0 -1 8 147)"/></g></g><path stroke-linecap="round" stroke-width="12" d="M80 121h84m-20 19V76"/>
</svg>
